<svg width="97" height="100" viewBox="0 0 97 100" fill="none" xmlns="http://www.w3.org/2000/svg">
<path d="M57.45 10.7752H60.528L66.3177 16.5936C66.2404 16.7504 66.2016 16.9234 66.2044 17.0984C66.2037 17.3402 66.2744 17.5769 66.4075 17.7784C66.5407 17.9799 66.7304 18.1371 66.9525 18.2302C67.1747 18.3232 67.4193 18.348 67.6554 18.3013C67.8916 18.2545 68.1086 18.1384 68.2791 17.9677C68.4495 17.7969 68.5657 17.5792 68.613 17.342C68.6602 17.1048 68.6363 16.8589 68.5444 16.6354C68.4525 16.4118 68.2966 16.2207 68.0965 16.0863C67.8965 15.9518 67.6612 15.8801 67.4205 15.8801C67.2396 15.8779 67.0605 15.9155 66.8956 15.9901L60.8528 9.91748H57.0761L55.0216 12.0125L56.03 12.2023L57.45 10.7752Z" fill="#26838D"/>
<mask id="mask0_83_83" style="mask-type:luminance" maskUnits="userSpaceOnUse" x="55" y="9" width="14" height="10">
<path d="M57.45 10.7752H60.528L66.3177 16.5936C66.2404 16.7504 66.2016 16.9234 66.2044 17.0984C66.2037 17.3402 66.2744 17.5769 66.4075 17.7784C66.5407 17.9799 66.7304 18.1371 66.9525 18.2302C67.1747 18.3232 67.4193 18.348 67.6554 18.3013C67.8916 18.2545 68.1086 18.1384 68.2791 17.9677C68.4495 17.7969 68.5657 17.5792 68.613 17.342C68.6602 17.1048 68.6363 16.8589 68.5444 16.6354C68.4525 16.4118 68.2966 16.2207 68.0965 16.0863C67.8965 15.9518 67.6612 15.8801 67.4205 15.8801C67.2396 15.8779 67.0605 15.9155 66.8956 15.9901L60.8528 9.91748H57.0761L55.0216 12.0125L56.03 12.2023L57.45 10.7752Z" fill="white"/>
</mask>
<g mask="url(#mask0_83_83)">
<path d="M55.0593 9.92886V18.3167H68.6555V9.92886H55.0593Z" fill="#26838D"/>
</g>
<path d="M69.3051 33.1414C69.3036 32.8921 69.226 32.6492 69.0829 32.4456C68.9397 32.242 68.7378 32.0875 68.5044 32.0028V23.3645L61.8574 16.6846H61.8046L63.8024 19.8196L67.666 23.7023V31.98C67.4588 32.0581 67.2768 32.1915 67.1394 32.3658C67.0021 32.5401 66.9147 32.7488 66.8866 32.9694C66.8586 33.1899 66.8909 33.414 66.9802 33.6174C67.0694 33.8209 67.2122 33.996 67.3932 34.124C67.5742 34.2519 67.7864 34.3278 68.0071 34.3435C68.2279 34.3591 68.4486 34.314 68.6457 34.2129C68.8428 34.1118 69.0087 33.9586 69.1255 33.7698C69.2424 33.581 69.3058 33.3638 69.3089 33.1414H69.3051Z" fill="#26838D"/>
<mask id="mask1_83_83" style="mask-type:luminance" maskUnits="userSpaceOnUse" x="61" y="16" width="9" height="19">
<path d="M69.3051 33.1414C69.3036 32.8921 69.226 32.6492 69.0829 32.4456C68.9397 32.242 68.7378 32.0875 68.5044 32.0028V23.3645L61.8574 16.6846H61.8046L63.8024 19.8196L67.666 23.7023V31.98C67.4588 32.0581 67.2768 32.1915 67.1394 32.3658C67.0021 32.5401 66.9147 32.7488 66.8866 32.9694C66.8586 33.1899 66.8909 33.414 66.9802 33.6174C67.0694 33.8209 67.2122 33.996 67.3932 34.124C67.5742 34.2519 67.7864 34.3278 68.0071 34.3435C68.2279 34.3591 68.4486 34.314 68.6457 34.2129C68.8428 34.1118 69.0087 33.9586 69.1255 33.7698C69.2424 33.581 69.3058 33.3638 69.3089 33.1414H69.3051Z" fill="white"/>
</mask>
<g mask="url(#mask1_83_83)">
<path d="M61.8008 16.6846V34.3635H69.3051V16.6846H61.8008Z" fill="#26838D"/>
</g>
<path d="M67.0278 7.57563C67.0278 7.33376 66.9564 7.09732 66.8226 6.89626C66.6888 6.69521 66.4986 6.53857 66.2762 6.44618C66.0538 6.35379 65.809 6.32981 65.573 6.37728C65.337 6.42474 65.1204 6.54152 64.9504 6.71281C64.7805 6.88411 64.665 7.10222 64.6185 7.33954C64.572 7.57686 64.5966 7.8227 64.6892 8.04595C64.7819 8.26919 64.9383 8.4598 65.1388 8.59363C65.3393 8.72746 65.5748 8.7985 65.8155 8.79775C65.9895 8.80059 66.1618 8.76155 66.3178 8.68389L70.5439 12.9499C70.4696 13.1157 70.4322 13.2957 70.4344 13.4775C70.4344 13.718 70.5051 13.9532 70.6376 14.1536C70.7701 14.354 70.9585 14.5106 71.1792 14.6038C71.3999 14.697 71.643 14.7227 71.8782 14.6777C72.1133 14.6326 72.33 14.5189 72.5011 14.3506C72.6722 14.1823 72.79 13.9671 72.8399 13.7318C72.8897 13.4965 72.8694 13.2516 72.7814 13.0279C72.6934 12.8042 72.5417 12.6115 72.3452 12.4741C72.1487 12.3367 71.9162 12.2606 71.6769 12.2554C71.5028 12.2525 71.3306 12.2915 71.1746 12.3692L66.9145 8.11078C66.9918 7.9459 67.0305 7.76545 67.0278 7.58322V7.57563Z" fill="#26838D"/>
<mask id="mask2_83_83" style="mask-type:luminance" maskUnits="userSpaceOnUse" x="64" y="6" width="9" height="9">
<path d="M67.0278 7.57563C67.0278 7.33376 66.9564 7.09732 66.8226 6.89626C66.6888 6.69521 66.4986 6.53857 66.2762 6.44618C66.0538 6.35379 65.809 6.32981 65.573 6.37728C65.337 6.42474 65.1204 6.54152 64.9504 6.71281C64.7805 6.88411 64.665 7.10222 64.6185 7.33954C64.572 7.57686 64.5966 7.8227 64.6892 8.04595C64.7819 8.26919 64.9383 8.4598 65.1388 8.59363C65.3393 8.72746 65.5748 8.7985 65.8155 8.79775C65.9895 8.80059 66.1618 8.76155 66.3178 8.68389L70.5439 12.9499C70.4696 13.1157 70.4322 13.2957 70.4344 13.4775C70.4344 13.718 70.5051 13.9532 70.6376 14.1536C70.7701 14.354 70.9585 14.5106 71.1792 14.6038C71.3999 14.697 71.643 14.7227 71.8782 14.6777C72.1133 14.6326 72.33 14.5189 72.5011 14.3506C72.6722 14.1823 72.79 13.9671 72.8399 13.7318C72.8897 13.4965 72.8694 13.2516 72.7814 13.0279C72.6934 12.8042 72.5417 12.6115 72.3452 12.4741C72.1487 12.3367 71.9162 12.2606 71.6769 12.2554C71.5028 12.2525 71.3306 12.2915 71.1746 12.3692L66.9145 8.11078C66.9918 7.9459 67.0305 7.76545 67.0278 7.58322V7.57563Z" fill="white"/>
</mask>
<g mask="url(#mask2_83_83)">
<path d="M64.5803 6.36514V14.715H72.889V6.36514H64.5803Z" fill="#26838D"/>
</g>
<path d="M47.4417 14.434V12.8399L42.1921 7.57568H35.3601L33.3999 9.54929C33.2159 9.4481 33.0092 9.39584 32.7994 9.39747C32.5586 9.39748 32.3232 9.46935 32.123 9.60398C31.9229 9.7386 31.767 9.92992 31.6752 10.1537C31.5834 10.3774 31.5598 10.6235 31.6073 10.8608C31.6548 11.0981 31.7714 11.3158 31.9422 11.4865C32.1131 11.6571 32.3305 11.7729 32.5669 11.8191C32.8033 11.8654 33.048 11.8402 33.2701 11.7465C33.4922 11.6528 33.6816 11.495 33.8143 11.293C33.947 11.0911 34.017 10.854 34.0155 10.612C34.0104 10.4662 33.985 10.3218 33.94 10.1831L35.7151 8.39929H41.8409L46.6184 13.1777V13.8723L47.4417 14.434Z" fill="#26838D"/>
<mask id="mask3_83_83" style="mask-type:luminance" maskUnits="userSpaceOnUse" x="31" y="7" width="17" height="8">
<path d="M47.4417 14.434V12.8399L42.1921 7.57568H35.3601L33.3999 9.54929C33.2159 9.4481 33.0092 9.39584 32.7994 9.39747C32.5586 9.39748 32.3232 9.46935 32.123 9.60398C31.9229 9.7386 31.767 9.92992 31.6752 10.1537C31.5834 10.3774 31.5598 10.6235 31.6073 10.8608C31.6548 11.0981 31.7714 11.3158 31.9422 11.4865C32.1131 11.6571 32.3305 11.7729 32.5669 11.8191C32.8033 11.8654 33.048 11.8402 33.2701 11.7465C33.4922 11.6528 33.6816 11.495 33.8143 11.293C33.947 11.0911 34.017 10.854 34.0155 10.612C34.0104 10.4662 33.985 10.3218 33.94 10.1831L35.7151 8.39929H41.8409L46.6184 13.1777V13.8723L47.4417 14.434Z" fill="white"/>
</mask>
<g mask="url(#mask3_83_83)">
<path d="M31.568 7.57568V14.4454H47.4301V7.57568H31.568Z" fill="#26838D"/>
</g>
<path d="M38.3286 13.1017L39.5975 12.5932L39.2614 12.2554H37.5241L27.0513 22.7838V26.5792C26.7951 26.6527 26.5693 26.8072 26.4074 27.0198C26.2455 27.2324 26.1561 27.4918 26.1525 27.7596C26.1513 27.9796 26.2093 28.1959 26.3203 28.3856C26.4313 28.5752 26.5912 28.7313 26.7831 28.8372C26.975 28.9431 27.1919 28.995 27.4107 28.9874C27.6295 28.9798 27.8422 28.9129 28.0264 28.7939C28.2106 28.6749 28.3593 28.5081 28.457 28.3111C28.5547 28.1142 28.5976 27.8944 28.5813 27.675C28.565 27.4555 28.49 27.2446 28.3643 27.0644C28.2386 26.8842 28.0668 26.7415 27.8671 26.6513V23.1368L37.8376 13.1169H38.3248L38.3286 13.1017Z" fill="#26838D"/>
<mask id="mask4_83_83" style="mask-type:luminance" maskUnits="userSpaceOnUse" x="26" y="12" width="14" height="17">
<path d="M38.3286 13.1017L39.5975 12.5932L39.2614 12.2554H37.5241L27.0513 22.7838V26.5792C26.7951 26.6527 26.5693 26.8072 26.4074 27.0198C26.2455 27.2324 26.1561 27.4918 26.1525 27.7596C26.1513 27.9796 26.2093 28.1959 26.3203 28.3856C26.4313 28.5752 26.5912 28.7313 26.7831 28.8372C26.975 28.9431 27.1919 28.995 27.4107 28.9874C27.6295 28.9798 27.8422 28.9129 28.0264 28.7939C28.2106 28.6749 28.3593 28.5081 28.457 28.3111C28.5547 28.1142 28.5976 27.8944 28.5813 27.675C28.565 27.4555 28.49 27.2446 28.3643 27.0644C28.2386 26.8842 28.0668 26.7415 27.8671 26.6513V23.1368L37.8376 13.1169H38.3248L38.3286 13.1017Z" fill="white"/>
</mask>
<g mask="url(#mask4_83_83)">
<path d="M26.1716 12.2554V28.9779H39.5978V12.2554H26.1716Z" fill="#26838D"/>
</g>
<path d="M50.8218 8.55857C50.9815 8.55957 51.1398 8.52877 51.2875 8.46795C51.4353 8.40713 51.5696 8.31748 51.6826 8.2042C51.7957 8.09092 51.8853 7.95624 51.9463 7.80795C52.0073 7.65966 52.0384 7.5007 52.0379 7.34025C52.0387 7.15944 52 6.98065 51.9246 6.81648L53.3258 5.40839H56.5171C56.6023 5.6423 56.7563 5.84459 56.9587 5.98833C57.1611 6.13207 57.4023 6.21044 57.6501 6.21301C57.9716 6.21301 58.28 6.08465 58.5074 5.85617C58.7347 5.62769 58.8624 5.31781 58.8624 4.99469C58.8624 4.67157 58.7347 4.36169 58.5074 4.13321C58.28 3.90473 57.9716 3.77637 57.6501 3.77637C57.4023 3.77894 57.1611 3.85731 56.9587 4.00105C56.7563 4.1448 56.6023 4.34709 56.5171 4.58099H52.9859L51.3241 6.25097C51.1604 6.17674 50.9826 6.13918 50.803 6.1409C50.6393 6.13168 50.4755 6.15611 50.3216 6.2127C50.1677 6.26928 50.0269 6.35683 49.9078 6.46999C49.7887 6.58314 49.6939 6.71953 49.629 6.8708C49.5642 7.02206 49.5308 7.18503 49.5308 7.34974C49.5308 7.51444 49.5642 7.67741 49.629 7.82868C49.6939 7.97994 49.7887 8.11633 49.9078 8.22948C50.0269 8.34264 50.1677 8.43019 50.3216 8.48677C50.4755 8.54336 50.6393 8.56779 50.803 8.55857H50.8218Z" fill="#26838D"/>
<mask id="mask5_83_83" style="mask-type:luminance" maskUnits="userSpaceOnUse" x="49" y="3" width="10" height="6">
<path d="M50.8218 8.55857C50.9815 8.55957 51.1398 8.52877 51.2875 8.46795C51.4353 8.40713 51.5696 8.31748 51.6826 8.2042C51.7957 8.09092 51.8853 7.95624 51.9463 7.80795C52.0073 7.65966 52.0384 7.5007 52.0379 7.34025C52.0387 7.15944 52 6.98065 51.9246 6.81648L53.3258 5.40839H56.5171C56.6023 5.6423 56.7563 5.84459 56.9587 5.98833C57.1611 6.13207 57.4023 6.21044 57.6501 6.21301C57.9716 6.21301 58.28 6.08465 58.5074 5.85617C58.7347 5.62769 58.8624 5.31781 58.8624 4.99469C58.8624 4.67157 58.7347 4.36169 58.5074 4.13321C58.28 3.90473 57.9716 3.77637 57.6501 3.77637C57.4023 3.77894 57.1611 3.85731 56.9587 4.00105C56.7563 4.1448 56.6023 4.34709 56.5171 4.58099H52.9859L51.3241 6.25097C51.1604 6.17674 50.9826 6.13918 50.803 6.1409C50.6393 6.13168 50.4755 6.15611 50.3216 6.2127C50.1677 6.26928 50.0269 6.35683 49.9078 6.46999C49.7887 6.58314 49.6939 6.71953 49.629 6.8708C49.5642 7.02206 49.5308 7.18503 49.5308 7.34974C49.5308 7.51444 49.5642 7.67741 49.629 7.82868C49.6939 7.97994 49.7887 8.11633 49.9078 8.22948C50.0269 8.34264 50.1677 8.43019 50.3216 8.48677C50.4755 8.54336 50.6393 8.56779 50.803 8.55857H50.8218Z" fill="white"/>
</mask>
<g mask="url(#mask5_83_83)">
<path d="M49.5868 3.75739V8.55857H58.8661V3.75739H49.5868Z" fill="#26838D"/>
</g>
<path d="M41.7465 12.13L42.736 11.9213L40.7381 9.92871H36.9614L30.9187 16.0013C30.7545 15.9286 30.577 15.8911 30.3975 15.8913C30.1588 15.898 29.9274 15.9754 29.7324 16.1138C29.5373 16.2522 29.3872 16.4455 29.301 16.6692C29.2148 16.893 29.1963 17.1374 29.2477 17.3717C29.2992 17.6061 29.4184 17.8199 29.5903 17.9864C29.7623 18.1529 29.9793 18.2647 30.2143 18.3077C30.4492 18.3507 30.6915 18.3231 30.9108 18.2282C31.1302 18.1333 31.3167 17.9755 31.4471 17.7745C31.5775 17.5734 31.646 17.3382 31.6438 17.0982C31.6467 16.9233 31.6078 16.7502 31.5305 16.5934L37.3089 10.7751H40.3907L41.7465 12.13Z" fill="#26838D"/>
<mask id="mask6_83_83" style="mask-type:luminance" maskUnits="userSpaceOnUse" x="29" y="9" width="14" height="10">
<path d="M41.7465 12.13L42.736 11.9213L40.7381 9.92871H36.9614L30.9187 16.0013C30.7545 15.9286 30.577 15.8911 30.3975 15.8913C30.1588 15.898 29.9274 15.9754 29.7324 16.1138C29.5373 16.2522 29.3872 16.4455 29.301 16.6692C29.2148 16.893 29.1963 17.1374 29.2477 17.3717C29.2992 17.6061 29.4184 17.8199 29.5903 17.9864C29.7623 18.1529 29.9793 18.2647 30.2143 18.3077C30.4492 18.3507 30.6915 18.3231 30.9108 18.2282C31.1302 18.1333 31.3167 17.9755 31.4471 17.7745C31.5775 17.5734 31.646 17.3382 31.6438 17.0982C31.6467 16.9233 31.6078 16.7502 31.5305 16.5934L37.3089 10.7751H40.3907L41.7465 12.13Z" fill="white"/>
</mask>
<g mask="url(#mask6_83_83)">
<path d="M29.1777 9.92871V18.3165H42.7361V9.92871H29.1777Z" fill="#26838D"/>
</g>
<path d="M65.0488 11.8455C65.3591 11.8281 65.651 11.692 65.8646 11.465C66.0781 11.2381 66.1971 10.9376 66.1971 10.6253C66.1971 10.3129 66.0781 10.0125 65.8646 9.78553C65.651 9.55861 65.3591 9.42247 65.0488 9.40507C64.841 9.40632 64.6365 9.45704 64.4521 9.55309L62.4919 7.57568H55.6561L50.4103 12.8589V14.3201L51.2487 13.7204V13.2156L56.0111 8.42965H62.1558L63.9271 10.2135C63.8743 10.35 63.8499 10.496 63.8553 10.6424C63.8528 10.8007 63.8819 10.958 63.9409 11.1049C64 11.2518 64.0877 11.3853 64.199 11.4974C64.3103 11.6096 64.4428 11.6982 64.5888 11.758C64.7347 11.8178 64.8912 11.8476 65.0488 11.8455Z" fill="#26838D"/>
<mask id="mask7_83_83" style="mask-type:luminance" maskUnits="userSpaceOnUse" x="50" y="7" width="17" height="8">
<path d="M65.0488 11.8455C65.3591 11.8281 65.651 11.692 65.8646 11.465C66.0781 11.2381 66.1971 10.9376 66.1971 10.6253C66.1971 10.3129 66.0781 10.0125 65.8646 9.78553C65.651 9.55861 65.3591 9.42247 65.0488 9.40507C64.841 9.40632 64.6365 9.45704 64.4521 9.55309L62.4919 7.57568H55.6561L50.4103 12.8589V14.3201L51.2487 13.7204V13.2156L56.0111 8.42965H62.1558L63.9271 10.2135C63.8743 10.35 63.8499 10.496 63.8553 10.6424C63.8528 10.8007 63.8819 10.958 63.9409 11.1049C64 11.2518 64.0877 11.3853 64.199 11.4974C64.3103 11.6096 64.4428 11.6982 64.5888 11.758C64.7347 11.8178 64.8912 11.8476 65.0488 11.8455Z" fill="white"/>
</mask>
<g mask="url(#mask7_83_83)">
<path d="M50.3911 7.57568V14.3011H66.2533V7.57568H50.3911Z" fill="#26838D"/>
</g>
<path d="M36.0323 16.6846H35.9757L29.3287 23.3645V31.999C29.0589 32.096 28.832 32.2856 28.6877 32.5343C28.5435 32.7831 28.4913 33.075 28.5403 33.3586C28.5892 33.6423 28.7363 33.8994 28.9555 34.0848C29.1747 34.2701 29.452 34.3718 29.7384 34.3718C30.0249 34.3718 30.3022 34.2701 30.5214 34.0848C30.7406 33.8994 30.8876 33.6423 30.9366 33.3586C30.9856 33.075 30.9334 32.7831 30.7891 32.5343C30.6449 32.2856 30.4179 32.096 30.1482 31.999V23.7212L34.0156 19.8385L36.0323 16.6846Z" fill="#26838D"/>
<mask id="mask8_83_83" style="mask-type:luminance" maskUnits="userSpaceOnUse" x="28" y="16" width="9" height="19">
<path d="M36.0323 16.6846H35.9757L29.3287 23.3645V31.999C29.0589 32.096 28.832 32.2856 28.6877 32.5343C28.5435 32.7831 28.4913 33.075 28.5403 33.3586C28.5892 33.6423 28.7363 33.8994 28.9555 34.0848C29.1747 34.2701 29.452 34.3718 29.7384 34.3718C30.0249 34.3718 30.3022 34.2701 30.5214 34.0848C30.7406 33.8994 30.8876 33.6423 30.9366 33.3586C30.9856 33.075 30.9334 32.7831 30.7891 32.5343C30.6449 32.2856 30.4179 32.096 30.1482 31.999V23.7212L34.0156 19.8385L36.0323 16.6846Z" fill="white"/>
</mask>
<g mask="url(#mask8_83_83)">
<path d="M28.5245 16.6846V34.3635H36.0326V16.6846H28.5245Z" fill="#26838D"/>
</g>
<path d="M69.2296 27.7368C69.2304 27.9646 69.2945 28.1877 69.4148 28.3808C69.535 28.5739 69.7066 28.7294 69.9101 28.8297C70.1137 28.93 70.341 28.9712 70.5666 28.9485C70.7921 28.9258 71.0069 28.8403 71.1867 28.7015C71.3664 28.5627 71.504 28.3761 71.5838 28.1629C71.6637 27.9497 71.6826 27.7183 71.6386 27.4949C71.5945 27.2714 71.4891 27.0648 71.3344 26.8983C71.1797 26.7318 70.9817 26.6121 70.7629 26.5526V22.7572L60.3052 12.2554H58.5679L58.2318 12.5932L59.5197 13.1017H59.9691L69.9396 23.1368V26.6475C69.7271 26.7421 69.5467 26.8971 69.4205 27.0933C69.2944 27.2895 69.228 27.5184 69.2296 27.752V27.7368Z" fill="#26838D"/>
<mask id="mask9_83_83" style="mask-type:luminance" maskUnits="userSpaceOnUse" x="58" y="12" width="14" height="17">
<path d="M69.2296 27.7368C69.2304 27.9646 69.2945 28.1877 69.4148 28.3808C69.535 28.5739 69.7066 28.7294 69.9101 28.8297C70.1137 28.93 70.341 28.9712 70.5666 28.9485C70.7921 28.9258 71.0069 28.8403 71.1867 28.7015C71.3664 28.5627 71.504 28.3761 71.5838 28.1629C71.6637 27.9497 71.6826 27.7183 71.6386 27.4949C71.5945 27.2714 71.4891 27.0648 71.3344 26.8983C71.1797 26.7318 70.9817 26.6121 70.7629 26.5526V22.7572L60.3052 12.2554H58.5679L58.2318 12.5932L59.5197 13.1017H59.9691L69.9396 23.1368V26.6475C69.7271 26.7421 69.5467 26.8971 69.4205 27.0933C69.2944 27.2895 69.228 27.5184 69.2296 27.752V27.7368Z" fill="white"/>
</mask>
<g mask="url(#mask9_83_83)">
<path d="M58.2126 12.2554V28.9779H71.6766V12.2554H58.2126Z" fill="#26838D"/>
</g>
<path d="M33.1205 32.109L32.2783 31.2095V35.6956L31.5683 36.4206C31.4259 36.3649 31.2752 36.3341 31.1226 36.3295C30.8828 36.3295 30.6484 36.4009 30.4491 36.5348C30.2497 36.6687 30.0943 36.8589 30.0026 37.0816C29.9108 37.3042 29.8868 37.5491 29.9336 37.7855C29.9804 38.0218 30.0958 38.2389 30.2654 38.4093C30.4349 38.5797 30.6509 38.6957 30.8861 38.7427C31.1213 38.7897 31.365 38.7656 31.5865 38.6734C31.8081 38.5812 31.9974 38.425 32.1306 38.2247C32.2638 38.0243 32.3349 37.7888 32.3349 37.5478C32.3318 37.3448 32.28 37.1456 32.1839 36.9671L33.1016 36.041V32.109H33.1205Z" fill="#26838D"/>
<mask id="mask10_83_83" style="mask-type:luminance" maskUnits="userSpaceOnUse" x="29" y="31" width="5" height="8">
<path d="M33.1205 32.109L32.2783 31.2095V35.6956L31.5683 36.4206C31.4259 36.3649 31.2752 36.3341 31.1226 36.3295C30.8828 36.3295 30.6484 36.4009 30.4491 36.5348C30.2497 36.6687 30.0943 36.8589 30.0026 37.0816C29.9108 37.3042 29.8868 37.5491 29.9336 37.7855C29.9804 38.0218 30.0958 38.2389 30.2654 38.4093C30.4349 38.5797 30.6509 38.6957 30.8861 38.7427C31.1213 38.7897 31.365 38.7656 31.5865 38.6734C31.8081 38.5812 31.9974 38.425 32.1306 38.2247C32.2638 38.0243 32.3349 37.7888 32.3349 37.5478C32.3318 37.3448 32.28 37.1456 32.1839 36.9671L33.1016 36.041V32.109H33.1205Z" fill="white"/>
</mask>
<g mask="url(#mask10_83_83)">
<path d="M29.9065 31.2095V38.7699H33.1205V31.2095H29.9065Z" fill="#26838D"/>
</g>
<path d="M69.1956 14.3769C69.2698 14.2124 69.3072 14.0336 69.3051 13.8531C69.3059 13.6111 69.2351 13.3743 69.1017 13.1727C68.9684 12.9712 68.7785 12.8139 68.5561 12.721C68.3338 12.628 68.089 12.6035 67.8527 12.6505C67.6164 12.6975 67.3994 12.814 67.2291 12.9851C67.0588 13.1563 66.9429 13.3744 66.8961 13.6118C66.8493 13.8492 66.8737 14.0953 66.9662 14.3188C67.0587 14.5422 67.2152 14.733 67.4157 14.867C67.6163 15.001 67.852 15.0722 68.0928 15.0714C68.2727 15.0722 68.4506 15.0333 68.614 14.9576L72.2018 18.5632V18.9427C71.9321 19.0397 71.7051 19.2293 71.5609 19.4781C71.4167 19.7268 71.3644 20.0187 71.4134 20.3024C71.4624 20.586 71.6095 20.8432 71.8287 21.0285C72.0479 21.2139 72.3251 21.3155 72.6116 21.3155C72.8981 21.3155 73.1754 21.2139 73.3946 21.0285C73.6138 20.8432 73.7608 20.586 73.8098 20.3024C73.8588 20.0187 73.8066 19.7268 73.6623 19.4781C73.5181 19.2293 73.2911 19.0397 73.0214 18.9427V18.2254L69.1956 14.3769Z" fill="#26838D"/>
<mask id="mask11_83_83" style="mask-type:luminance" maskUnits="userSpaceOnUse" x="66" y="12" width="8" height="10">
<path d="M69.1956 14.3769C69.2698 14.2124 69.3072 14.0336 69.3051 13.8531C69.3059 13.6111 69.2351 13.3743 69.1017 13.1727C68.9684 12.9712 68.7785 12.8139 68.5561 12.721C68.3338 12.628 68.089 12.6035 67.8527 12.6505C67.6164 12.6975 67.3994 12.814 67.2291 12.9851C67.0588 13.1563 66.9429 13.3744 66.8961 13.6118C66.8493 13.8492 66.8737 14.0953 66.9662 14.3188C67.0587 14.5422 67.2152 14.733 67.4157 14.867C67.6163 15.001 67.852 15.0722 68.0928 15.0714C68.2727 15.0722 68.4506 15.0333 68.614 14.9576L72.2018 18.5632V18.9427C71.9321 19.0397 71.7051 19.2293 71.5609 19.4781C71.4167 19.7268 71.3644 20.0187 71.4134 20.3024C71.4624 20.586 71.6095 20.8432 71.8287 21.0285C72.0479 21.2139 72.3251 21.3155 72.6116 21.3155C72.8981 21.3155 73.1754 21.2139 73.3946 21.0285C73.6138 20.8432 73.7608 20.586 73.8098 20.3024C73.8588 20.0187 73.8066 19.7268 73.6623 19.4781C73.5181 19.2293 73.2911 19.0397 73.0214 18.9427V18.2254L69.1956 14.3769Z" fill="white"/>
</mask>
<g mask="url(#mask11_83_83)">
<path d="M66.8616 12.631V21.3376H73.807V12.631H66.8616Z" fill="#26838D"/>
</g>
<path d="M60.0257 44.0115L59.1835 44.892V49.4465L58.8474 49.7843C58.6846 49.7067 58.5063 49.6677 58.3262 49.6704C58.0854 49.6697 57.8497 49.7408 57.6491 49.8748C57.4486 50.0088 57.2921 50.1996 57.1996 50.4231C57.1071 50.6466 57.0827 50.8926 57.1295 51.13C57.1763 51.3674 57.2922 51.5856 57.4625 51.7567C57.6328 51.9278 57.8498 52.0443 58.0861 52.0913C58.3223 52.1384 58.5672 52.1139 58.7895 52.0209C59.0119 51.9279 59.2018 51.7707 59.3351 51.5691C59.4685 51.3676 59.5393 51.1308 59.5385 50.8887C59.5425 50.7141 59.505 50.541 59.429 50.3839L60.0257 49.7843V44.0115Z" fill="#26838D"/>
<mask id="mask12_83_83" style="mask-type:luminance" maskUnits="userSpaceOnUse" x="57" y="44" width="4" height="9">
<path d="M60.0257 44.0115L59.1835 44.892V49.4465L58.8474 49.7843C58.6846 49.7067 58.5063 49.6677 58.3262 49.6704C58.0854 49.6697 57.8497 49.7408 57.6491 49.8748C57.4486 50.0088 57.2921 50.1996 57.1996 50.4231C57.1071 50.6466 57.0827 50.8926 57.1295 51.13C57.1763 51.3674 57.2922 51.5856 57.4625 51.7567C57.6328 51.9278 57.8498 52.0443 58.0861 52.0913C58.3223 52.1384 58.5672 52.1139 58.7895 52.0209C59.0119 51.9279 59.2018 51.7707 59.3351 51.5691C59.4685 51.3676 59.5393 51.1308 59.5385 50.8887C59.5425 50.7141 59.505 50.541 59.429 50.3839L60.0257 49.7843V44.0115Z" fill="white"/>
</mask>
<g mask="url(#mask12_83_83)">
<path d="M57.1142 44.0115V52.1336H60.026V44.0115H57.1142Z" fill="#26838D"/>
</g>
<path d="M66.7105 38.77C67.032 38.77 67.3404 38.6416 67.5678 38.4131C67.7951 38.1847 67.9228 37.8748 67.9228 37.5517C67.9228 37.2285 67.7951 36.9186 67.5678 36.6902C67.3404 36.4617 67.032 36.3333 66.7105 36.3333C66.5563 36.3341 66.4036 36.3651 66.2611 36.4244L65.5511 35.7147V31.2285L64.7126 32.128V36.0676L65.6342 36.9899C65.5344 37.1668 65.4835 37.3673 65.4869 37.5706C65.4976 37.8905 65.6309 38.1939 65.8589 38.4174C66.0869 38.6409 66.392 38.7672 66.7105 38.77Z" fill="#26838D"/>
<mask id="mask13_83_83" style="mask-type:luminance" maskUnits="userSpaceOnUse" x="64" y="31" width="4" height="8">
<path d="M66.7105 38.77C67.032 38.77 67.3404 38.6416 67.5678 38.4131C67.7951 38.1847 67.9228 37.8748 67.9228 37.5517C67.9228 37.2285 67.7951 36.9186 67.5678 36.6902C67.3404 36.4617 67.032 36.3333 66.7105 36.3333C66.5563 36.3341 66.4036 36.3651 66.2611 36.4244L65.5511 35.7147V31.2285L64.7126 32.128V36.0676L65.6342 36.9899C65.5344 37.1668 65.4835 37.3673 65.4869 37.5706C65.4976 37.8905 65.6309 38.1939 65.8589 38.4174C66.0869 38.6409 66.392 38.7672 66.7105 38.77Z" fill="white"/>
</mask>
<g mask="url(#mask13_83_83)">
<path d="M64.7126 31.2095V38.77H67.9228V31.2095H64.7126Z" fill="#26838D"/>
</g>
<path d="M53.6583 24.9433C53.7237 25.0655 53.8158 25.1713 53.9276 25.2528C54.0394 25.3343 54.1681 25.3894 54.3041 25.4139C54.4346 25.4407 54.5693 25.4398 54.6994 25.411C54.8295 25.3822 54.9522 25.3263 55.0594 25.2469L58.2318 22.8254L52.9445 23.6149L53.6583 24.9433Z" fill="#26838D"/>
<mask id="mask14_83_83" style="mask-type:luminance" maskUnits="userSpaceOnUse" x="52" y="22" width="7" height="4">
<path d="M53.6583 24.9433C53.7237 25.0655 53.8158 25.1713 53.9276 25.2528C54.0394 25.3343 54.1681 25.3894 54.3041 25.4139C54.4346 25.4407 54.5693 25.4398 54.6994 25.411C54.8295 25.3822 54.9522 25.3263 55.0594 25.2469L58.2318 22.8254L52.9445 23.6149L53.6583 24.9433Z" fill="white"/>
</mask>
<g mask="url(#mask14_83_83)">
<path d="M52.9291 22.8216V25.4783H58.2165V22.8216H52.9291Z" fill="#26838D"/>
</g>
<path d="M42.7737 25.2242C42.8825 25.3046 43.0069 25.3609 43.1389 25.3895C43.2709 25.418 43.4074 25.4181 43.5394 25.3898C43.6715 25.3615 43.796 25.3053 43.9049 25.2251C44.0138 25.1449 44.1045 25.0424 44.1711 24.9244L44.9264 23.5922L39.639 22.8027L42.7737 25.2242Z" fill="#26838D"/>
<mask id="mask15_83_83" style="mask-type:luminance" maskUnits="userSpaceOnUse" x="39" y="22" width="6" height="4">
<path d="M42.7737 25.2242C42.8825 25.3046 43.0069 25.3609 43.1389 25.3895C43.2709 25.418 43.4074 25.4181 43.5394 25.3898C43.6715 25.3615 43.796 25.3053 43.9049 25.2251C44.0138 25.1449 44.1045 25.0424 44.1711 24.9244L44.9264 23.5922L39.639 22.8027L42.7737 25.2242Z" fill="white"/>
</mask>
<g mask="url(#mask15_83_83)">
<path d="M39.5975 22.8217V25.4785H44.8849V22.8217H39.5975Z" fill="#26838D"/>
</g>
<path d="M65.7021 29.1828L62.3975 24.6283L63.5003 21.7362L58.549 13.9443L54.1983 13.1396L48.9109 16.935L43.2005 13.1586L39.2992 13.9633L34.3517 21.7514L35.4545 24.6549L32.1461 29.2094L37.3957 34.8L36.2929 40.5804L39.877 44.353L40.2887 44.5959L47.9818 38.7358L48.5974 34.9822L45.1984 32.7467L43.2949 30.7275L48.9147 32.7543L54.5344 30.7275L52.6121 32.7543L49.213 34.9898L49.8286 38.7434L57.5218 44.5959L57.9334 44.353L61.4835 40.6183L60.4185 34.8L65.6832 29.1904L65.7021 29.1828ZM60.6036 40.3109L57.5595 43.518L50.6331 38.2462L50.1497 35.3769L53.171 33.4033L57.7031 28.678L48.9147 31.8661L40.1754 28.6932L44.6583 33.3843L44.6961 33.4223L47.6835 35.3959L47.2152 38.2652L40.2887 43.537L37.2069 40.2919L38.3097 34.5229L33.23 29.1069L36.3874 24.7536L35.2846 21.8273L39.8166 14.7147L43.0306 14.0581L48.9336 17.9788L54.4249 14.0581L58.0467 14.7337L62.5788 21.8463L61.4798 24.7725L64.6333 29.1259L59.5574 34.5229L60.6036 40.3223V40.3109Z" fill="#26838D"/>
<mask id="mask16_83_83" style="mask-type:luminance" maskUnits="userSpaceOnUse" x="32" y="13" width="34" height="32">
<path d="M65.7021 29.1828L62.3975 24.6283L63.5003 21.7362L58.549 13.9443L54.1983 13.1396L48.9109 16.935L43.2005 13.1586L39.2992 13.9633L34.3517 21.7514L35.4545 24.6549L32.1461 29.2094L37.3957 34.8L36.2929 40.5804L39.877 44.353L40.2887 44.5959L47.9818 38.7358L48.5974 34.9822L45.1984 32.7467L43.2949 30.7275L48.9147 32.7543L54.5344 30.7275L52.6121 32.7543L49.213 34.9898L49.8286 38.7434L57.5218 44.5959L57.9334 44.353L61.4835 40.6183L60.4185 34.8L65.6832 29.1904L65.7021 29.1828ZM60.6036 40.3109L57.5595 43.518L50.6331 38.2462L50.1497 35.3769L53.171 33.4033L57.7031 28.678L48.9147 31.8661L40.1754 28.6932L44.6583 33.3843L44.6961 33.4223L47.6835 35.3959L47.2152 38.2652L40.2887 43.537L37.2069 40.2919L38.3097 34.5229L33.23 29.1069L36.3874 24.7536L35.2846 21.8273L39.8166 14.7147L43.0306 14.0581L48.9336 17.9788L54.4249 14.0581L58.0467 14.7337L62.5788 21.8463L61.4798 24.7725L64.6333 29.1259L59.5574 34.5229L60.6036 40.3223V40.3109Z" fill="white"/>
</mask>
<g mask="url(#mask16_83_83)">
<path d="M32.1271 13.1586V44.5883H65.7397V13.1586H32.1271Z" fill="#26838D"/>
</g>
<path d="M37.8036 44.0115V49.7919L38.4041 50.3915C38.3283 50.5488 38.2895 50.7216 38.2908 50.8963C38.29 51.1384 38.3608 51.3752 38.4942 51.5767C38.6275 51.7783 38.8174 51.9355 39.0398 52.0285C39.2621 52.1214 39.5069 52.146 39.7432 52.0989C39.9795 52.0519 40.1965 51.9354 40.3668 51.7643C40.5371 51.5931 40.653 51.375 40.6998 51.1376C40.7466 50.9002 40.7222 50.6541 40.6297 50.4307C40.5372 50.2072 40.3807 50.0164 40.1801 49.8824C39.9796 49.7484 39.7439 49.6773 39.5031 49.678C39.3232 49.6772 39.1453 49.7161 38.9819 49.7919L38.6458 49.4541V44.8996L37.8036 44.0115Z" fill="#26838D"/>
<mask id="mask17_83_83" style="mask-type:luminance" maskUnits="userSpaceOnUse" x="37" y="44" width="4" height="9">
<path d="M37.8036 44.0115V49.7919L38.4041 50.3915C38.3283 50.5488 38.2895 50.7216 38.2908 50.8963C38.29 51.1384 38.3608 51.3752 38.4942 51.5767C38.6275 51.7783 38.8174 51.9355 39.0398 52.0285C39.2621 52.1214 39.5069 52.146 39.7432 52.0989C39.9795 52.0519 40.1965 51.9354 40.3668 51.7643C40.5371 51.5931 40.653 51.375 40.6998 51.1376C40.7466 50.9002 40.7222 50.6541 40.6297 50.4307C40.5372 50.2072 40.3807 50.0164 40.1801 49.8824C39.9796 49.7484 39.7439 49.6773 39.5031 49.678C39.3232 49.6772 39.1453 49.7161 38.9819 49.7919L38.6458 49.4541V44.8996L37.8036 44.0115Z" fill="white"/>
</mask>
<g mask="url(#mask17_83_83)">
<path d="M37.8036 44.0115V52.1336H40.7079V44.0115H37.8036Z" fill="#26838D"/>
</g>
<path d="M53.3032 50.3118L56.7589 44.8503L49.3641 40.7057L48.9147 40.459L48.469 40.7057L41.0856 44.8503L44.5375 50.3118L45.3419 48.8658L48.926 52.2437L52.5139 48.8658L53.3032 50.3118ZM45.1266 47.4957L44.4884 48.6343L42.2677 45.1501L48.9147 41.4192L55.5617 45.1501L53.341 48.6419L52.7065 47.5032L48.9298 51.0709L45.1266 47.4957Z" fill="#26838D"/>
<mask id="mask18_83_83" style="mask-type:luminance" maskUnits="userSpaceOnUse" x="41" y="40" width="16" height="13">
<path d="M53.3032 50.3118L56.7589 44.8503L49.3641 40.7057L48.9147 40.459L48.469 40.7057L41.0856 44.8503L44.5375 50.3118L45.3419 48.8658L48.926 52.2437L52.5139 48.8658L53.3032 50.3118ZM45.1266 47.4957L44.4884 48.6343L42.2677 45.1501L48.9147 41.4192L55.5617 45.1501L53.341 48.6419L52.7065 47.5032L48.9298 51.0709L45.1266 47.4957Z" fill="white"/>
</mask>
<g mask="url(#mask18_83_83)">
<path d="M41.0856 40.44V52.2437H56.7589V40.44H41.0856Z" fill="#26838D"/>
</g>
<path d="M56.6644 2.44422C56.9127 2.44137 57.1542 2.36244 57.3567 2.21798C57.5591 2.07352 57.7129 1.87042 57.7975 1.6358H63.9761L68.1041 5.78418C68.0283 5.94147 67.9895 6.11419 67.9908 6.28896C67.99 6.531 68.0608 6.7678 68.1941 6.96936C68.3275 7.17092 68.5174 7.32815 68.7397 7.42112C68.9621 7.51409 69.2069 7.53861 69.4432 7.49157C69.6794 7.44454 69.8965 7.32807 70.0668 7.15692C70.2371 6.98578 70.353 6.76767 70.3998 6.53025C70.4466 6.29283 70.4222 6.04679 70.3297 5.82332C70.2372 5.59985 70.0807 5.40902 69.8801 5.27502C69.6796 5.14102 69.4439 5.06989 69.2031 5.07064C69.0232 5.07035 68.8454 5.1092 68.6819 5.1845L64.3198 0.793225H57.7861C57.7081 0.584104 57.5746 0.400455 57.4001 0.262228C57.2255 0.124001 57.0166 0.0364797 56.7961 0.00917164C56.5755 -0.0181365 56.3517 0.0158124 56.149 0.107331C55.9463 0.198849 55.7724 0.344437 55.6463 0.528282C55.5201 0.712127 55.4465 0.927199 55.4334 1.15014C55.4203 1.37308 55.4682 1.59536 55.572 1.79284C55.6758 1.99031 55.8314 2.15544 56.022 2.27028C56.2126 2.38512 56.4309 2.44528 56.6531 2.44422H56.6644Z" fill="#26838D"/>
<mask id="mask19_83_83" style="mask-type:luminance" maskUnits="userSpaceOnUse" x="55" y="0" width="16" height="8">
<path d="M56.6644 2.44422C56.9127 2.44137 57.1542 2.36244 57.3567 2.21798C57.5591 2.07352 57.7129 1.87042 57.7975 1.6358H63.9761L68.1041 5.78418C68.0283 5.94147 67.9895 6.11419 67.9908 6.28896C67.99 6.531 68.0608 6.7678 68.1941 6.96936C68.3275 7.17092 68.5174 7.32815 68.7397 7.42112C68.9621 7.51409 69.2069 7.53861 69.4432 7.49157C69.6794 7.44454 69.8965 7.32807 70.0668 7.15692C70.2371 6.98578 70.353 6.76767 70.3998 6.53025C70.4466 6.29283 70.4222 6.04679 70.3297 5.82332C70.2372 5.59985 70.0807 5.40902 69.8801 5.27502C69.6796 5.14102 69.4439 5.06989 69.2031 5.07064C69.0232 5.07035 68.8454 5.1092 68.6819 5.1845L64.3198 0.793225H57.7861C57.7081 0.584104 57.5746 0.400455 57.4001 0.262228C57.2255 0.124001 57.0166 0.0364797 56.7961 0.00917164C56.5755 -0.0181365 56.3517 0.0158124 56.149 0.107331C55.9463 0.198849 55.7724 0.344437 55.6463 0.528282C55.5201 0.712127 55.4465 0.927199 55.4334 1.15014C55.4203 1.37308 55.4682 1.59536 55.572 1.79284C55.6758 1.99031 55.8314 2.15544 56.022 2.27028C56.2126 2.38512 56.4309 2.44528 56.6531 2.44422H56.6644Z" fill="white"/>
</mask>
<g mask="url(#mask19_83_83)">
<path d="M55.4373 0.00393677V7.53021H70.4308V0.00393677H55.4373Z" fill="#26838D"/>
</g>
<path d="M56.5134 62.6089V58.4339L52.3137 54.2135L54.304 52.2247C54.5376 52.3519 54.8063 52.3985 55.0688 52.3574C55.3313 52.3162 55.573 52.1895 55.7569 51.9968C55.9408 51.8041 56.0566 51.556 56.0865 51.2907C56.1164 51.0254 56.0587 50.7576 55.9224 50.5284C55.7861 50.2993 55.5786 50.1215 55.3319 50.0224C55.0852 49.9233 54.8129 49.9083 54.557 49.9799C54.301 50.0514 54.0755 50.2055 53.9152 50.4184C53.7549 50.6312 53.6685 50.8912 53.6695 51.1582C53.6763 51.31 53.7016 51.4604 53.7451 51.606L51.1316 54.2324L55.675 58.8135V62.6089C55.4659 62.6847 55.2817 62.8168 55.1423 62.9908C55.003 63.1647 54.9139 63.3738 54.8848 63.5952C54.8557 63.8166 54.8877 64.0418 54.9773 64.2462C55.0669 64.4505 55.2107 64.6262 55.393 64.754C55.5752 64.8818 55.7889 64.9567 56.0107 64.9707C56.2325 64.9847 56.4538 64.9372 56.6506 64.8333C56.8473 64.7294 57.0118 64.5732 57.1262 64.3817C57.2405 64.1902 57.3003 63.9708 57.2989 63.7475C57.3024 63.4991 57.2286 63.2558 57.0877 63.0517C56.9469 62.8475 56.7461 62.6927 56.5134 62.6089Z" fill="#26838D"/>
<mask id="mask20_83_83" style="mask-type:luminance" maskUnits="userSpaceOnUse" x="51" y="49" width="7" height="16">
<path d="M56.5134 62.6089V58.4339L52.3137 54.2135L54.304 52.2247C54.5376 52.3519 54.8063 52.3985 55.0688 52.3574C55.3313 52.3162 55.573 52.1895 55.7569 51.9968C55.9408 51.8041 56.0566 51.556 56.0865 51.2907C56.1164 51.0254 56.0587 50.7576 55.9224 50.5284C55.7861 50.2993 55.5786 50.1215 55.3319 50.0224C55.0852 49.9233 54.8129 49.9083 54.557 49.9799C54.301 50.0514 54.0755 50.2055 53.9152 50.4184C53.7549 50.6312 53.6685 50.8912 53.6695 51.1582C53.6763 51.31 53.7016 51.4604 53.7451 51.606L51.1316 54.2324L55.675 58.8135V62.6089C55.4659 62.6847 55.2817 62.8168 55.1423 62.9908C55.003 63.1647 54.9139 63.3738 54.8848 63.5952C54.8557 63.8166 54.8877 64.0418 54.9773 64.2462C55.0669 64.4505 55.2107 64.6262 55.393 64.754C55.5752 64.8818 55.7889 64.9567 56.0107 64.9707C56.2325 64.9847 56.4538 64.9372 56.6506 64.8333C56.8473 64.7294 57.0118 64.5732 57.1262 64.3817C57.2405 64.1902 57.3003 63.9708 57.2989 63.7475C57.3024 63.4991 57.2286 63.2558 57.0877 63.0517C56.9469 62.8475 56.7461 62.6927 56.5134 62.6089Z" fill="white"/>
</mask>
<g mask="url(#mask20_83_83)">
<path d="M51.1392 49.9171V64.9317H57.3255V49.9171H51.1392Z" fill="#26838D"/>
</g>
<path d="M40.1754 3.75746C39.9532 3.75612 39.7349 3.81619 39.5443 3.9311C39.3538 4.04601 39.1983 4.21135 39.095 4.40904C38.9916 4.60674 38.9443 4.82918 38.9582 5.05207C38.9721 5.27495 39.0467 5.48971 39.1739 5.67286C39.301 5.85602 39.4758 6.00052 39.6792 6.0906C39.8825 6.18067 40.1066 6.21284 40.3269 6.18359C40.5472 6.15434 40.7553 6.0648 40.9284 5.92475C41.1015 5.7847 41.233 5.59953 41.3084 5.38948H44.4997L45.9273 6.81655C45.8513 6.98036 45.8138 7.15959 45.8178 7.34031C45.8178 7.58128 45.8889 7.81683 46.0221 8.01718C46.1553 8.21753 46.3447 8.37369 46.5662 8.4659C46.7877 8.55811 47.0315 8.58224 47.2666 8.53523C47.5018 8.48822 47.7178 8.37218 47.8874 8.2018C48.0569 8.03141 48.1724 7.81433 48.2191 7.578C48.2659 7.34167 48.2419 7.0967 48.1502 6.87408C48.0584 6.65146 47.903 6.46119 47.7036 6.32732C47.5043 6.19344 47.2699 6.12199 47.0301 6.12199C46.8494 6.12181 46.6707 6.15929 46.5052 6.23206L44.8623 4.53931H41.316C41.2269 4.30955 41.0713 4.11189 40.8694 3.97185C40.6674 3.8318 40.4283 3.75581 40.183 3.75366L40.1754 3.75746Z" fill="#26838D"/>
<mask id="mask21_83_83" style="mask-type:luminance" maskUnits="userSpaceOnUse" x="38" y="3" width="11" height="6">
<path d="M40.1754 3.75746C39.9532 3.75612 39.7349 3.81619 39.5443 3.9311C39.3538 4.04601 39.1983 4.21135 39.095 4.40904C38.9916 4.60674 38.9443 4.82918 38.9582 5.05207C38.9721 5.27495 39.0467 5.48971 39.1739 5.67286C39.301 5.85602 39.4758 6.00052 39.6792 6.0906C39.8825 6.18067 40.1066 6.21284 40.3269 6.18359C40.5472 6.15434 40.7553 6.0648 40.9284 5.92475C41.1015 5.7847 41.233 5.59953 41.3084 5.38948H44.4997L45.9273 6.81655C45.8513 6.98036 45.8138 7.15959 45.8178 7.34031C45.8178 7.58128 45.8889 7.81683 46.0221 8.01718C46.1553 8.21753 46.3447 8.37369 46.5662 8.4659C46.7877 8.55811 47.0315 8.58224 47.2666 8.53523C47.5018 8.48822 47.7178 8.37218 47.8874 8.2018C48.0569 8.03141 48.1724 7.81433 48.2191 7.578C48.2659 7.34167 48.2419 7.0967 48.1502 6.87408C48.0584 6.65146 47.903 6.46119 47.7036 6.32732C47.5043 6.19344 47.2699 6.12199 47.0301 6.12199C46.8494 6.12181 46.6707 6.15929 46.5052 6.23206L44.8623 4.53931H41.316C41.2269 4.30955 41.0713 4.11189 40.8694 3.97185C40.6674 3.8318 40.4283 3.75581 40.183 3.75366L40.1754 3.75746Z" fill="white"/>
</mask>
<g mask="url(#mask21_83_83)">
<path d="M38.9442 3.75745V8.55863H48.2236V3.75745H38.9442Z" fill="#26838D"/>
</g>
<path d="M60.6413 58.286V57.1816L57.8579 54.3844C57.9389 54.2146 57.9839 54.0298 57.9901 53.8416C57.9908 53.5996 57.92 53.3628 57.7867 53.1612C57.6533 52.9597 57.4634 52.8024 57.2411 52.7095C57.0187 52.6165 56.7739 52.592 56.5376 52.639C56.3014 52.6861 56.0843 52.8025 55.914 52.9737C55.7437 53.1448 55.6278 53.3629 55.581 53.6003C55.5342 53.8378 55.5586 54.0838 55.6512 54.3073C55.7437 54.5307 55.9001 54.7216 56.1007 54.8556C56.3012 54.9896 56.5369 55.0607 56.7777 55.06C56.9432 55.0578 57.107 55.0257 57.2611 54.9651L59.8218 57.5383V58.2974C59.6127 58.3733 59.4285 58.5054 59.2891 58.6793C59.1498 58.8533 59.0607 59.0624 59.0316 59.2838C59.0025 59.5052 59.0345 59.7304 59.1241 59.9347C59.2137 60.1391 59.3575 60.3148 59.5398 60.4425C59.722 60.5703 59.9357 60.6453 60.1575 60.6593C60.3793 60.6733 60.6006 60.6257 60.7974 60.5218C60.9941 60.418 61.1586 60.2617 61.2729 60.0703C61.3873 59.8788 61.4471 59.6594 61.4457 59.436C61.442 59.1854 61.3633 58.9416 61.2198 58.7365C61.0764 58.5314 60.8748 58.3744 60.6413 58.286Z" fill="#26838D"/>
<mask id="mask22_83_83" style="mask-type:luminance" maskUnits="userSpaceOnUse" x="55" y="52" width="7" height="9">
<path d="M60.6413 58.286V57.1816L57.8579 54.3844C57.9389 54.2146 57.9839 54.0298 57.9901 53.8416C57.9908 53.5996 57.92 53.3628 57.7867 53.1612C57.6533 52.9597 57.4634 52.8024 57.2411 52.7095C57.0187 52.6165 56.7739 52.592 56.5376 52.639C56.3014 52.6861 56.0843 52.8025 55.914 52.9737C55.7437 53.1448 55.6278 53.3629 55.581 53.6003C55.5342 53.8378 55.5586 54.0838 55.6512 54.3073C55.7437 54.5307 55.9001 54.7216 56.1007 54.8556C56.3012 54.9896 56.5369 55.0607 56.7777 55.06C56.9432 55.0578 57.107 55.0257 57.2611 54.9651L59.8218 57.5383V58.2974C59.6127 58.3733 59.4285 58.5054 59.2891 58.6793C59.1498 58.8533 59.0607 59.0624 59.0316 59.2838C59.0025 59.5052 59.0345 59.7304 59.1241 59.9347C59.2137 60.1391 59.3575 60.3148 59.5398 60.4425C59.722 60.5703 59.9357 60.6453 60.1575 60.6593C60.3793 60.6733 60.6006 60.6257 60.7974 60.5218C60.9941 60.418 61.1586 60.2617 61.2729 60.0703C61.3873 59.8788 61.4471 59.6594 61.4457 59.436C61.442 59.1854 61.3633 58.9416 61.2198 58.7365C61.0764 58.5314 60.8748 58.3744 60.6413 58.286Z" fill="white"/>
</mask>
<g mask="url(#mask22_83_83)">
<path d="M55.5239 52.6195V60.6696H61.4269V52.6195H55.5239Z" fill="#26838D"/>
</g>
<path d="M53.3409 60.4456V59.8269L51.7169 58.1949C51.7749 58.0512 51.8069 57.8982 51.8113 57.7432C51.8121 57.5014 51.7414 57.2647 51.6082 57.0632C51.4751 56.8618 51.2854 56.7045 51.0632 56.6115C50.8411 56.5184 50.5965 56.4936 50.3603 56.5404C50.1242 56.5871 49.9071 56.7032 49.7367 56.8739C49.5662 57.0447 49.45 57.2625 49.4028 57.4996C49.3556 57.7368 49.3794 57.9827 49.4714 58.2063C49.5633 58.4298 49.7192 58.6209 49.9192 58.7553C50.1193 58.8898 50.3546 58.9616 50.5952 58.9616C50.7896 58.9574 50.9811 58.9135 51.158 58.8325L52.5025 60.1837V60.4646C52.2935 60.5404 52.1092 60.6725 51.9698 60.8465C51.8305 61.0204 51.7414 61.2295 51.7123 61.4509C51.6832 61.6723 51.7152 61.8975 51.8048 62.1019C51.8944 62.3062 52.0382 62.4819 52.2205 62.6097C52.4027 62.7374 52.6164 62.8124 52.8382 62.8264C53.06 62.8404 53.2814 62.7929 53.4781 62.689C53.6748 62.5851 53.8393 62.4289 53.9537 62.2374C54.068 62.0459 54.1278 61.8265 54.1265 61.6032C54.1365 61.3506 54.0657 61.1014 53.9242 60.8923C53.7828 60.6832 53.5783 60.5253 53.3409 60.4418V60.4456Z" fill="#26838D"/>
<mask id="mask23_83_83" style="mask-type:luminance" maskUnits="userSpaceOnUse" x="49" y="56" width="6" height="7">
<path d="M53.3409 60.4456V59.8269L51.7169 58.1949C51.7749 58.0512 51.8069 57.8982 51.8113 57.7432C51.8121 57.5014 51.7414 57.2647 51.6082 57.0632C51.4751 56.8618 51.2854 56.7045 51.0632 56.6115C50.8411 56.5184 50.5965 56.4936 50.3603 56.5404C50.1242 56.5871 49.9071 56.7032 49.7367 56.8739C49.5662 57.0447 49.45 57.2625 49.4028 57.4996C49.3556 57.7368 49.3794 57.9827 49.4714 58.2063C49.5633 58.4298 49.7192 58.6209 49.9192 58.7553C50.1193 58.8898 50.3546 58.9616 50.5952 58.9616C50.7896 58.9574 50.9811 58.9135 51.158 58.8325L52.5025 60.1837V60.4646C52.2935 60.5404 52.1092 60.6725 51.9698 60.8465C51.8305 61.0204 51.7414 61.2295 51.7123 61.4509C51.6832 61.6723 51.7152 61.8975 51.8048 62.1019C51.8944 62.3062 52.0382 62.4819 52.2205 62.6097C52.4027 62.7374 52.6164 62.8124 52.8382 62.8264C53.06 62.8404 53.2814 62.7929 53.4781 62.689C53.6748 62.5851 53.8393 62.4289 53.9537 62.2374C54.068 62.0459 54.1278 61.8265 54.1265 61.6032C54.1365 61.3506 54.0657 61.1014 53.9242 60.8923C53.7828 60.6832 53.5783 60.5253 53.3409 60.4418V60.4456Z" fill="white"/>
</mask>
<g mask="url(#mask23_83_83)">
<path d="M49.3638 56.5057V62.8288H54.1451V56.5057H49.3638Z" fill="#26838D"/>
</g>
<path d="M42.1543 62.609V58.8136L46.7128 54.2136L44.1069 51.6023C44.1594 51.4591 44.1838 51.307 44.1786 51.1545C44.1809 50.9127 44.1115 50.6758 43.9793 50.4738C43.8472 50.2718 43.6582 50.1138 43.4364 50.0201C43.2146 49.9264 42.9701 49.9011 42.734 49.9474C42.4979 49.9937 42.2809 50.1096 42.1105 50.2803C41.9401 50.451 41.8241 50.6687 41.7773 50.9059C41.7304 51.143 41.7548 51.3888 41.8474 51.612C41.94 51.8351 42.0965 52.0255 42.2971 52.159C42.4977 52.2925 42.7333 52.3629 42.9739 52.3614C43.1762 52.3607 43.3749 52.3085 43.5517 52.2096L45.5307 54.1984L41.3159 58.4341V62.609C41.1069 62.6848 40.9226 62.817 40.7833 62.9909C40.6439 63.1649 40.5548 63.374 40.5257 63.5954C40.4966 63.8168 40.5286 64.042 40.6182 64.2463C40.7079 64.4507 40.8517 64.6263 41.0339 64.7541C41.2162 64.8819 41.4299 64.9569 41.6516 64.9709C41.8734 64.9849 42.0948 64.9373 42.2915 64.8334C42.4882 64.7295 42.6527 64.5733 42.7671 64.3818C42.8814 64.1903 42.9412 63.9709 42.9399 63.7476C42.9457 63.4987 42.8727 63.2544 42.7316 63.0498C42.5904 62.8452 42.3883 62.6909 42.1543 62.609Z" fill="#26838D"/>
<mask id="mask24_83_83" style="mask-type:luminance" maskUnits="userSpaceOnUse" x="40" y="49" width="7" height="16">
<path d="M42.1543 62.609V58.8136L46.7128 54.2136L44.1069 51.6023C44.1594 51.4591 44.1838 51.307 44.1786 51.1545C44.1809 50.9127 44.1115 50.6758 43.9793 50.4738C43.8472 50.2718 43.6582 50.1138 43.4364 50.0201C43.2146 49.9264 42.9701 49.9011 42.734 49.9474C42.4979 49.9937 42.2809 50.1096 42.1105 50.2803C41.9401 50.451 41.8241 50.6687 41.7773 50.9059C41.7304 51.143 41.7548 51.3888 41.8474 51.612C41.94 51.8351 42.0965 52.0255 42.2971 52.159C42.4977 52.2925 42.7333 52.3629 42.9739 52.3614C43.1762 52.3607 43.3749 52.3085 43.5517 52.2096L45.5307 54.1984L41.3159 58.4341V62.609C41.1069 62.6848 40.9226 62.817 40.7833 62.9909C40.6439 63.1649 40.5548 63.374 40.5257 63.5954C40.4966 63.8168 40.5286 64.042 40.6182 64.2463C40.7079 64.4507 40.8517 64.6263 41.0339 64.7541C41.2162 64.8819 41.4299 64.9569 41.6516 64.9709C41.8734 64.9849 42.0948 64.9373 42.2915 64.8334C42.4882 64.7295 42.6527 64.5733 42.7671 64.3818C42.8814 64.1903 42.9412 63.9709 42.9399 63.7476C42.9457 63.4987 42.8727 63.2544 42.7316 63.0498C42.5904 62.8452 42.3883 62.6909 42.1543 62.609Z" fill="white"/>
</mask>
<g mask="url(#mask24_83_83)">
<path d="M40.5113 49.9169V64.9315H46.7126V49.9169H40.5113Z" fill="#26838D"/>
</g>
<path d="M47.2529 56.5059C47.0935 56.5054 46.9356 56.5365 46.7883 56.5976C46.641 56.6586 46.5072 56.7484 46.3945 56.8616C46.2818 56.9748 46.1926 57.1093 46.1318 57.2574C46.0711 57.4054 46.04 57.5641 46.0405 57.7242C46.041 57.8796 46.0731 58.0333 46.135 58.1758L44.5072 59.8079V60.4265C44.2378 60.5239 44.0112 60.7137 43.8674 60.9625C43.7236 61.2112 43.6717 61.503 43.7208 61.7865C43.77 62.0699 43.9172 62.3268 44.1363 62.5119C44.3554 62.6971 44.6326 62.7986 44.9189 62.7986C45.2052 62.7986 45.4823 62.6971 45.7014 62.5119C45.9206 62.3268 46.0677 62.0699 46.1169 61.7865C46.1661 61.503 46.1142 61.2112 45.9703 60.9625C45.8265 60.7137 45.5999 60.5239 45.3305 60.4265V60.1457L46.675 58.8135C46.8469 58.9049 47.0396 58.9494 47.234 58.9425C47.3935 58.943 47.5515 58.9119 47.6991 58.8509C47.8466 58.7899 47.9807 58.7002 48.0937 58.587C48.2066 58.4738 48.2963 58.3394 48.3574 58.1913C48.4186 58.0432 48.4501 57.8845 48.4501 57.7242C48.4521 57.5658 48.4225 57.4086 48.363 57.2619C48.3035 57.1152 48.2154 56.982 48.1037 56.8702C47.9921 56.7584 47.8593 56.6702 47.7131 56.6109C47.567 56.5515 47.4105 56.5223 47.2529 56.5248V56.5059Z" fill="#26838D"/>
<mask id="mask25_83_83" style="mask-type:luminance" maskUnits="userSpaceOnUse" x="43" y="56" width="6" height="7">
<path d="M47.2529 56.5059C47.0935 56.5054 46.9356 56.5365 46.7883 56.5976C46.641 56.6586 46.5072 56.7484 46.3945 56.8616C46.2818 56.9748 46.1926 57.1093 46.1318 57.2574C46.0711 57.4054 46.04 57.5641 46.0405 57.7242C46.041 57.8796 46.0731 58.0333 46.135 58.1758L44.5072 59.8079V60.4265C44.2378 60.5239 44.0112 60.7137 43.8674 60.9625C43.7236 61.2112 43.6717 61.503 43.7208 61.7865C43.77 62.0699 43.9172 62.3268 44.1363 62.5119C44.3554 62.6971 44.6326 62.7986 44.9189 62.7986C45.2052 62.7986 45.4823 62.6971 45.7014 62.5119C45.9206 62.3268 46.0677 62.0699 46.1169 61.7865C46.1661 61.503 46.1142 61.2112 45.9703 60.9625C45.8265 60.7137 45.5999 60.5239 45.3305 60.4265V60.1457L46.675 58.8135C46.8469 58.9049 47.0396 58.9494 47.234 58.9425C47.3935 58.943 47.5515 58.9119 47.6991 58.8509C47.8466 58.7899 47.9807 58.7002 48.0937 58.587C48.2066 58.4738 48.2963 58.3394 48.3574 58.1913C48.4186 58.0432 48.4501 57.8845 48.4501 57.7242C48.4521 57.5658 48.4225 57.4086 48.363 57.2619C48.3035 57.1152 48.2154 56.982 48.1037 56.8702C47.9921 56.7584 47.8593 56.6702 47.7131 56.6109C47.567 56.5515 47.4105 56.5223 47.2529 56.5248V56.5059Z" fill="white"/>
</mask>
<g mask="url(#mask25_83_83)">
<path d="M43.6874 56.5059V62.829H48.4687V56.5059H43.6874Z" fill="#26838D"/>
</g>
<path d="M73.3008 33.1413C73.1209 33.1405 72.943 33.1794 72.7796 33.2552L71.5106 31.9799C71.5999 31.8052 71.644 31.6107 71.639 31.4144C71.6413 31.1721 71.5718 30.9345 71.4394 30.732C71.3069 30.5294 71.1176 30.371 70.8954 30.2769C70.6731 30.1827 70.4281 30.1571 70.1913 30.2033C69.9546 30.2495 69.7368 30.3653 69.5658 30.5362C69.3947 30.707 69.2781 30.9251 69.2307 31.1627C69.1832 31.4003 69.2072 31.6468 69.2995 31.8707C69.3917 32.0946 69.5482 32.2859 69.7489 32.4202C69.9496 32.5545 70.1856 32.6259 70.4267 32.6251C70.5861 32.623 70.7437 32.5908 70.8913 32.5303L72.2018 33.8435C72.1245 34.0083 72.0857 34.1888 72.0885 34.371C72.1058 34.6829 72.2413 34.9762 72.4671 35.1909C72.6929 35.4055 72.9919 35.5251 73.3027 35.5251C73.6135 35.5251 73.9125 35.4055 74.1383 35.1909C74.3641 34.9762 74.4996 34.6829 74.5169 34.371C74.5179 34.0448 74.3907 33.7314 74.163 33.499C73.9352 33.2666 73.6254 33.1339 73.3008 33.1299V33.1413Z" fill="#26838D"/>
<mask id="mask26_83_83" style="mask-type:luminance" maskUnits="userSpaceOnUse" x="69" y="30" width="6" height="6">
<path d="M73.3008 33.1413C73.1209 33.1405 72.943 33.1794 72.7796 33.2552L71.5106 31.9799C71.5999 31.8052 71.644 31.6107 71.639 31.4144C71.6413 31.1721 71.5718 30.9345 71.4394 30.732C71.3069 30.5294 71.1176 30.371 70.8954 30.2769C70.6731 30.1827 70.4281 30.1571 70.1913 30.2033C69.9546 30.2495 69.7368 30.3653 69.5658 30.5362C69.3947 30.707 69.2781 30.9251 69.2307 31.1627C69.1832 31.4003 69.2072 31.6468 69.2995 31.8707C69.3917 32.0946 69.5482 32.2859 69.7489 32.4202C69.9496 32.5545 70.1856 32.6259 70.4267 32.6251C70.5861 32.623 70.7437 32.5908 70.8913 32.5303L72.2018 33.8435C72.1245 34.0083 72.0857 34.1888 72.0885 34.371C72.1058 34.6829 72.2413 34.9762 72.4671 35.1909C72.6929 35.4055 72.9919 35.5251 73.3027 35.5251C73.6135 35.5251 73.9125 35.4055 74.1383 35.1909C74.3641 34.9762 74.4996 34.6829 74.5169 34.371C74.5179 34.0448 74.3907 33.7314 74.163 33.499C73.9352 33.2666 73.6254 33.1339 73.3008 33.1299V33.1413Z" fill="white"/>
</mask>
<g mask="url(#mask26_83_83)">
<path d="M69.2107 30.1771V35.6007H74.517V30.1771H69.2107Z" fill="#26838D"/>
</g>
<path d="M72.8098 41.5294V38.8081L70.2681 36.2576C70.3434 36.0987 70.3821 35.9249 70.3814 35.749C70.3814 35.5071 70.31 35.2707 70.1762 35.0696C70.0424 34.8685 69.8523 34.7119 69.6298 34.6195C69.4074 34.5271 69.1627 34.5032 68.9267 34.5506C68.6907 34.5981 68.474 34.7149 68.3041 34.8861C68.1341 35.0574 68.0186 35.2756 67.9721 35.5129C67.9256 35.7502 67.9503 35.996 68.0429 36.2193C68.1355 36.4425 68.292 36.6331 68.4924 36.767C68.6929 36.9008 68.9284 36.9718 69.1691 36.9711C69.3432 36.9739 69.5154 36.9349 69.6714 36.8572L71.9676 39.1648V41.5294C71.7586 41.6052 71.5744 41.7373 71.435 41.9113C71.2956 42.0852 71.2065 42.2943 71.1774 42.5157C71.1483 42.7371 71.1803 42.9623 71.27 43.1667C71.3596 43.371 71.5034 43.5467 71.6856 43.6745C71.8679 43.8022 72.0816 43.8772 72.3034 43.8912C72.5252 43.9052 72.7465 43.8577 72.9432 43.7538C73.14 43.6499 73.3045 43.4937 73.4188 43.3022C73.5332 43.1107 73.5929 42.8913 73.5916 42.668C73.5971 42.4197 73.5245 42.1759 73.3841 41.9715C73.2437 41.7671 73.0428 41.6124 72.8098 41.5294Z" fill="#26838D"/>
<mask id="mask27_83_83" style="mask-type:luminance" maskUnits="userSpaceOnUse" x="67" y="34" width="7" height="10">
<path d="M72.8098 41.5294V38.8081L70.2681 36.2576C70.3434 36.0987 70.3821 35.9249 70.3814 35.749C70.3814 35.5071 70.31 35.2707 70.1762 35.0696C70.0424 34.8685 69.8523 34.7119 69.6298 34.6195C69.4074 34.5271 69.1627 34.5032 68.9267 34.5506C68.6907 34.5981 68.474 34.7149 68.3041 34.8861C68.1341 35.0574 68.0186 35.2756 67.9721 35.5129C67.9256 35.7502 67.9503 35.996 68.0429 36.2193C68.1355 36.4425 68.292 36.6331 68.4924 36.767C68.6929 36.9008 68.9284 36.9718 69.1691 36.9711C69.3432 36.9739 69.5154 36.9349 69.6714 36.8572L71.9676 39.1648V41.5294C71.7586 41.6052 71.5744 41.7373 71.435 41.9113C71.2956 42.0852 71.2065 42.2943 71.1774 42.5157C71.1483 42.7371 71.1803 42.9623 71.27 43.1667C71.3596 43.371 71.5034 43.5467 71.6856 43.6745C71.8679 43.8022 72.0816 43.8772 72.3034 43.8912C72.5252 43.9052 72.7465 43.8577 72.9432 43.7538C73.14 43.6499 73.3045 43.4937 73.4188 43.3022C73.5332 43.1107 73.5929 42.8913 73.5916 42.668C73.5971 42.4197 73.5245 42.1759 73.3841 41.9715C73.2437 41.7671 73.0428 41.6124 72.8098 41.5294Z" fill="white"/>
</mask>
<g mask="url(#mask27_83_83)">
<path d="M67.9414 34.5229V43.9051H73.6065V34.5229H67.9414Z" fill="#26838D"/>
</g>
<path d="M68.0928 45.5828V42.3377L63.5607 37.7832V33.3123L62.7223 34.2118V38.1704L67.2543 42.7248V45.6131C67.0453 45.689 66.8611 45.8211 66.7217 45.9951C66.5823 46.169 66.4932 46.3781 66.4641 46.5995C66.435 46.8209 66.467 47.0461 66.5567 47.2504C66.6463 47.4548 66.7901 47.6305 66.9723 47.7583C67.1546 47.886 67.3683 47.961 67.5901 47.975C67.8119 47.989 68.0332 47.9414 68.2299 47.8376C68.4267 47.7337 68.5912 47.5775 68.7055 47.386C68.8199 47.1945 68.8796 46.9751 68.8783 46.7518C68.8888 46.4981 68.8182 46.2478 68.6769 46.0374C68.5355 45.8271 68.3308 45.6677 68.0928 45.5828Z" fill="#26838D"/>
<mask id="mask28_83_83" style="mask-type:luminance" maskUnits="userSpaceOnUse" x="62" y="33" width="7" height="15">
<path d="M68.0928 45.5828V42.3377L63.5607 37.7832V33.3123L62.7223 34.2118V38.1704L67.2543 42.7248V45.6131C67.0453 45.689 66.8611 45.8211 66.7217 45.9951C66.5823 46.169 66.4932 46.3781 66.4641 46.5995C66.435 46.8209 66.467 47.0461 66.5567 47.2504C66.6463 47.4548 66.7901 47.6305 66.9723 47.7583C67.1546 47.886 67.3683 47.961 67.5901 47.975C67.8119 47.989 68.0332 47.9414 68.2299 47.8376C68.4267 47.7337 68.5912 47.5775 68.7055 47.386C68.8199 47.1945 68.8796 46.9751 68.8783 46.7518C68.8888 46.4981 68.8182 46.2478 68.6769 46.0374C68.5355 45.8271 68.3308 45.6677 68.0928 45.5828Z" fill="white"/>
</mask>
<g mask="url(#mask28_83_83)">
<path d="M62.7336 33.3123V47.9663H68.8934V33.3123H62.7336Z" fill="#26838D"/>
</g>
<path d="M66.8616 49.0745C66.6495 49.0705 66.4409 49.1286 66.2611 49.2415L65.4038 48.3799V43.8254C65.6721 43.7281 65.8977 43.5387 66.0408 43.2907C66.184 43.0427 66.2355 42.7519 66.1863 42.4695C66.1371 42.1871 65.9904 41.9312 65.772 41.7467C65.5536 41.5623 65.2774 41.4612 64.9921 41.4612C64.7068 41.4612 64.4307 41.5623 64.2122 41.7467C63.9938 41.9312 63.8471 42.1871 63.7979 42.4695C63.7488 42.7519 63.8003 43.0427 63.9434 43.2907C64.0865 43.5387 64.3121 43.7281 64.5804 43.8254V48.7253L65.7399 49.8867C65.6953 50.0203 65.6698 50.1596 65.6644 50.3004C65.6817 50.6122 65.8171 50.9056 66.043 51.1202C66.2688 51.3348 66.5678 51.4544 66.8786 51.4544C67.1894 51.4544 67.4884 51.3348 67.7142 51.1202C67.94 50.9056 68.0755 50.6122 68.0928 50.3004C68.0869 49.9751 67.9549 49.665 67.725 49.4361C67.495 49.2071 67.1853 49.0774 66.8616 49.0745Z" fill="#26838D"/>
<mask id="mask29_83_83" style="mask-type:luminance" maskUnits="userSpaceOnUse" x="63" y="41" width="6" height="11">
<path d="M66.8616 49.0745C66.6495 49.0705 66.4409 49.1286 66.2611 49.2415L65.4038 48.3799V43.8254C65.6721 43.7281 65.8977 43.5387 66.0408 43.2907C66.184 43.0427 66.2355 42.7519 66.1863 42.4695C66.1371 42.1871 65.9904 41.9312 65.772 41.7467C65.5536 41.5623 65.2774 41.4612 64.9921 41.4612C64.7068 41.4612 64.4307 41.5623 64.2122 41.7467C63.9938 41.9312 63.8471 42.1871 63.7979 42.4695C63.7488 42.7519 63.8003 43.0427 63.9434 43.2907C64.0865 43.5387 64.3121 43.7281 64.5804 43.8254V48.7253L65.7399 49.8867C65.6953 50.0203 65.6698 50.1596 65.6644 50.3004C65.6817 50.6122 65.8171 50.9056 66.043 51.1202C66.2688 51.3348 66.5678 51.4544 66.8786 51.4544C67.1894 51.4544 67.4884 51.3348 67.7142 51.1202C67.94 50.9056 68.0755 50.6122 68.0928 50.3004C68.0869 49.9751 67.9549 49.665 67.725 49.4361C67.495 49.2071 67.1853 49.0774 66.8616 49.0745Z" fill="white"/>
</mask>
<g mask="url(#mask29_83_83)">
<path d="M63.7458 41.4533V51.5301H68.0777V41.4533H63.7458Z" fill="#26838D"/>
</g>
<path d="M64.2065 53.8416C64.0413 53.8425 63.8775 53.8734 63.7231 53.9327L63.032 53.2381V42.0569L62.4541 41.4724L61.8574 42.0759L62.1935 42.4137V53.6139L63.1113 54.5324C63.0299 54.7033 62.9849 54.8895 62.9791 55.0789C62.9964 55.3908 63.1319 55.6841 63.3577 55.8988C63.5835 56.1134 63.8825 56.233 64.1933 56.233C64.5041 56.233 64.8031 56.1134 65.0289 55.8988C65.2547 55.6841 65.3902 55.3908 65.4075 55.0789C65.4085 54.7531 65.2812 54.4401 65.0534 54.2083C64.8255 53.9764 64.5156 53.8446 64.1914 53.8416H64.2065Z" fill="#26838D"/>
<mask id="mask30_83_83" style="mask-type:luminance" maskUnits="userSpaceOnUse" x="61" y="41" width="5" height="16">
<path d="M64.2065 53.8416C64.0413 53.8425 63.8775 53.8734 63.7231 53.9327L63.032 53.2381V42.0569L62.4541 41.4724L61.8574 42.0759L62.1935 42.4137V53.6139L63.1113 54.5324C63.0299 54.7033 62.9849 54.8895 62.9791 55.0789C62.9964 55.3908 63.1319 55.6841 63.3577 55.8988C63.5835 56.1134 63.8825 56.233 64.1933 56.233C64.5041 56.233 64.8031 56.1134 65.0289 55.8988C65.2547 55.6841 65.3902 55.3908 65.4075 55.0789C65.4085 54.7531 65.2812 54.4401 65.0534 54.2083C64.8255 53.9764 64.5156 53.8446 64.1914 53.8416H64.2065Z" fill="white"/>
</mask>
<g mask="url(#mask30_83_83)">
<path d="M61.8574 41.4724V56.2972H65.4075V41.4724H61.8574Z" fill="#26838D"/>
</g>
<path d="M25.2234 21.3377C25.3828 21.3382 25.5406 21.307 25.6879 21.246C25.8353 21.1849 25.9691 21.0952 26.0818 20.982C26.1944 20.8688 26.2837 20.7342 26.3445 20.5862C26.4052 20.4382 26.4362 20.2795 26.4357 20.1194C26.4332 19.8703 26.3552 19.628 26.2122 19.4245C26.0691 19.2211 25.8678 19.0663 25.6351 18.9808V18.5822L29.2192 14.9766C29.3832 15.0543 29.5628 15.0932 29.7441 15.0905C29.9848 15.0905 30.2201 15.0187 30.4202 14.8842C30.6202 14.7498 30.7761 14.5587 30.868 14.3352C30.9599 14.1116 30.9838 13.8657 30.9366 13.6285C30.8894 13.3914 30.7732 13.1736 30.6027 13.0028C30.4322 12.8321 30.2152 12.716 29.9791 12.6693C29.7429 12.6225 29.4983 12.6473 29.2761 12.7404C29.054 12.8334 28.8643 12.9907 28.7311 13.1922C28.598 13.3936 28.5273 13.6303 28.528 13.8722C28.5273 14.053 28.5659 14.2317 28.6413 14.3959L24.808 18.2255V18.9618C24.5752 19.0474 24.3739 19.2022 24.2309 19.4056C24.0879 19.609 24.0099 19.8513 24.0073 20.1004C24.0102 20.425 24.1388 20.7358 24.3658 20.9668C24.5928 21.1978 24.9004 21.3308 25.2234 21.3377Z" fill="#26838D"/>
<mask id="mask31_83_83" style="mask-type:luminance" maskUnits="userSpaceOnUse" x="24" y="12" width="7" height="10">
<path d="M25.2234 21.3377C25.3828 21.3382 25.5406 21.307 25.6879 21.246C25.8353 21.1849 25.9691 21.0952 26.0818 20.982C26.1944 20.8688 26.2837 20.7342 26.3445 20.5862C26.4052 20.4382 26.4362 20.2795 26.4357 20.1194C26.4332 19.8703 26.3552 19.628 26.2122 19.4245C26.0691 19.2211 25.8678 19.0663 25.6351 18.9808V18.5822L29.2192 14.9766C29.3832 15.0543 29.5628 15.0932 29.7441 15.0905C29.9848 15.0905 30.2201 15.0187 30.4202 14.8842C30.6202 14.7498 30.7761 14.5587 30.868 14.3352C30.9599 14.1116 30.9838 13.8657 30.9366 13.6285C30.8894 13.3914 30.7732 13.1736 30.6027 13.0028C30.4322 12.8321 30.2152 12.716 29.9791 12.6693C29.7429 12.6225 29.4983 12.6473 29.2761 12.7404C29.054 12.8334 28.8643 12.9907 28.7311 13.1922C28.598 13.3936 28.5273 13.6303 28.528 13.8722C28.5273 14.053 28.5659 14.2317 28.6413 14.3959L24.808 18.2255V18.9618C24.5752 19.0474 24.3739 19.2022 24.2309 19.4056C24.0879 19.609 24.0099 19.8513 24.0073 20.1004C24.0102 20.425 24.1388 20.7358 24.3658 20.9668C24.5928 21.1978 24.9004 21.3308 25.2234 21.3377Z" fill="white"/>
</mask>
<g mask="url(#mask31_83_83)">
<path d="M24.0265 12.6307V21.3374H30.9718V12.6307H24.0265Z" fill="#26838D"/>
</g>
<path d="M26.1714 14.6958C26.3309 14.6963 26.489 14.6651 26.6365 14.6041C26.784 14.5431 26.9181 14.4535 27.0311 14.3403C27.1441 14.2271 27.2337 14.0926 27.2949 13.9446C27.356 13.7965 27.3875 13.6378 27.3875 13.4775C27.3882 13.2954 27.3496 13.1154 27.2742 12.9499L31.5117 8.69146C31.6697 8.76708 31.8427 8.80599 32.0177 8.80532C32.2579 8.80532 32.4928 8.73383 32.6926 8.59987C32.8924 8.46592 33.0483 8.27549 33.1405 8.05262C33.2328 7.82975 33.2573 7.58442 33.211 7.34756C33.1647 7.1107 33.0496 6.89293 32.8803 6.72171C32.711 6.5505 32.495 6.43351 32.2596 6.3855C32.0242 6.33749 31.7799 6.36061 31.5576 6.45195C31.3352 6.54329 31.1448 6.69874 31.0103 6.89872C30.8757 7.0987 30.8031 7.33423 30.8016 7.57561C30.8009 7.75764 30.8396 7.93764 30.9149 8.10317L26.6775 12.3692C26.5134 12.2915 26.3339 12.2526 26.1525 12.2553C25.9874 12.2475 25.8223 12.2735 25.6675 12.3319C25.5127 12.3903 25.3714 12.4798 25.2522 12.595C25.133 12.7101 25.0384 12.8485 24.9742 13.0016C24.91 13.1547 24.8775 13.3194 24.8788 13.4856C24.8801 13.6518 24.9151 13.8159 24.9817 13.968C25.0482 14.1201 25.1449 14.257 25.2659 14.3703C25.3869 14.4835 25.5296 14.5708 25.6853 14.6268C25.841 14.6828 26.0064 14.7062 26.1714 14.6958Z" fill="#26838D"/>
<mask id="mask32_83_83" style="mask-type:luminance" maskUnits="userSpaceOnUse" x="24" y="6" width="10" height="9">
<path d="M26.1714 14.6958C26.3309 14.6963 26.489 14.6651 26.6365 14.6041C26.784 14.5431 26.9181 14.4535 27.0311 14.3403C27.1441 14.2271 27.2337 14.0926 27.2949 13.9446C27.356 13.7965 27.3875 13.6378 27.3875 13.4775C27.3882 13.2954 27.3496 13.1154 27.2742 12.9499L31.5117 8.69146C31.6697 8.76708 31.8427 8.80599 32.0177 8.80532C32.2579 8.80532 32.4928 8.73383 32.6926 8.59987C32.8924 8.46592 33.0483 8.27549 33.1405 8.05262C33.2328 7.82975 33.2573 7.58442 33.211 7.34756C33.1647 7.1107 33.0496 6.89293 32.8803 6.72171C32.711 6.5505 32.495 6.43351 32.2596 6.3855C32.0242 6.33749 31.7799 6.36061 31.5576 6.45195C31.3352 6.54329 31.1448 6.69874 31.0103 6.89872C30.8757 7.0987 30.8031 7.33423 30.8016 7.57561C30.8009 7.75764 30.8396 7.93764 30.9149 8.10317L26.6775 12.3692C26.5134 12.2915 26.3339 12.2526 26.1525 12.2553C25.9874 12.2475 25.8223 12.2735 25.6675 12.3319C25.5127 12.3903 25.3714 12.4798 25.2522 12.595C25.133 12.7101 25.0384 12.8485 24.9742 13.0016C24.91 13.1547 24.8775 13.3194 24.8788 13.4856C24.8801 13.6518 24.9151 13.8159 24.9817 13.968C25.0482 14.1201 25.1449 14.257 25.2659 14.3703C25.3869 14.4835 25.5296 14.5708 25.6853 14.6268C25.841 14.6828 26.0064 14.7062 26.1714 14.6958Z" fill="white"/>
</mask>
<g mask="url(#mask32_83_83)">
<path d="M24.9401 6.36487V14.7147H33.2489V6.36487H24.9401Z" fill="#26838D"/>
</g>
<path d="M25.7446 34.3635C25.7474 34.1874 25.7086 34.0131 25.6313 33.8549L26.938 32.5417C27.0869 32.6023 27.2457 32.6344 27.4063 32.6366C27.6468 32.6366 27.882 32.5649 28.082 32.4307C28.2819 32.2964 28.4378 32.1055 28.5299 31.8822C28.6219 31.6589 28.646 31.4131 28.5991 31.1761C28.5521 30.939 28.4363 30.7213 28.2662 30.5503C28.0962 30.3794 27.8795 30.263 27.6436 30.2159C27.4077 30.1687 27.1632 30.1929 26.9409 30.2854C26.7187 30.3779 26.5288 30.5346 26.3952 30.7355C26.2615 30.9365 26.1902 31.1728 26.1902 31.4145C26.1938 31.6103 26.2389 31.8031 26.3224 31.98L25.0534 33.2553C24.8894 33.1776 24.7098 33.1387 24.5285 33.1414C24.288 33.1414 24.0528 33.2131 23.8528 33.3474C23.6529 33.4817 23.497 33.6725 23.4049 33.8958C23.3129 34.1192 23.2888 34.3649 23.3357 34.602C23.3827 34.839 23.4985 35.0568 23.6686 35.2277C23.8386 35.3986 24.0553 35.515 24.2912 35.5622C24.5271 35.6093 24.7716 35.5851 24.9939 35.4926C25.2161 35.4001 25.406 35.2435 25.5396 35.0425C25.6733 34.8415 25.7446 34.6052 25.7446 34.3635Z" fill="#26838D"/>
<mask id="mask33_83_83" style="mask-type:luminance" maskUnits="userSpaceOnUse" x="23" y="30" width="6" height="6">
<path d="M25.7446 34.3635C25.7474 34.1874 25.7086 34.0131 25.6313 33.8549L26.938 32.5417C27.0869 32.6023 27.2457 32.6344 27.4063 32.6366C27.6468 32.6366 27.882 32.5649 28.082 32.4307C28.2819 32.2964 28.4378 32.1055 28.5299 31.8822C28.6219 31.6589 28.646 31.4131 28.5991 31.1761C28.5521 30.939 28.4363 30.7213 28.2662 30.5503C28.0962 30.3794 27.8795 30.263 27.6436 30.2159C27.4077 30.1687 27.1632 30.1929 26.9409 30.2854C26.7187 30.3779 26.5288 30.5346 26.3952 30.7355C26.2615 30.9365 26.1902 31.1728 26.1902 31.4145C26.1938 31.6103 26.2389 31.8031 26.3224 31.98L25.0534 33.2553C24.8894 33.1776 24.7098 33.1387 24.5285 33.1414C24.288 33.1414 24.0528 33.2131 23.8528 33.3474C23.6529 33.4817 23.497 33.6725 23.4049 33.8958C23.3129 34.1192 23.2888 34.3649 23.3357 34.602C23.3827 34.839 23.4985 35.0568 23.6686 35.2277C23.8386 35.3986 24.0553 35.515 24.2912 35.5622C24.5271 35.6093 24.7716 35.5851 24.9939 35.4926C25.2161 35.4001 25.406 35.2435 25.5396 35.0425C25.6733 34.8415 25.7446 34.6052 25.7446 34.3635Z" fill="white"/>
</mask>
<g mask="url(#mask33_83_83)">
<path d="M23.335 30.1772V35.5819H28.6224V30.1772H23.335Z" fill="#26838D"/>
</g>
<path d="M76.6999 25.7669C76.52 25.7661 76.3421 25.805 76.1787 25.8808L74.906 24.6055C74.9979 24.4317 75.0435 24.2368 75.0381 24.04C75.0381 23.7981 74.9667 23.5617 74.8329 23.3606C74.6991 23.1596 74.509 23.0029 74.2866 22.9105C74.0641 22.8181 73.8194 22.7942 73.5834 22.8416C73.3474 22.8891 73.1307 23.0059 72.9608 23.1772C72.7909 23.3485 72.6754 23.5666 72.6289 23.8039C72.5824 24.0412 72.607 24.2871 72.6996 24.5103C72.7922 24.7336 72.9487 24.9242 73.1492 25.058C73.3497 25.1918 73.5852 25.2629 73.8258 25.2621C73.9852 25.26 74.1428 25.2278 74.2904 25.1672L75.5971 26.4804C75.5232 26.645 75.4859 26.8237 75.4876 27.0042C75.4876 27.1642 75.5189 27.3226 75.5799 27.4704C75.6408 27.6182 75.7301 27.7525 75.8427 27.8657C75.9552 27.9788 76.0889 28.0685 76.236 28.1298C76.383 28.191 76.5407 28.2225 76.6999 28.2225C76.8591 28.2225 77.0167 28.191 77.1638 28.1298C77.3109 28.0685 77.4446 27.9788 77.5571 27.8657C77.6697 27.7525 77.759 27.6182 77.8199 27.4704C77.8809 27.3226 77.9122 27.1642 77.9122 27.0042C77.9132 26.679 77.7864 26.3666 77.5594 26.1348C77.3324 25.9031 77.0235 25.7709 76.6999 25.7669Z" fill="#26838D"/>
<mask id="mask34_83_83" style="mask-type:luminance" maskUnits="userSpaceOnUse" x="72" y="22" width="6" height="7">
<path d="M76.6999 25.7669C76.52 25.7661 76.3421 25.805 76.1787 25.8808L74.906 24.6055C74.9979 24.4317 75.0435 24.2368 75.0381 24.04C75.0381 23.7981 74.9667 23.5617 74.8329 23.3606C74.6991 23.1596 74.509 23.0029 74.2866 22.9105C74.0641 22.8181 73.8194 22.7942 73.5834 22.8416C73.3474 22.8891 73.1307 23.0059 72.9608 23.1772C72.7909 23.3485 72.6754 23.5666 72.6289 23.8039C72.5824 24.0412 72.607 24.2871 72.6996 24.5103C72.7922 24.7336 72.9487 24.9242 73.1492 25.058C73.3497 25.1918 73.5852 25.2629 73.8258 25.2621C73.9852 25.26 74.1428 25.2278 74.2904 25.1672L75.5971 26.4804C75.5232 26.645 75.4859 26.8237 75.4876 27.0042C75.4876 27.1642 75.5189 27.3226 75.5799 27.4704C75.6408 27.6182 75.7301 27.7525 75.8427 27.8657C75.9552 27.9788 76.0889 28.0685 76.236 28.1298C76.383 28.191 76.5407 28.2225 76.6999 28.2225C76.8591 28.2225 77.0167 28.191 77.1638 28.1298C77.3109 28.0685 77.4446 27.9788 77.5571 27.8657C77.6697 27.7525 77.759 27.6182 77.8199 27.4704C77.8809 27.3226 77.9122 27.1642 77.9122 27.0042C77.9132 26.679 77.7864 26.3666 77.5594 26.1348C77.3324 25.9031 77.0235 25.7709 76.6999 25.7669Z" fill="white"/>
</mask>
<g mask="url(#mask34_83_83)">
<path d="M72.6097 22.8217V28.2263H77.8971V22.8217H72.6097Z" fill="#26838D"/>
</g>
<path d="M22.3456 27.0042C22.3459 26.8234 22.3072 26.6448 22.2323 26.4804L23.539 25.1672C23.6879 25.2278 23.8467 25.2599 24.0073 25.2621C24.2478 25.2621 24.483 25.1904 24.6829 25.0561C24.8829 24.9219 25.0388 24.731 25.1308 24.5077C25.2229 24.2844 25.247 24.0386 25.2 23.8016C25.1531 23.5645 25.0373 23.3467 24.8672 23.1758C24.6972 23.0049 24.4805 22.8885 24.2446 22.8414C24.0087 22.7942 23.7641 22.8184 23.5419 22.9109C23.3197 23.0034 23.1298 23.16 22.9962 23.361C22.8625 23.562 22.7912 23.7983 22.7912 24.04C22.7948 24.2358 22.8398 24.4286 22.9234 24.6055L21.6544 25.8808C21.4964 25.8051 21.3234 25.7662 21.1484 25.7669C20.838 25.7843 20.5461 25.9204 20.3326 26.1474C20.119 26.3743 20 26.6748 20 26.9871C20 27.2995 20.119 27.5999 20.3326 27.8269C20.5461 28.0538 20.838 28.1899 21.1484 28.2073C21.3061 28.2094 21.4627 28.1797 21.6089 28.1199C21.7551 28.0602 21.8879 27.9716 21.9994 27.8595C22.111 27.7474 22.1991 27.6139 22.2586 27.467C22.318 27.3201 22.3476 27.1628 22.3456 27.0042Z" fill="#26838D"/>
<mask id="mask35_83_83" style="mask-type:luminance" maskUnits="userSpaceOnUse" x="20" y="22" width="6" height="7">
<path d="M22.3456 27.0042C22.3459 26.8234 22.3072 26.6448 22.2323 26.4804L23.539 25.1672C23.6879 25.2278 23.8467 25.2599 24.0073 25.2621C24.2478 25.2621 24.483 25.1904 24.6829 25.0561C24.8829 24.9219 25.0388 24.731 25.1308 24.5077C25.2229 24.2844 25.247 24.0386 25.2 23.8016C25.1531 23.5645 25.0373 23.3467 24.8672 23.1758C24.6972 23.0049 24.4805 22.8885 24.2446 22.8414C24.0087 22.7942 23.7641 22.8184 23.5419 22.9109C23.3197 23.0034 23.1298 23.16 22.9962 23.361C22.8625 23.562 22.7912 23.7983 22.7912 24.04C22.7948 24.2358 22.8398 24.4286 22.9234 24.6055L21.6544 25.8808C21.4964 25.8051 21.3234 25.7662 21.1484 25.7669C20.838 25.7843 20.5461 25.9204 20.3326 26.1474C20.119 26.3743 20 26.6748 20 26.9871C20 27.2995 20.119 27.5999 20.3326 27.8269C20.5461 28.0538 20.838 28.1899 21.1484 28.2073C21.3061 28.2094 21.4627 28.1797 21.6089 28.1199C21.7551 28.0602 21.8879 27.9716 21.9994 27.8595C22.111 27.7474 22.1991 27.6139 22.2586 27.467C22.318 27.3201 22.3476 27.1628 22.3456 27.0042Z" fill="white"/>
</mask>
<g mask="url(#mask35_83_83)">
<path d="M19.9361 22.8027V28.2073H25.2235V22.8027H19.9361Z" fill="#26838D"/>
</g>
<path d="M28.6225 7.53001C28.782 7.53001 28.94 7.49837 29.0873 7.43691C29.2346 7.37544 29.3685 7.28536 29.4811 7.17183C29.5937 7.05829 29.6829 6.92354 29.7436 6.77529C29.8043 6.62703 29.8353 6.4682 29.8348 6.30789C29.8373 6.13341 29.7998 5.96071 29.7253 5.8031L33.8457 1.65473H40.0281C40.125 1.9244 40.3134 2.15109 40.5602 2.29493C40.807 2.43877 41.0964 2.49054 41.3774 2.44112C41.6584 2.3917 41.9131 2.24427 42.0966 2.02476C42.2801 1.80525 42.3807 1.52774 42.3807 1.24103C42.3807 0.954326 42.2801 0.676806 42.0966 0.457298C41.9131 0.23779 41.6584 0.0903581 41.3774 0.0409413C41.0964 -0.00847557 40.807 0.0432891 40.5602 0.187128C40.3134 0.330966 40.125 0.557663 40.0281 0.827332H33.4907L29.121 5.18445C28.9657 5.10882 28.7951 5.06988 28.6225 5.07059C28.4632 5.07009 28.3053 5.10126 28.158 5.16231C28.0107 5.22336 27.8768 5.31308 27.7641 5.42631C27.6515 5.53954 27.5622 5.67405 27.5014 5.82209C27.4407 5.97013 27.4097 6.12878 27.4102 6.28891C27.4082 6.61476 27.5345 6.92817 27.7617 7.1607C27.9888 7.39324 28.2983 7.526 28.6225 7.53001Z" fill="#26838D"/>
<mask id="mask36_83_83" style="mask-type:luminance" maskUnits="userSpaceOnUse" x="27" y="0" width="16" height="8">
<path d="M28.6225 7.53001C28.782 7.53001 28.94 7.49837 29.0873 7.43691C29.2346 7.37544 29.3685 7.28536 29.4811 7.17183C29.5937 7.05829 29.6829 6.92354 29.7436 6.77529C29.8043 6.62703 29.8353 6.4682 29.8348 6.30789C29.8373 6.13341 29.7998 5.96071 29.7253 5.8031L33.8457 1.65473H40.0281C40.125 1.9244 40.3134 2.15109 40.5602 2.29493C40.807 2.43877 41.0964 2.49054 41.3774 2.44112C41.6584 2.3917 41.9131 2.24427 42.0966 2.02476C42.2801 1.80525 42.3807 1.52774 42.3807 1.24103C42.3807 0.954326 42.2801 0.676806 42.0966 0.457298C41.9131 0.23779 41.6584 0.0903581 41.3774 0.0409413C41.0964 -0.00847557 40.807 0.0432891 40.5602 0.187128C40.3134 0.330966 40.125 0.557663 40.0281 0.827332H33.4907L29.121 5.18445C28.9657 5.10882 28.7951 5.06988 28.6225 5.07059C28.4632 5.07009 28.3053 5.10126 28.158 5.16231C28.0107 5.22336 27.8768 5.31308 27.7641 5.42631C27.6515 5.53954 27.5622 5.67405 27.5014 5.82209C27.4407 5.97013 27.4097 6.12878 27.4102 6.28891C27.4082 6.61476 27.5345 6.92817 27.7617 7.1607C27.9888 7.39324 28.2983 7.526 28.6225 7.53001Z" fill="white"/>
</mask>
<g mask="url(#mask36_83_83)">
<path d="M27.4064 0.00372314V7.53H42.3999V0.00372314H27.4064Z" fill="#26838D"/>
</g>
<path d="M31.3643 46.748C31.362 46.4983 31.2837 46.2554 31.1399 46.0518C30.9961 45.8483 30.7937 45.6938 30.5599 45.6093V42.721L35.0919 38.1666V34.2118L34.2497 33.3123V37.7946L29.7177 42.3491V45.5942C29.4564 45.6966 29.2384 45.8869 29.1011 46.1327C28.9637 46.3785 28.9154 46.6645 28.9644 46.9421C29.0134 47.2196 29.1567 47.4715 29.3698 47.6548C29.5829 47.8381 29.8527 47.9415 30.1331 47.9473C30.2931 47.9529 30.4526 47.926 30.6021 47.8682C30.7515 47.8104 30.8877 47.7229 31.0027 47.6109C31.1177 47.499 31.209 47.3648 31.2711 47.2165C31.3332 47.0682 31.3649 46.9089 31.3643 46.748Z" fill="#26838D"/>
<mask id="mask37_83_83" style="mask-type:luminance" maskUnits="userSpaceOnUse" x="28" y="33" width="8" height="15">
<path d="M31.3643 46.748C31.362 46.4983 31.2837 46.2554 31.1399 46.0518C30.9961 45.8483 30.7937 45.6938 30.5599 45.6093V42.721L35.0919 38.1666V34.2118L34.2497 33.3123V37.7946L29.7177 42.3491V45.5942C29.4564 45.6966 29.2384 45.8869 29.1011 46.1327C28.9637 46.3785 28.9154 46.6645 28.9644 46.9421C29.0134 47.2196 29.1567 47.4715 29.3698 47.6548C29.5829 47.8381 29.8527 47.9415 30.1331 47.9473C30.2931 47.9529 30.4526 47.926 30.6021 47.8682C30.7515 47.8104 30.8877 47.7229 31.0027 47.6109C31.1177 47.499 31.209 47.3648 31.2711 47.2165C31.3332 47.0682 31.3649 46.9089 31.3643 46.748Z" fill="white"/>
</mask>
<g mask="url(#mask37_83_83)">
<path d="M28.9359 33.3123V47.9663H35.0995V33.3123H28.9359Z" fill="#26838D"/>
</g>
<path d="M33.2866 48.7177V43.8179C33.555 43.7205 33.7806 43.5312 33.9237 43.2832C34.0668 43.0352 34.1183 42.7444 34.0692 42.4619C34.02 42.1795 33.8733 41.9236 33.6549 41.7392C33.4364 41.5547 33.1603 41.4536 32.875 41.4536C32.5897 41.4536 32.3135 41.5547 32.0951 41.7392C31.8767 41.9236 31.73 42.1795 31.6808 42.4619C31.6316 42.7444 31.6831 43.0352 31.8263 43.2832C31.9694 43.5312 32.195 43.7205 32.4633 43.8179V48.3723L31.606 49.2339C31.4255 49.1258 31.2195 49.0681 31.0093 49.0669C30.7685 49.0662 30.5328 49.1373 30.3323 49.2713C30.1317 49.4053 29.9752 49.5961 29.8827 49.8196C29.7902 50.0431 29.7658 50.2891 29.8126 50.5265C29.8594 50.7639 29.9753 50.982 30.1456 51.1532C30.3159 51.3243 30.533 51.4408 30.7692 51.4878C31.0055 51.5349 31.2503 51.5104 31.4726 51.4174C31.695 51.3244 31.8849 51.1672 32.0182 50.9656C32.1516 50.7641 32.2224 50.5273 32.2216 50.2852C32.2255 50.1435 32.1998 50.0026 32.1461 49.8715L33.2866 48.7177Z" fill="#26838D"/>
<mask id="mask38_83_83" style="mask-type:luminance" maskUnits="userSpaceOnUse" x="29" y="41" width="6" height="11">
<path d="M33.2866 48.7177V43.8179C33.555 43.7205 33.7806 43.5312 33.9237 43.2832C34.0668 43.0352 34.1183 42.7444 34.0692 42.4619C34.02 42.1795 33.8733 41.9236 33.6549 41.7392C33.4364 41.5547 33.1603 41.4536 32.875 41.4536C32.5897 41.4536 32.3135 41.5547 32.0951 41.7392C31.8767 41.9236 31.73 42.1795 31.6808 42.4619C31.6316 42.7444 31.6831 43.0352 31.8263 43.2832C31.9694 43.5312 32.195 43.7205 32.4633 43.8179V48.3723L31.606 49.2339C31.4255 49.1258 31.2195 49.0681 31.0093 49.0669C30.7685 49.0662 30.5328 49.1373 30.3323 49.2713C30.1317 49.4053 29.9752 49.5961 29.8827 49.8196C29.7902 50.0431 29.7658 50.2891 29.8126 50.5265C29.8594 50.7639 29.9753 50.982 30.1456 51.1532C30.3159 51.3243 30.533 51.4408 30.7692 51.4878C31.0055 51.5349 31.2503 51.5104 31.4726 51.4174C31.695 51.3244 31.8849 51.1672 32.0182 50.9656C32.1516 50.7641 32.2224 50.5273 32.2216 50.2852C32.2255 50.1435 32.1998 50.0026 32.1461 49.8715L33.2866 48.7177Z" fill="white"/>
</mask>
<g mask="url(#mask38_83_83)">
<path d="M29.7555 41.4533V51.5301H34.0911V41.4533H29.7555Z" fill="#26838D"/>
</g>
<path d="M29.8877 35.7488C29.8703 35.4369 29.7349 35.1436 29.5091 34.9289C29.2833 34.7143 28.9843 34.5947 28.6735 34.5947C28.3626 34.5947 28.0636 34.7143 27.8378 34.9289C27.612 35.1436 27.4766 35.4369 27.4592 35.7488C27.4564 35.9249 27.4952 36.0992 27.5725 36.2573L25.0346 38.8079V41.5292C24.7649 41.6262 24.5379 41.8157 24.3937 42.0645C24.2494 42.3132 24.1972 42.6051 24.2462 42.8888C24.2952 43.1724 24.4422 43.4296 24.6614 43.6149C24.8806 43.8003 25.1579 43.9019 25.4444 43.9019C25.7308 43.9019 26.0081 43.8003 26.2273 43.6149C26.4465 43.4296 26.5936 43.1724 26.6426 42.8888C26.6915 42.6051 26.6393 42.3132 26.4951 42.0645C26.3508 41.8157 26.1239 41.6262 25.8541 41.5292V39.1646L28.1504 36.857C28.3144 36.9347 28.494 36.9736 28.6753 36.9709C28.8349 36.9709 28.9928 36.9392 29.1401 36.8778C29.2875 36.8163 29.4213 36.7262 29.5339 36.6127C29.6465 36.4992 29.7358 36.3644 29.7965 36.2162C29.8572 36.0679 29.8882 35.9091 29.8877 35.7488Z" fill="#26838D"/>
<mask id="mask39_83_83" style="mask-type:luminance" maskUnits="userSpaceOnUse" x="24" y="34" width="6" height="10">
<path d="M29.8877 35.7488C29.8703 35.4369 29.7349 35.1436 29.5091 34.9289C29.2833 34.7143 28.9843 34.5947 28.6735 34.5947C28.3626 34.5947 28.0636 34.7143 27.8378 34.9289C27.612 35.1436 27.4766 35.4369 27.4592 35.7488C27.4564 35.9249 27.4952 36.0992 27.5725 36.2573L25.0346 38.8079V41.5292C24.7649 41.6262 24.5379 41.8157 24.3937 42.0645C24.2494 42.3132 24.1972 42.6051 24.2462 42.8888C24.2952 43.1724 24.4422 43.4296 24.6614 43.6149C24.8806 43.8003 25.1579 43.9019 25.4444 43.9019C25.7308 43.9019 26.0081 43.8003 26.2273 43.6149C26.4465 43.4296 26.5936 43.1724 26.6426 42.8888C26.6915 42.6051 26.6393 42.3132 26.4951 42.0645C26.3508 41.8157 26.1239 41.6262 25.8541 41.5292V39.1646L28.1504 36.857C28.3144 36.9347 28.494 36.9736 28.6753 36.9709C28.8349 36.9709 28.9928 36.9392 29.1401 36.8778C29.2875 36.8163 29.4213 36.7262 29.5339 36.6127C29.6465 36.4992 29.7358 36.3644 29.7965 36.2162C29.8572 36.0679 29.8882 35.9091 29.8877 35.7488Z" fill="white"/>
</mask>
<g mask="url(#mask39_83_83)">
<path d="M24.2302 34.5229V43.9051H29.8952V34.5229H24.2302Z" fill="#26838D"/>
</g>
<path d="M34.7974 42.0569V53.2571L34.11 53.9517C33.9546 53.8911 33.7896 53.859 33.6228 53.8568C33.3821 53.856 33.1467 53.9271 32.9462 54.0609C32.7457 54.1947 32.5892 54.3853 32.4966 54.6086C32.404 54.8318 32.3794 55.0777 32.4259 55.315C32.4724 55.5523 32.5879 55.7704 32.7578 55.9417C32.9277 56.113 33.1444 56.2298 33.3804 56.2773C33.6164 56.3247 33.8611 56.3008 34.0836 56.2084C34.306 56.116 34.4961 55.9593 34.6299 55.7583C34.7637 55.5572 34.8351 55.3208 34.8352 55.0789C34.8307 54.8897 34.7869 54.7036 34.7067 54.5324L35.6207 53.6139V42.4137L35.9568 42.0759L35.379 41.4724L34.7974 42.0569Z" fill="#26838D"/>
<mask id="mask40_83_83" style="mask-type:luminance" maskUnits="userSpaceOnUse" x="32" y="41" width="4" height="16">
<path d="M34.7974 42.0569V53.2571L34.11 53.9517C33.9546 53.8911 33.7896 53.859 33.6228 53.8568C33.3821 53.856 33.1467 53.9271 32.9462 54.0609C32.7457 54.1947 32.5892 54.3853 32.4966 54.6086C32.404 54.8318 32.3794 55.0777 32.4259 55.315C32.4724 55.5523 32.5879 55.7704 32.7578 55.9417C32.9277 56.113 33.1444 56.2298 33.3804 56.2773C33.6164 56.3247 33.8611 56.3008 34.0836 56.2084C34.306 56.116 34.4961 55.9593 34.6299 55.7583C34.7637 55.5572 34.8351 55.3208 34.8352 55.0789C34.8307 54.8897 34.7869 54.7036 34.7067 54.5324L35.6207 53.6139V42.4137L35.9568 42.0759L35.379 41.4724L34.7974 42.0569Z" fill="white"/>
</mask>
<g mask="url(#mask40_83_83)">
<path d="M32.3992 41.4534V56.2783H35.9455V41.4534H32.3992Z" fill="#26838D"/>
</g>
<path d="M38.0302 58.286V57.5269L40.5871 54.9536C40.7425 55.0142 40.9075 55.0463 41.0743 55.0485C41.3149 55.0485 41.5502 54.9767 41.7503 54.8423C41.9503 54.7078 42.1062 54.5167 42.1981 54.2932C42.2901 54.0696 42.3139 53.8237 42.2667 53.5865C42.2195 53.3494 42.1033 53.1316 41.9328 52.9609C41.7624 52.7901 41.5453 52.674 41.3092 52.6273C41.073 52.5805 40.8284 52.6053 40.6063 52.6984C40.3841 52.7915 40.1944 52.9487 40.0613 53.1502C39.9281 53.3516 39.8574 53.5883 39.8582 53.8302C39.8552 54.0195 39.9007 54.2064 39.9903 54.3729L37.2069 57.1701V58.2746C36.9386 58.3719 36.713 58.5613 36.5699 58.8093C36.4267 59.0573 36.3752 59.3481 36.4244 59.6305C36.4736 59.9129 36.6203 60.1689 36.8387 60.3533C37.0571 60.5377 37.3333 60.6388 37.6186 60.6388C37.9039 60.6388 38.18 60.5377 38.3984 60.3533C38.6169 60.1689 38.7636 59.9129 38.8127 59.6305C38.8619 59.3481 38.8104 59.0573 38.6673 58.8093C38.5242 58.5613 38.2986 58.3719 38.0302 58.2746V58.286Z" fill="#26838D"/>
<mask id="mask41_83_83" style="mask-type:luminance" maskUnits="userSpaceOnUse" x="36" y="52" width="7" height="9">
<path d="M38.0302 58.286V57.5269L40.5871 54.9536C40.7425 55.0142 40.9075 55.0463 41.0743 55.0485C41.3149 55.0485 41.5502 54.9767 41.7503 54.8423C41.9503 54.7078 42.1062 54.5167 42.1981 54.2932C42.2901 54.0696 42.3139 53.8237 42.2667 53.5865C42.2195 53.3494 42.1033 53.1316 41.9328 52.9609C41.7624 52.7901 41.5453 52.674 41.3092 52.6273C41.073 52.5805 40.8284 52.6053 40.6063 52.6984C40.3841 52.7915 40.1944 52.9487 40.0613 53.1502C39.9281 53.3516 39.8574 53.5883 39.8582 53.8302C39.8552 54.0195 39.9007 54.2064 39.9903 54.3729L37.2069 57.1701V58.2746C36.9386 58.3719 36.713 58.5613 36.5699 58.8093C36.4267 59.0573 36.3752 59.3481 36.4244 59.6305C36.4736 59.9129 36.6203 60.1689 36.8387 60.3533C37.0571 60.5377 37.3333 60.6388 37.6186 60.6388C37.9039 60.6388 38.18 60.5377 38.3984 60.3533C38.6169 60.1689 38.7636 59.9129 38.8127 59.6305C38.8619 59.3481 38.8104 59.0573 38.6673 58.8093C38.5242 58.5613 38.2986 58.3719 38.0302 58.2746V58.286Z" fill="white"/>
</mask>
<g mask="url(#mask41_83_83)">
<path d="M36.3871 52.6198V60.6698H42.2863V52.6198H36.3871Z" fill="#26838D"/>
</g>
<path d="M2.23503 77.5084V85H0.651121V77.5084H2.23503ZM3.25286 78.8143V77.5084H9.40559V78.8143H7.11204V85H5.54642V78.8143H3.25286ZM16.867 79.663C16.8377 79.3679 16.7121 79.1387 16.4902 78.9753C16.2683 78.8119 15.9671 78.7302 15.5867 78.7302C15.3282 78.7302 15.1099 78.7668 14.9319 78.84C14.7539 78.9107 14.6173 79.0094 14.5222 79.1363C14.4295 79.2631 14.3832 79.4069 14.3832 79.5679C14.3783 79.702 14.4064 79.8191 14.4673 79.9191C14.5307 80.019 14.6173 80.1056 14.727 80.1788C14.8368 80.2495 14.9636 80.3117 15.1075 80.3653C15.2514 80.4165 15.405 80.4604 15.5684 80.497L16.2415 80.658C16.5682 80.7311 16.8682 80.8287 17.1413 80.9506C17.4144 81.0725 17.651 81.2225 17.851 81.4005C18.0509 81.5786 18.2058 81.7883 18.3155 82.0297C18.4277 82.2711 18.485 82.5479 18.4875 82.8601C18.485 83.3185 18.368 83.716 18.1363 84.0526C17.9071 84.3867 17.5754 84.6464 17.1413 84.8317C16.7097 85.0146 16.189 85.1061 15.5794 85.1061C14.9746 85.1061 14.4478 85.0134 13.9991 84.8281C13.5528 84.6427 13.2041 84.3684 12.9529 84.005C12.7042 83.6392 12.5737 83.1869 12.5615 82.6479H14.0942C14.1113 82.8991 14.1832 83.1088 14.31 83.2771C14.4393 83.4429 14.6112 83.5685 14.8258 83.6539C15.0429 83.7368 15.2879 83.7782 15.5611 83.7782C15.8293 83.7782 16.0622 83.7392 16.2597 83.6612C16.4597 83.5831 16.6146 83.4746 16.7243 83.3356C16.834 83.1966 16.8889 83.0369 16.8889 82.8564C16.8889 82.6882 16.8389 82.5467 16.7389 82.4321C16.6414 82.3175 16.4975 82.2199 16.3073 82.1395C16.1195 82.059 15.8891 81.9858 15.6159 81.92L14.8002 81.7151C14.1686 81.5615 13.6699 81.3213 13.3041 80.9945C12.9383 80.6677 12.7566 80.2275 12.7591 79.674C12.7566 79.2204 12.8773 78.8241 13.1212 78.4851C13.3675 78.1462 13.7053 77.8816 14.1345 77.6913C14.5637 77.5011 15.0514 77.406 15.5976 77.406C16.1537 77.406 16.639 77.5011 17.0535 77.6913C17.4705 77.8816 17.7949 78.1462 18.0265 78.4851C18.2582 78.8241 18.3777 79.2167 18.385 79.663H16.867ZM26.4372 81.2542C26.4372 82.0712 26.2823 82.7662 25.9726 83.3393C25.6653 83.9124 25.2459 84.3501 24.7143 84.6525C24.1851 84.9524 23.59 85.1024 22.9292 85.1024C22.2634 85.1024 21.6659 84.9512 21.1368 84.6488C20.6076 84.3464 20.1893 83.9087 19.8821 83.3356C19.5748 82.7625 19.4212 82.0687 19.4212 81.2542C19.4212 80.4373 19.5748 79.7423 19.8821 79.1692C20.1893 78.5961 20.6076 78.1596 21.1368 77.8596C21.6659 77.5572 22.2634 77.406 22.9292 77.406C23.59 77.406 24.1851 77.5572 24.7143 77.8596C25.2459 78.1596 25.6653 78.5961 25.9726 79.1692C26.2823 79.7423 26.4372 80.4373 26.4372 81.2542ZM24.8313 81.2542C24.8313 80.725 24.7521 80.2788 24.5935 79.9154C24.4375 79.552 24.2168 79.2765 23.9315 79.0887C23.6461 78.9009 23.312 78.807 22.9292 78.807C22.5463 78.807 22.2122 78.9009 21.9269 79.0887C21.6416 79.2765 21.4196 79.552 21.2611 79.9154C21.105 80.2788 21.027 80.725 21.027 81.2542C21.027 81.7834 21.105 82.2297 21.2611 82.593C21.4196 82.9564 21.6416 83.232 21.9269 83.4198C22.2122 83.6075 22.5463 83.7014 22.9292 83.7014C23.312 83.7014 23.6461 83.6075 23.9315 83.4198C24.2168 83.232 24.4375 82.9564 24.5935 82.593C24.7521 82.2297 24.8313 81.7834 24.8313 81.2542ZM27.6105 85V77.5084H29.1944V83.6941H32.4061V85H27.6105ZM38.0824 77.5084H39.6663V82.3736C39.6663 82.9198 39.5358 83.3978 39.2749 83.8075C39.0164 84.2172 38.6542 84.5367 38.1884 84.7659C37.7227 84.9927 37.1801 85.1061 36.5606 85.1061C35.9388 85.1061 35.395 84.9927 34.9292 84.7659C34.4634 84.5367 34.1013 84.2172 33.8428 83.8075C33.5843 83.3978 33.455 82.9198 33.455 82.3736V77.5084H35.0389V82.2382C35.0389 82.5235 35.1011 82.7772 35.2255 82.9991C35.3523 83.221 35.5303 83.3954 35.7595 83.5222C35.9888 83.649 36.2558 83.7124 36.5606 83.7124C36.8679 83.7124 37.1349 83.649 37.3617 83.5222C37.591 83.3954 37.7678 83.221 37.8922 82.9991C38.019 82.7772 38.0824 82.5235 38.0824 82.2382V77.5084ZM40.6841 78.8143V77.5084H46.8368V78.8143H44.5433V85H42.9777V78.8143H40.6841ZM49.434 77.5084V85H47.8501V77.5084H49.434ZM57.6215 81.2542C57.6215 82.0712 57.4666 82.7662 57.1569 83.3393C56.8497 83.9124 56.4302 84.3501 55.8986 84.6525C55.3694 84.9524 54.7744 85.1024 54.1135 85.1024C53.4477 85.1024 52.8503 84.9512 52.3211 84.6488C51.7919 84.3464 51.3737 83.9087 51.0664 83.3356C50.7591 82.7625 50.6055 82.0687 50.6055 81.2542C50.6055 80.4373 50.7591 79.7423 51.0664 79.1692C51.3737 78.5961 51.7919 78.1596 52.3211 77.8596C52.8503 77.5572 53.4477 77.406 54.1135 77.406C54.7744 77.406 55.3694 77.5572 55.8986 77.8596C56.4302 78.1596 56.8497 78.5961 57.1569 79.1692C57.4666 79.7423 57.6215 80.4373 57.6215 81.2542ZM56.0156 81.2542C56.0156 80.725 55.9364 80.2788 55.7779 79.9154C55.6218 79.552 55.4011 79.2765 55.1158 79.0887C54.8305 78.9009 54.4964 78.807 54.1135 78.807C53.7306 78.807 53.3965 78.9009 53.1112 79.0887C52.8259 79.2765 52.604 79.552 52.4454 79.9154C52.2894 80.2788 52.2113 80.725 52.2113 81.2542C52.2113 81.7834 52.2894 82.2297 52.4454 82.593C52.604 82.9564 52.8259 83.232 53.1112 83.4198C53.3965 83.6075 53.7306 83.7014 54.1135 83.7014C54.4964 83.7014 54.8305 83.6075 55.1158 83.4198C55.4011 83.232 55.6218 82.9564 55.7779 82.593C55.9364 82.2297 56.0156 81.7834 56.0156 81.2542ZM65.0609 77.5084V85H63.6928L60.4336 80.2849H60.3787V85H58.7948V77.5084H60.1848L63.4185 82.2199H63.4843V77.5084H65.0609ZM70.4336 79.663C70.4043 79.3679 70.2787 79.1387 70.0568 78.9753C69.8349 78.8119 69.5337 78.7302 69.1533 78.7302C68.8948 78.7302 68.6765 78.7668 68.4985 78.84C68.3205 78.9107 68.1839 79.0094 68.0888 79.1363C67.9961 79.2631 67.9498 79.4069 67.9498 79.5679C67.9449 79.702 67.973 79.8191 68.0339 79.9191C68.0973 80.019 68.1839 80.1056 68.2937 80.1788C68.4034 80.2495 68.5302 80.3117 68.6741 80.3653C68.818 80.4165 68.9716 80.4604 69.135 80.497L69.8081 80.658C70.1348 80.7311 70.4348 80.8287 70.7079 80.9506C70.9811 81.0725 71.2176 81.2225 71.4176 81.4005C71.6175 81.5786 71.7724 81.7883 71.8821 82.0297C71.9943 82.2711 72.0516 82.5479 72.0541 82.8601C72.0516 83.3185 71.9346 83.716 71.7029 84.0526C71.4737 84.3867 71.142 84.6464 70.7079 84.8317C70.2763 85.0146 69.7556 85.1061 69.146 85.1061C68.5412 85.1061 68.0144 85.0134 67.5657 84.8281C67.1194 84.6427 66.7707 84.3684 66.5195 84.005C66.2708 83.6392 66.1403 83.1869 66.1281 82.6479H67.6608C67.6779 82.8991 67.7498 83.1088 67.8766 83.2771C68.0059 83.4429 68.1778 83.5685 68.3924 83.6539C68.6095 83.7368 68.8545 83.7782 69.1277 83.7782C69.3959 83.7782 69.6288 83.7392 69.8264 83.6612C70.0263 83.5831 70.1812 83.4746 70.2909 83.3356C70.4007 83.1966 70.4555 83.0369 70.4555 82.8564C70.4555 82.6882 70.4055 82.5467 70.3056 82.4321C70.208 82.3175 70.0641 82.2199 69.8739 82.1395C69.6861 82.059 69.4557 81.9858 69.1825 81.92L68.3668 81.7151C67.7352 81.5615 67.2365 81.3213 66.8707 80.9945C66.5049 80.6677 66.3232 80.2275 66.3257 79.674C66.3232 79.2204 66.4439 78.8241 66.6878 78.4851C66.9341 78.1462 67.2719 77.8816 67.7011 77.6913C68.1303 77.5011 68.618 77.406 69.1643 77.406C69.7203 77.406 70.2056 77.5011 70.6201 77.6913C71.0371 77.8816 71.3615 78.1462 71.5932 78.4851C71.8248 78.8241 71.9443 79.2167 71.9516 79.663H70.4336ZM75.5036 85V77.5084H77.0875V80.5994H80.3028V77.5084H81.8831V85H80.3028V81.9053H77.0875V85H75.5036ZM87.8163 77.5084H89.4002V82.3736C89.4002 82.9198 89.2698 83.3978 89.0088 83.8075C88.7503 84.2172 88.3882 84.5367 87.9224 84.7659C87.4566 84.9927 86.914 85.1061 86.2946 85.1061C85.6728 85.1061 85.1289 84.9927 84.6631 84.7659C84.1974 84.5367 83.8352 84.2172 83.5767 83.8075C83.3182 83.3978 83.189 82.9198 83.189 82.3736V77.5084H84.7729V82.2382C84.7729 82.5235 84.8351 82.7772 84.9594 82.9991C85.0863 83.221 85.2643 83.3954 85.4935 83.5222C85.7227 83.649 85.9898 83.7124 86.2946 83.7124C86.6019 83.7124 86.8689 83.649 87.0957 83.5222C87.3249 83.3954 87.5017 83.221 87.6261 82.9991C87.7529 82.7772 87.8163 82.5235 87.8163 82.2382V77.5084ZM90.7034 85V77.5084H93.7029C94.2541 77.5084 94.7138 77.5901 95.082 77.7535C95.4502 77.9169 95.727 78.1437 95.9124 78.4339C96.0977 78.7217 96.1904 79.0533 96.1904 79.4289C96.1904 79.7215 96.1318 79.9788 96.0148 80.2007C95.8977 80.4202 95.7368 80.6007 95.5319 80.7421C95.3295 80.8811 95.0978 80.9799 94.8369 81.0384V81.1116C95.1222 81.1238 95.3893 81.2042 95.638 81.353C95.8892 81.5017 96.0928 81.7103 96.2489 81.9785C96.405 82.2443 96.483 82.5613 96.483 82.9296C96.483 83.3271 96.3842 83.6819 96.1867 83.9941C95.9916 84.3038 95.7026 84.5488 95.3198 84.7293C94.9369 84.9098 94.465 85 93.9041 85H90.7034ZM92.2873 83.7051H93.5786C94.02 83.7051 94.3419 83.6209 94.5443 83.4527C94.7467 83.282 94.8479 83.0552 94.8479 82.7723C94.8479 82.565 94.7979 82.3821 94.6979 82.2236C94.5979 82.0651 94.4553 81.9407 94.2699 81.8505C94.087 81.7602 93.8688 81.7151 93.6151 81.7151H92.2873V83.7051ZM92.2873 80.6433H93.4615C93.6786 80.6433 93.8712 80.6055 94.0395 80.5299C94.2102 80.4519 94.3443 80.3422 94.4419 80.2007C94.5418 80.0593 94.5918 79.8898 94.5918 79.6923C94.5918 79.4216 94.4955 79.2033 94.3028 79.0375C94.1126 78.8717 93.8419 78.7887 93.4908 78.7887H92.2873V80.6433Z" fill="#26838D"/>
<path d="M14.7755 97.8763V97.2178L17.2483 94.5109C17.5385 94.1939 17.7775 93.9183 17.9653 93.6842C18.153 93.4477 18.292 93.2257 18.3823 93.0184C18.4749 92.8087 18.5213 92.5892 18.5213 92.36C18.5213 92.0966 18.4579 91.8686 18.3311 91.676C18.2067 91.4833 18.036 91.3346 17.8189 91.2297C17.6019 91.1248 17.358 91.0724 17.0873 91.0724C16.7996 91.0724 16.5484 91.1321 16.3338 91.2516C16.1216 91.3687 15.957 91.5333 15.84 91.7455C15.7253 91.9576 15.668 92.2064 15.668 92.4917H14.8048C14.8048 92.0527 14.906 91.6674 15.1084 91.3358C15.3108 91.0041 15.5863 90.7456 15.9351 90.5603C16.2862 90.3749 16.6801 90.2823 17.1166 90.2823C17.5556 90.2823 17.9445 90.3749 18.2835 90.5603C18.6225 90.7456 18.8883 90.9956 19.0809 91.3102C19.2736 91.6248 19.3699 91.9747 19.3699 92.36C19.3699 92.6356 19.3199 92.905 19.2199 93.1684C19.1224 93.4294 18.9517 93.7208 18.7078 94.0427C18.4664 94.3621 18.1311 94.7523 17.7019 95.2132L16.0192 97.013V97.0715H19.5016V97.8763H14.7755ZM23.4559 97.9787C22.9048 97.9787 22.4353 97.8287 22.0476 97.5287C21.6598 97.2263 21.3635 96.7886 21.1587 96.2155C20.9538 95.64 20.8514 94.945 20.8514 94.1305C20.8514 93.3208 20.9538 92.6295 21.1587 92.0564C21.366 91.4809 21.6635 91.0419 22.0512 90.7395C22.4414 90.4347 22.9096 90.2823 23.4559 90.2823C24.0021 90.2823 24.4692 90.4347 24.8569 90.7395C25.2471 91.0419 25.5446 91.4809 25.7494 92.0564C25.9567 92.6295 26.0604 93.3208 26.0604 94.1305C26.0604 94.945 25.958 95.64 25.7531 96.2155C25.5483 96.7886 25.252 97.2263 24.8642 97.5287C24.4765 97.8287 24.007 97.9787 23.4559 97.9787ZM23.4559 97.1739C24.0021 97.1739 24.4265 96.9105 24.7289 96.3838C25.0313 95.857 25.1825 95.1059 25.1825 94.1305C25.1825 93.4818 25.113 92.9294 24.974 92.4734C24.8374 92.0174 24.6399 91.6699 24.3814 91.4309C24.1253 91.1919 23.8168 91.0724 23.4559 91.0724C22.9145 91.0724 22.4914 91.3394 22.1866 91.8735C21.8817 92.4051 21.7293 93.1575 21.7293 94.1305C21.7293 94.7792 21.7976 95.3303 21.9342 95.7839C22.0707 96.2375 22.267 96.5825 22.5231 96.8191C22.7816 97.0556 23.0925 97.1739 23.4559 97.1739ZM30.0842 90.3847V97.8763H29.177V91.3358H29.1331L27.3041 92.5502V91.6284L29.177 90.3847H30.0842ZM34.6822 97.9787C34.1311 97.9787 33.6617 97.8287 33.2739 97.5287C32.8862 97.2263 32.5899 96.7886 32.385 96.2155C32.1802 95.64 32.0778 94.945 32.0778 94.1305C32.0778 93.3208 32.1802 92.6295 32.385 92.0564C32.5923 91.4809 32.8898 91.0419 33.2776 90.7395C33.6678 90.4347 34.136 90.2823 34.6822 90.2823C35.2285 90.2823 35.6955 90.4347 36.0833 90.7395C36.4734 91.0419 36.771 91.4809 36.9758 92.0564C37.1831 92.6295 37.2867 93.3208 37.2867 94.1305C37.2867 94.945 37.1843 95.64 36.9795 96.2155C36.7746 96.7886 36.4783 97.2263 36.0906 97.5287C35.7028 97.8287 35.2334 97.9787 34.6822 97.9787ZM34.6822 97.1739C35.2285 97.1739 35.6528 96.9105 35.9552 96.3838C36.2576 95.857 36.4088 95.1059 36.4088 94.1305C36.4088 93.4818 36.3393 92.9294 36.2003 92.4734C36.0637 92.0174 35.8662 91.6699 35.6077 91.4309C35.3517 91.1919 35.0432 91.0724 34.6822 91.0724C34.1409 91.0724 33.7178 91.3394 33.4129 91.8735C33.1081 92.4051 32.9557 93.1575 32.9557 94.1305C32.9557 94.7792 33.024 95.3303 33.1605 95.7839C33.2971 96.2375 33.4934 96.5825 33.7495 96.8191C34.008 97.0556 34.3189 97.1739 34.6822 97.1739ZM41.7056 97.8763V90.3847H44.2369C44.8246 90.3847 45.305 90.4908 45.6781 90.7029C46.0537 90.9127 46.3317 91.1968 46.5122 91.5553C46.6926 91.9137 46.7829 92.3137 46.7829 92.7551C46.7829 93.1965 46.6926 93.5976 46.5122 93.9585C46.3341 94.3195 46.0586 94.6072 45.6855 94.8218C45.3124 95.034 44.8344 95.1401 44.2515 95.1401H42.4372V94.3353H44.2223C44.6246 94.3353 44.9478 94.2658 45.1916 94.1268C45.4355 93.9878 45.6123 93.8 45.722 93.5635C45.8342 93.3245 45.8903 93.055 45.8903 92.7551C45.8903 92.4551 45.8342 92.1869 45.722 91.9503C45.6123 91.7138 45.4343 91.5284 45.188 91.3943C44.9417 91.2577 44.6149 91.1895 44.2076 91.1895H42.6128V97.8763H41.7056ZM48.5515 90.3847L50.7755 96.6911H50.8633L53.0874 90.3847H54.0385L51.2877 97.8763H50.3512L47.6004 90.3847H48.5515ZM54.7957 91.1895V90.3847H60.4143V91.1895H58.0586V97.8763H57.1514V91.1895H54.7957ZM64.7116 97.8763V90.3847H65.6187V97.0715H69.1011V97.8763H64.7116ZM69.1002 91.1895V90.3847H74.7189V91.1895H72.3631V97.8763H71.456V91.1895H69.1002ZM78.4308 97.8763H76.119V90.3847H78.5333C79.26 90.3847 79.8818 90.5347 80.3988 90.8346C80.9158 91.1321 81.3121 91.5601 81.5877 92.1186C81.8632 92.6746 82.001 93.3403 82.001 94.1158C82.001 94.8962 81.862 95.5681 81.584 96.1314C81.306 96.6923 80.9012 97.1239 80.3696 97.4263C79.8379 97.7263 79.1917 97.8763 78.4308 97.8763ZM77.0262 97.0715H78.3723C78.9917 97.0715 79.5051 96.952 79.9123 96.713C80.3196 96.474 80.6232 96.1338 80.8232 95.6924C81.0231 95.251 81.1231 94.7255 81.1231 94.1158C81.1231 93.5111 81.0243 92.9904 80.8268 92.5539C80.6293 92.1149 80.3342 91.7784 79.9416 91.5443C79.549 91.3077 79.06 91.1895 78.4747 91.1895H77.0262V97.0715Z" fill="#26838D"/>
</svg>
