<svg width="161" height="65" viewBox="0 0 161 65" fill="none" xmlns="http://www.w3.org/2000/svg">
<path d="M37.45 10.7752H40.528L46.3177 16.5936C46.2404 16.7504 46.2016 16.9234 46.2044 17.0984C46.2037 17.3402 46.2744 17.5769 46.4075 17.7784C46.5407 17.9799 46.7304 18.1371 46.9525 18.2302C47.1747 18.3232 47.4193 18.348 47.6554 18.3013C47.8916 18.2545 48.1086 18.1384 48.2791 17.9677C48.4495 17.7969 48.5657 17.5792 48.613 17.342C48.6602 17.1048 48.6363 16.8589 48.5444 16.6354C48.4525 16.4118 48.2966 16.2207 48.0965 16.0863C47.8965 15.9518 47.6612 15.8801 47.4205 15.8801C47.2396 15.8779 47.0605 15.9155 46.8956 15.9901L40.8528 9.91748H37.0761L35.0216 12.0125L36.03 12.2023L37.45 10.7752Z" fill="#26838D"/>
<mask id="mask0_34_79" style="mask-type:luminance" maskUnits="userSpaceOnUse" x="35" y="9" width="14" height="10">
<path d="M37.45 10.7752H40.528L46.3177 16.5936C46.2404 16.7504 46.2016 16.9234 46.2044 17.0984C46.2037 17.3402 46.2744 17.5769 46.4075 17.7784C46.5407 17.9799 46.7304 18.1371 46.9525 18.2302C47.1747 18.3232 47.4193 18.348 47.6554 18.3013C47.8916 18.2545 48.1086 18.1384 48.2791 17.9677C48.4495 17.7969 48.5657 17.5792 48.613 17.342C48.6602 17.1048 48.6363 16.8589 48.5444 16.6354C48.4525 16.4118 48.2966 16.2207 48.0965 16.0863C47.8965 15.9518 47.6612 15.8801 47.4205 15.8801C47.2396 15.8779 47.0605 15.9155 46.8956 15.9901L40.8528 9.91748H37.0761L35.0216 12.0125L36.03 12.2023L37.45 10.7752Z" fill="white"/>
</mask>
<g mask="url(#mask0_34_79)">
<path d="M35.0593 9.92886V18.3167H48.6555V9.92886H35.0593Z" fill="#26838D"/>
</g>
<path d="M49.3051 33.1414C49.3036 32.8921 49.226 32.6492 49.0829 32.4456C48.9397 32.242 48.7378 32.0875 48.5044 32.0028V23.3645L41.8574 16.6846H41.8046L43.8024 19.8196L47.666 23.7023V31.98C47.4588 32.0581 47.2768 32.1915 47.1394 32.3658C47.0021 32.5401 46.9147 32.7488 46.8866 32.9694C46.8586 33.1899 46.8909 33.414 46.9802 33.6174C47.0694 33.8209 47.2122 33.996 47.3932 34.124C47.5742 34.2519 47.7864 34.3278 48.0071 34.3435C48.2279 34.3591 48.4486 34.314 48.6457 34.2129C48.8428 34.1118 49.0087 33.9586 49.1255 33.7698C49.2424 33.581 49.3058 33.3638 49.3089 33.1414H49.3051Z" fill="#26838D"/>
<mask id="mask1_34_79" style="mask-type:luminance" maskUnits="userSpaceOnUse" x="41" y="16" width="9" height="19">
<path d="M49.3051 33.1414C49.3036 32.8921 49.226 32.6492 49.0829 32.4456C48.9397 32.242 48.7378 32.0875 48.5044 32.0028V23.3645L41.8574 16.6846H41.8046L43.8024 19.8196L47.666 23.7023V31.98C47.4588 32.0581 47.2768 32.1915 47.1394 32.3658C47.0021 32.5401 46.9147 32.7488 46.8866 32.9694C46.8586 33.1899 46.8909 33.414 46.9802 33.6174C47.0694 33.8209 47.2122 33.996 47.3932 34.124C47.5742 34.2519 47.7864 34.3278 48.0071 34.3435C48.2279 34.3591 48.4486 34.314 48.6457 34.2129C48.8428 34.1118 49.0087 33.9586 49.1255 33.7698C49.2424 33.581 49.3058 33.3638 49.3089 33.1414H49.3051Z" fill="white"/>
</mask>
<g mask="url(#mask1_34_79)">
<path d="M41.8008 16.6846V34.3635H49.3051V16.6846H41.8008Z" fill="#26838D"/>
</g>
<path d="M47.0278 7.57563C47.0278 7.33376 46.9564 7.09732 46.8226 6.89626C46.6888 6.69521 46.4986 6.53857 46.2762 6.44618C46.0538 6.35379 45.809 6.32981 45.573 6.37728C45.337 6.42474 45.1204 6.54152 44.9504 6.71281C44.7805 6.88411 44.665 7.10222 44.6185 7.33954C44.572 7.57686 44.5966 7.8227 44.6892 8.04595C44.7819 8.26919 44.9383 8.4598 45.1388 8.59363C45.3393 8.72746 45.5748 8.7985 45.8155 8.79775C45.9895 8.80059 46.1618 8.76155 46.3178 8.68389L50.5439 12.9499C50.4696 13.1157 50.4322 13.2957 50.4344 13.4775C50.4344 13.718 50.5051 13.9532 50.6376 14.1536C50.7701 14.354 50.9585 14.5106 51.1792 14.6038C51.3999 14.697 51.643 14.7227 51.8782 14.6777C52.1133 14.6326 52.33 14.5189 52.5011 14.3506C52.6722 14.1823 52.79 13.9671 52.8399 13.7318C52.8897 13.4965 52.8694 13.2516 52.7814 13.0279C52.6934 12.8042 52.5417 12.6115 52.3452 12.4741C52.1487 12.3367 51.9162 12.2606 51.6769 12.2554C51.5028 12.2525 51.3306 12.2915 51.1746 12.3692L46.9145 8.11078C46.9918 7.9459 47.0305 7.76545 47.0278 7.58322V7.57563Z" fill="#26838D"/>
<mask id="mask2_34_79" style="mask-type:luminance" maskUnits="userSpaceOnUse" x="44" y="6" width="9" height="9">
<path d="M47.0278 7.57563C47.0278 7.33376 46.9564 7.09732 46.8226 6.89626C46.6888 6.69521 46.4986 6.53857 46.2762 6.44618C46.0538 6.35379 45.809 6.32981 45.573 6.37728C45.337 6.42474 45.1204 6.54152 44.9504 6.71281C44.7805 6.88411 44.665 7.10222 44.6185 7.33954C44.572 7.57686 44.5966 7.8227 44.6892 8.04595C44.7819 8.26919 44.9383 8.4598 45.1388 8.59363C45.3393 8.72746 45.5748 8.7985 45.8155 8.79775C45.9895 8.80059 46.1618 8.76155 46.3178 8.68389L50.5439 12.9499C50.4696 13.1157 50.4322 13.2957 50.4344 13.4775C50.4344 13.718 50.5051 13.9532 50.6376 14.1536C50.7701 14.354 50.9585 14.5106 51.1792 14.6038C51.3999 14.697 51.643 14.7227 51.8782 14.6777C52.1133 14.6326 52.33 14.5189 52.5011 14.3506C52.6722 14.1823 52.79 13.9671 52.8399 13.7318C52.8897 13.4965 52.8694 13.2516 52.7814 13.0279C52.6934 12.8042 52.5417 12.6115 52.3452 12.4741C52.1487 12.3367 51.9162 12.2606 51.6769 12.2554C51.5028 12.2525 51.3306 12.2915 51.1746 12.3692L46.9145 8.11078C46.9918 7.9459 47.0305 7.76545 47.0278 7.58322V7.57563Z" fill="white"/>
</mask>
<g mask="url(#mask2_34_79)">
<path d="M44.5802 6.36514V14.715H52.8889V6.36514H44.5802Z" fill="#26838D"/>
</g>
<path d="M27.4417 14.434V12.8399L22.1921 7.57568H15.3601L13.3999 9.54929C13.2159 9.4481 13.0092 9.39584 12.7994 9.39747C12.5586 9.39748 12.3232 9.46935 12.123 9.60398C11.9229 9.7386 11.767 9.92992 11.6752 10.1537C11.5834 10.3774 11.5598 10.6235 11.6073 10.8608C11.6548 11.0981 11.7714 11.3158 11.9422 11.4865C12.1131 11.6571 12.3305 11.7729 12.5669 11.8191C12.8033 11.8654 13.048 11.8402 13.2701 11.7465C13.4922 11.6528 13.6816 11.495 13.8143 11.293C13.947 11.0911 14.017 10.854 14.0155 10.612C14.0104 10.4662 13.985 10.3218 13.94 10.1831L15.7151 8.39929H21.8409L26.6184 13.1777V13.8723L27.4417 14.434Z" fill="#26838D"/>
<mask id="mask3_34_79" style="mask-type:luminance" maskUnits="userSpaceOnUse" x="11" y="7" width="17" height="8">
<path d="M27.4417 14.434V12.8399L22.1921 7.57568H15.3601L13.3999 9.54929C13.2159 9.4481 13.0092 9.39584 12.7994 9.39747C12.5586 9.39748 12.3232 9.46935 12.123 9.60398C11.9229 9.7386 11.767 9.92992 11.6752 10.1537C11.5834 10.3774 11.5598 10.6235 11.6073 10.8608C11.6548 11.0981 11.7714 11.3158 11.9422 11.4865C12.1131 11.6571 12.3305 11.7729 12.5669 11.8191C12.8033 11.8654 13.048 11.8402 13.2701 11.7465C13.4922 11.6528 13.6816 11.495 13.8143 11.293C13.947 11.0911 14.017 10.854 14.0155 10.612C14.0104 10.4662 13.985 10.3218 13.94 10.1831L15.7151 8.39929H21.8409L26.6184 13.1777V13.8723L27.4417 14.434Z" fill="white"/>
</mask>
<g mask="url(#mask3_34_79)">
<path d="M11.568 7.57568V14.4454H27.4301V7.57568H11.568Z" fill="#26838D"/>
</g>
<path d="M18.3286 13.1017L19.5975 12.5932L19.2614 12.2554H17.5241L7.05134 22.7838V26.5792C6.79512 26.6527 6.5693 26.8072 6.40738 27.0198C6.24546 27.2324 6.15607 27.4918 6.15248 27.7596C6.15133 27.9796 6.20931 28.1959 6.32031 28.3856C6.43131 28.5752 6.59121 28.7313 6.78313 28.8372C6.97505 28.9431 7.19187 28.995 7.4107 28.9874C7.62953 28.9798 7.84225 28.9129 8.02641 28.7939C8.21056 28.6749 8.35933 28.5081 8.45699 28.3111C8.55466 28.1142 8.5976 27.8944 8.58128 27.675C8.56497 27.4555 8.49 27.2446 8.3643 27.0644C8.2386 26.8842 8.06682 26.7415 7.86711 26.6513V23.1368L17.8376 13.1169H18.3248L18.3286 13.1017Z" fill="#26838D"/>
<mask id="mask4_34_79" style="mask-type:luminance" maskUnits="userSpaceOnUse" x="6" y="12" width="14" height="17">
<path d="M18.3286 13.1017L19.5975 12.5932L19.2614 12.2554H17.5241L7.05134 22.7838V26.5792C6.79512 26.6527 6.5693 26.8072 6.40738 27.0198C6.24546 27.2324 6.15607 27.4918 6.15248 27.7596C6.15133 27.9796 6.20931 28.1959 6.32031 28.3856C6.43131 28.5752 6.59121 28.7313 6.78313 28.8372C6.97505 28.9431 7.19187 28.995 7.4107 28.9874C7.62953 28.9798 7.84225 28.9129 8.02641 28.7939C8.21056 28.6749 8.35933 28.5081 8.45699 28.3111C8.55466 28.1142 8.5976 27.8944 8.58128 27.675C8.56497 27.4555 8.49 27.2446 8.3643 27.0644C8.2386 26.8842 8.06682 26.7415 7.86711 26.6513V23.1368L17.8376 13.1169H18.3248L18.3286 13.1017Z" fill="white"/>
</mask>
<g mask="url(#mask4_34_79)">
<path d="M6.17163 12.2554V28.9779H19.5978V12.2554H6.17163Z" fill="#26838D"/>
</g>
<path d="M30.8218 8.55857C30.9815 8.55957 31.1398 8.52877 31.2875 8.46795C31.4353 8.40713 31.5696 8.31748 31.6826 8.2042C31.7957 8.09092 31.8853 7.95624 31.9463 7.80795C32.0073 7.65966 32.0384 7.5007 32.0379 7.34025C32.0387 7.15944 32 6.98065 31.9246 6.81648L33.3258 5.40839H36.5171C36.6023 5.6423 36.7563 5.84459 36.9587 5.98833C37.1611 6.13207 37.4023 6.21044 37.6501 6.21301C37.9716 6.21301 38.28 6.08465 38.5074 5.85617C38.7347 5.62769 38.8624 5.31781 38.8624 4.99469C38.8624 4.67157 38.7347 4.36169 38.5074 4.13321C38.28 3.90473 37.9716 3.77637 37.6501 3.77637C37.4023 3.77894 37.1611 3.85731 36.9587 4.00105C36.7563 4.1448 36.6023 4.34709 36.5171 4.58099H32.9859L31.3241 6.25097C31.1604 6.17674 30.9826 6.13918 30.803 6.1409C30.6393 6.13168 30.4755 6.15611 30.3216 6.2127C30.1677 6.26928 30.0269 6.35683 29.9078 6.46999C29.7887 6.58314 29.6939 6.71953 29.629 6.8708C29.5642 7.02206 29.5308 7.18503 29.5308 7.34974C29.5308 7.51444 29.5642 7.67741 29.629 7.82868C29.6939 7.97994 29.7887 8.11633 29.9078 8.22948C30.0269 8.34264 30.1677 8.43019 30.3216 8.48677C30.4755 8.54336 30.6393 8.56779 30.803 8.55857H30.8218Z" fill="#26838D"/>
<mask id="mask5_34_79" style="mask-type:luminance" maskUnits="userSpaceOnUse" x="29" y="3" width="10" height="6">
<path d="M30.8218 8.55857C30.9815 8.55957 31.1398 8.52877 31.2875 8.46795C31.4353 8.40713 31.5696 8.31748 31.6826 8.2042C31.7957 8.09092 31.8853 7.95624 31.9463 7.80795C32.0073 7.65966 32.0384 7.5007 32.0379 7.34025C32.0387 7.15944 32 6.98065 31.9246 6.81648L33.3258 5.40839H36.5171C36.6023 5.6423 36.7563 5.84459 36.9587 5.98833C37.1611 6.13207 37.4023 6.21044 37.6501 6.21301C37.9716 6.21301 38.28 6.08465 38.5074 5.85617C38.7347 5.62769 38.8624 5.31781 38.8624 4.99469C38.8624 4.67157 38.7347 4.36169 38.5074 4.13321C38.28 3.90473 37.9716 3.77637 37.6501 3.77637C37.4023 3.77894 37.1611 3.85731 36.9587 4.00105C36.7563 4.1448 36.6023 4.34709 36.5171 4.58099H32.9859L31.3241 6.25097C31.1604 6.17674 30.9826 6.13918 30.803 6.1409C30.6393 6.13168 30.4755 6.15611 30.3216 6.2127C30.1677 6.26928 30.0269 6.35683 29.9078 6.46999C29.7887 6.58314 29.6939 6.71953 29.629 6.8708C29.5642 7.02206 29.5308 7.18503 29.5308 7.34974C29.5308 7.51444 29.5642 7.67741 29.629 7.82868C29.6939 7.97994 29.7887 8.11633 29.9078 8.22948C30.0269 8.34264 30.1677 8.43019 30.3216 8.48677C30.4755 8.54336 30.6393 8.56779 30.803 8.55857H30.8218Z" fill="white"/>
</mask>
<g mask="url(#mask5_34_79)">
<path d="M29.5868 3.75739V8.55857H38.8661V3.75739H29.5868Z" fill="#26838D"/>
</g>
<path d="M21.7465 12.13L22.736 11.9213L20.7381 9.92871H16.9614L10.9187 16.0013C10.7545 15.9286 10.577 15.8911 10.3975 15.8913C10.1588 15.898 9.92743 15.9754 9.73236 16.1138C9.53729 16.2522 9.38723 16.4455 9.30102 16.6692C9.2148 16.893 9.19627 17.1374 9.24774 17.3717C9.29921 17.6061 9.41839 17.8199 9.59034 17.9864C9.76228 18.1529 9.97933 18.2647 10.2143 18.3077C10.4492 18.3507 10.6915 18.3231 10.9108 18.2282C11.1302 18.1333 11.3167 17.9755 11.4471 17.7745C11.5775 17.5734 11.646 17.3382 11.6438 17.0982C11.6467 16.9233 11.6078 16.7502 11.5305 16.5934L17.3089 10.7751H20.3907L21.7465 12.13Z" fill="#26838D"/>
<mask id="mask6_34_79" style="mask-type:luminance" maskUnits="userSpaceOnUse" x="9" y="9" width="14" height="10">
<path d="M21.7465 12.13L22.736 11.9213L20.7381 9.92871H16.9614L10.9187 16.0013C10.7545 15.9286 10.577 15.8911 10.3975 15.8913C10.1588 15.898 9.92743 15.9754 9.73236 16.1138C9.53729 16.2522 9.38723 16.4455 9.30102 16.6692C9.2148 16.893 9.19627 17.1374 9.24774 17.3717C9.29921 17.6061 9.41839 17.8199 9.59034 17.9864C9.76228 18.1529 9.97933 18.2647 10.2143 18.3077C10.4492 18.3507 10.6915 18.3231 10.9108 18.2282C11.1302 18.1333 11.3167 17.9755 11.4471 17.7745C11.5775 17.5734 11.646 17.3382 11.6438 17.0982C11.6467 16.9233 11.6078 16.7502 11.5305 16.5934L17.3089 10.7751H20.3907L21.7465 12.13Z" fill="white"/>
</mask>
<g mask="url(#mask6_34_79)">
<path d="M9.17773 9.92871V18.3165H22.7361V9.92871H9.17773Z" fill="#26838D"/>
</g>
<path d="M45.0488 11.8455C45.3591 11.8281 45.651 11.692 45.8646 11.465C46.0781 11.2381 46.1971 10.9376 46.1971 10.6253C46.1971 10.3129 46.0781 10.0125 45.8646 9.78553C45.651 9.55861 45.3591 9.42247 45.0488 9.40507C44.841 9.40632 44.6365 9.45704 44.4521 9.55309L42.4919 7.57568H35.6561L30.4103 12.8589V14.3201L31.2487 13.7204V13.2156L36.0111 8.42965H42.1558L43.9271 10.2135C43.8743 10.35 43.8499 10.496 43.8553 10.6424C43.8528 10.8007 43.8819 10.958 43.9409 11.1049C44 11.2518 44.0877 11.3853 44.199 11.4974C44.3103 11.6096 44.4428 11.6982 44.5888 11.758C44.7347 11.8178 44.8912 11.8476 45.0488 11.8455Z" fill="#26838D"/>
<mask id="mask7_34_79" style="mask-type:luminance" maskUnits="userSpaceOnUse" x="30" y="7" width="17" height="8">
<path d="M45.0488 11.8455C45.3591 11.8281 45.651 11.692 45.8646 11.465C46.0781 11.2381 46.1971 10.9376 46.1971 10.6253C46.1971 10.3129 46.0781 10.0125 45.8646 9.78553C45.651 9.55861 45.3591 9.42247 45.0488 9.40507C44.841 9.40632 44.6365 9.45704 44.4521 9.55309L42.4919 7.57568H35.6561L30.4103 12.8589V14.3201L31.2487 13.7204V13.2156L36.0111 8.42965H42.1558L43.9271 10.2135C43.8743 10.35 43.8499 10.496 43.8553 10.6424C43.8528 10.8007 43.8819 10.958 43.9409 11.1049C44 11.2518 44.0877 11.3853 44.199 11.4974C44.3103 11.6096 44.4428 11.6982 44.5888 11.758C44.7347 11.8178 44.8912 11.8476 45.0488 11.8455Z" fill="white"/>
</mask>
<g mask="url(#mask7_34_79)">
<path d="M30.3911 7.57568V14.3011H46.2533V7.57568H30.3911Z" fill="#26838D"/>
</g>
<path d="M16.0323 16.6846H15.9757L9.32867 23.3645V31.999C9.05895 32.096 8.83197 32.2856 8.68773 32.5343C8.5435 32.7831 8.49127 33.075 8.54025 33.3586C8.58924 33.6423 8.73629 33.8994 8.95549 34.0848C9.17469 34.2701 9.45197 34.3718 9.73844 34.3718C10.0249 34.3718 10.3022 34.2701 10.5214 34.0848C10.7406 33.8994 10.8876 33.6423 10.9366 33.3586C10.9856 33.075 10.9334 32.7831 10.7891 32.5343C10.6449 32.2856 10.4179 32.096 10.1482 31.999V23.7212L14.0156 19.8385L16.0323 16.6846Z" fill="#26838D"/>
<mask id="mask8_34_79" style="mask-type:luminance" maskUnits="userSpaceOnUse" x="8" y="16" width="9" height="19">
<path d="M16.0323 16.6846H15.9757L9.32867 23.3645V31.999C9.05895 32.096 8.83197 32.2856 8.68773 32.5343C8.5435 32.7831 8.49127 33.075 8.54025 33.3586C8.58924 33.6423 8.73629 33.8994 8.95549 34.0848C9.17469 34.2701 9.45197 34.3718 9.73844 34.3718C10.0249 34.3718 10.3022 34.2701 10.5214 34.0848C10.7406 33.8994 10.8876 33.6423 10.9366 33.3586C10.9856 33.075 10.9334 32.7831 10.7891 32.5343C10.6449 32.2856 10.4179 32.096 10.1482 31.999V23.7212L14.0156 19.8385L16.0323 16.6846Z" fill="white"/>
</mask>
<g mask="url(#mask8_34_79)">
<path d="M8.52454 16.6846V34.3635H16.0326V16.6846H8.52454Z" fill="#26838D"/>
</g>
<path d="M49.2296 27.7368C49.2304 27.9646 49.2945 28.1877 49.4148 28.3808C49.535 28.5739 49.7066 28.7294 49.9101 28.8297C50.1137 28.93 50.341 28.9712 50.5666 28.9485C50.7921 28.9258 51.0069 28.8403 51.1867 28.7015C51.3664 28.5627 51.504 28.3761 51.5838 28.1629C51.6637 27.9497 51.6826 27.7183 51.6386 27.4949C51.5945 27.2714 51.4891 27.0648 51.3344 26.8983C51.1797 26.7318 50.9817 26.6121 50.7629 26.5526V22.7572L40.3052 12.2554H38.5679L38.2318 12.5932L39.5197 13.1017H39.9691L49.9396 23.1368V26.6475C49.7271 26.7421 49.5467 26.8971 49.4205 27.0933C49.2944 27.2895 49.228 27.5184 49.2296 27.752V27.7368Z" fill="#26838D"/>
<mask id="mask9_34_79" style="mask-type:luminance" maskUnits="userSpaceOnUse" x="38" y="12" width="14" height="17">
<path d="M49.2296 27.7368C49.2304 27.9646 49.2945 28.1877 49.4148 28.3808C49.535 28.5739 49.7066 28.7294 49.9101 28.8297C50.1137 28.93 50.341 28.9712 50.5666 28.9485C50.7921 28.9258 51.0069 28.8403 51.1867 28.7015C51.3664 28.5627 51.504 28.3761 51.5838 28.1629C51.6637 27.9497 51.6826 27.7183 51.6386 27.4949C51.5945 27.2714 51.4891 27.0648 51.3344 26.8983C51.1797 26.7318 50.9817 26.6121 50.7629 26.5526V22.7572L40.3052 12.2554H38.5679L38.2318 12.5932L39.5197 13.1017H39.9691L49.9396 23.1368V26.6475C49.7271 26.7421 49.5467 26.8971 49.4205 27.0933C49.2944 27.2895 49.228 27.5184 49.2296 27.752V27.7368Z" fill="white"/>
</mask>
<g mask="url(#mask9_34_79)">
<path d="M38.2126 12.2554V28.9779H51.6766V12.2554H38.2126Z" fill="#26838D"/>
</g>
<path d="M13.1205 32.109L12.2783 31.2095V35.6956L11.5683 36.4206C11.4259 36.3649 11.2752 36.3341 11.1226 36.3295C10.8828 36.3295 10.6484 36.4009 10.4491 36.5348C10.2497 36.6687 10.0943 36.8589 10.0026 37.0816C9.9108 37.3042 9.8868 37.5491 9.93357 37.7855C9.98035 38.0218 10.0958 38.2389 10.2654 38.4093C10.4349 38.5797 10.6509 38.6957 10.8861 38.7427C11.1213 38.7897 11.365 38.7656 11.5865 38.6734C11.8081 38.5812 11.9974 38.425 12.1306 38.2247C12.2638 38.0243 12.3349 37.7888 12.3349 37.5478C12.3318 37.3448 12.28 37.1456 12.1839 36.9671L13.1016 36.041V32.109H13.1205Z" fill="#26838D"/>
<mask id="mask10_34_79" style="mask-type:luminance" maskUnits="userSpaceOnUse" x="9" y="31" width="5" height="8">
<path d="M13.1205 32.109L12.2783 31.2095V35.6956L11.5683 36.4206C11.4259 36.3649 11.2752 36.3341 11.1226 36.3295C10.8828 36.3295 10.6484 36.4009 10.4491 36.5348C10.2497 36.6687 10.0943 36.8589 10.0026 37.0816C9.9108 37.3042 9.8868 37.5491 9.93357 37.7855C9.98035 38.0218 10.0958 38.2389 10.2654 38.4093C10.4349 38.5797 10.6509 38.6957 10.8861 38.7427C11.1213 38.7897 11.365 38.7656 11.5865 38.6734C11.8081 38.5812 11.9974 38.425 12.1306 38.2247C12.2638 38.0243 12.3349 37.7888 12.3349 37.5478C12.3318 37.3448 12.28 37.1456 12.1839 36.9671L13.1016 36.041V32.109H13.1205Z" fill="white"/>
</mask>
<g mask="url(#mask10_34_79)">
<path d="M9.90649 31.2095V38.7699H13.1205V31.2095H9.90649Z" fill="#26838D"/>
</g>
<path d="M49.1956 14.3769C49.2698 14.2124 49.3072 14.0336 49.3051 13.8531C49.3059 13.6111 49.2351 13.3743 49.1017 13.1727C48.9684 12.9712 48.7785 12.8139 48.5561 12.721C48.3338 12.628 48.089 12.6035 47.8527 12.6505C47.6164 12.6975 47.3994 12.814 47.2291 12.9851C47.0588 13.1563 46.9429 13.3744 46.8961 13.6118C46.8493 13.8492 46.8737 14.0953 46.9662 14.3188C47.0587 14.5422 47.2152 14.733 47.4157 14.867C47.6163 15.001 47.852 15.0722 48.0928 15.0714C48.2727 15.0722 48.4506 15.0333 48.614 14.9576L52.2018 18.5632V18.9427C51.9321 19.0397 51.7051 19.2293 51.5609 19.4781C51.4167 19.7268 51.3644 20.0187 51.4134 20.3024C51.4624 20.586 51.6095 20.8432 51.8287 21.0285C52.0479 21.2139 52.3251 21.3155 52.6116 21.3155C52.8981 21.3155 53.1754 21.2139 53.3946 21.0285C53.6138 20.8432 53.7608 20.586 53.8098 20.3024C53.8588 20.0187 53.8066 19.7268 53.6623 19.4781C53.5181 19.2293 53.2911 19.0397 53.0214 18.9427V18.2254L49.1956 14.3769Z" fill="#26838D"/>
<mask id="mask11_34_79" style="mask-type:luminance" maskUnits="userSpaceOnUse" x="46" y="12" width="8" height="10">
<path d="M49.1956 14.3769C49.2698 14.2124 49.3072 14.0336 49.3051 13.8531C49.3059 13.6111 49.2351 13.3743 49.1017 13.1727C48.9684 12.9712 48.7785 12.8139 48.5561 12.721C48.3338 12.628 48.089 12.6035 47.8527 12.6505C47.6164 12.6975 47.3994 12.814 47.2291 12.9851C47.0588 13.1563 46.9429 13.3744 46.8961 13.6118C46.8493 13.8492 46.8737 14.0953 46.9662 14.3188C47.0587 14.5422 47.2152 14.733 47.4157 14.867C47.6163 15.001 47.852 15.0722 48.0928 15.0714C48.2727 15.0722 48.4506 15.0333 48.614 14.9576L52.2018 18.5632V18.9427C51.9321 19.0397 51.7051 19.2293 51.5609 19.4781C51.4167 19.7268 51.3644 20.0187 51.4134 20.3024C51.4624 20.586 51.6095 20.8432 51.8287 21.0285C52.0479 21.2139 52.3251 21.3155 52.6116 21.3155C52.8981 21.3155 53.1754 21.2139 53.3946 21.0285C53.6138 20.8432 53.7608 20.586 53.8098 20.3024C53.8588 20.0187 53.8066 19.7268 53.6623 19.4781C53.5181 19.2293 53.2911 19.0397 53.0214 18.9427V18.2254L49.1956 14.3769Z" fill="white"/>
</mask>
<g mask="url(#mask11_34_79)">
<path d="M46.8616 12.631V21.3376H53.8069V12.631H46.8616Z" fill="#26838D"/>
</g>
<path d="M40.0257 44.0115L39.1835 44.892V49.4465L38.8474 49.7843C38.6846 49.7067 38.5063 49.6677 38.3262 49.6704C38.0854 49.6697 37.8497 49.7408 37.6491 49.8748C37.4486 50.0088 37.2921 50.1996 37.1996 50.4231C37.1071 50.6466 37.0827 50.8926 37.1295 51.13C37.1763 51.3674 37.2922 51.5856 37.4625 51.7567C37.6328 51.9278 37.8498 52.0443 38.0861 52.0913C38.3223 52.1384 38.5672 52.1139 38.7895 52.0209C39.0119 51.9279 39.2018 51.7707 39.3351 51.5691C39.4685 51.3676 39.5393 51.1308 39.5385 50.8887C39.5425 50.7141 39.505 50.541 39.429 50.3839L40.0257 49.7843V44.0115Z" fill="#26838D"/>
<mask id="mask12_34_79" style="mask-type:luminance" maskUnits="userSpaceOnUse" x="37" y="44" width="4" height="9">
<path d="M40.0257 44.0115L39.1835 44.892V49.4465L38.8474 49.7843C38.6846 49.7067 38.5063 49.6677 38.3262 49.6704C38.0854 49.6697 37.8497 49.7408 37.6491 49.8748C37.4486 50.0088 37.2921 50.1996 37.1996 50.4231C37.1071 50.6466 37.0827 50.8926 37.1295 51.13C37.1763 51.3674 37.2922 51.5856 37.4625 51.7567C37.6328 51.9278 37.8498 52.0443 38.0861 52.0913C38.3223 52.1384 38.5672 52.1139 38.7895 52.0209C39.0119 51.9279 39.2018 51.7707 39.3351 51.5691C39.4685 51.3676 39.5393 51.1308 39.5385 50.8887C39.5425 50.7141 39.505 50.541 39.429 50.3839L40.0257 49.7843V44.0115Z" fill="white"/>
</mask>
<g mask="url(#mask12_34_79)">
<path d="M37.1141 44.0115V52.1336H40.026V44.0115H37.1141Z" fill="#26838D"/>
</g>
<path d="M46.7105 38.77C47.032 38.77 47.3404 38.6416 47.5678 38.4131C47.7951 38.1847 47.9228 37.8748 47.9228 37.5517C47.9228 37.2285 47.7951 36.9186 47.5678 36.6902C47.3404 36.4617 47.032 36.3333 46.7105 36.3333C46.5563 36.3341 46.4036 36.3651 46.2611 36.4244L45.5511 35.7147V31.2285L44.7126 32.128V36.0676L45.6342 36.9899C45.5344 37.1668 45.4835 37.3673 45.4869 37.5706C45.4976 37.8905 45.6309 38.1939 45.8589 38.4174C46.0869 38.6409 46.392 38.7672 46.7105 38.77Z" fill="#26838D"/>
<mask id="mask13_34_79" style="mask-type:luminance" maskUnits="userSpaceOnUse" x="44" y="31" width="4" height="8">
<path d="M46.7105 38.77C47.032 38.77 47.3404 38.6416 47.5678 38.4131C47.7951 38.1847 47.9228 37.8748 47.9228 37.5517C47.9228 37.2285 47.7951 36.9186 47.5678 36.6902C47.3404 36.4617 47.032 36.3333 46.7105 36.3333C46.5563 36.3341 46.4036 36.3651 46.2611 36.4244L45.5511 35.7147V31.2285L44.7126 32.128V36.0676L45.6342 36.9899C45.5344 37.1668 45.4835 37.3673 45.4869 37.5706C45.4976 37.8905 45.6309 38.1939 45.8589 38.4174C46.0869 38.6409 46.392 38.7672 46.7105 38.77Z" fill="white"/>
</mask>
<g mask="url(#mask13_34_79)">
<path d="M44.7126 31.2095V38.77H47.9228V31.2095H44.7126Z" fill="#26838D"/>
</g>
<path d="M33.6583 24.9433C33.7237 25.0655 33.8158 25.1713 33.9276 25.2528C34.0394 25.3343 34.1681 25.3894 34.3041 25.4139C34.4346 25.4407 34.5693 25.4398 34.6994 25.411C34.8295 25.3822 34.9522 25.3263 35.0594 25.2469L38.2318 22.8254L32.9445 23.6149L33.6583 24.9433Z" fill="#26838D"/>
<mask id="mask14_34_79" style="mask-type:luminance" maskUnits="userSpaceOnUse" x="32" y="22" width="7" height="4">
<path d="M33.6583 24.9433C33.7237 25.0655 33.8158 25.1713 33.9276 25.2528C34.0394 25.3343 34.1681 25.3894 34.3041 25.4139C34.4346 25.4407 34.5693 25.4398 34.6994 25.411C34.8295 25.3822 34.9522 25.3263 35.0594 25.2469L38.2318 22.8254L32.9445 23.6149L33.6583 24.9433Z" fill="white"/>
</mask>
<g mask="url(#mask14_34_79)">
<path d="M32.9291 22.8216V25.4783H38.2165V22.8216H32.9291Z" fill="#26838D"/>
</g>
<path d="M22.7737 25.2242C22.8825 25.3046 23.0069 25.3609 23.1389 25.3895C23.2709 25.418 23.4074 25.4181 23.5394 25.3898C23.6715 25.3615 23.796 25.3053 23.9049 25.2251C24.0138 25.1449 24.1045 25.0424 24.1711 24.9244L24.9264 23.5922L19.639 22.8027L22.7737 25.2242Z" fill="#26838D"/>
<mask id="mask15_34_79" style="mask-type:luminance" maskUnits="userSpaceOnUse" x="19" y="22" width="6" height="4">
<path d="M22.7737 25.2242C22.8825 25.3046 23.0069 25.3609 23.1389 25.3895C23.2709 25.418 23.4074 25.4181 23.5394 25.3898C23.6715 25.3615 23.796 25.3053 23.9049 25.2251C24.0138 25.1449 24.1045 25.0424 24.1711 24.9244L24.9264 23.5922L19.639 22.8027L22.7737 25.2242Z" fill="white"/>
</mask>
<g mask="url(#mask15_34_79)">
<path d="M19.5975 22.8217V25.4785H24.8849V22.8217H19.5975Z" fill="#26838D"/>
</g>
<path d="M45.7021 29.1828L42.3975 24.6283L43.5003 21.7362L38.549 13.9443L34.1983 13.1396L28.9109 16.935L23.2005 13.1586L19.2992 13.9633L14.3517 21.7514L15.4545 24.6549L12.1461 29.2094L17.3957 34.8L16.2929 40.5804L19.877 44.353L20.2887 44.5959L27.9818 38.7358L28.5974 34.9822L25.1984 32.7467L23.2949 30.7275L28.9147 32.7543L34.5344 30.7275L32.6121 32.7543L29.213 34.9898L29.8286 38.7434L37.5218 44.5959L37.9334 44.353L41.4835 40.6183L40.4185 34.8L45.6832 29.1904L45.7021 29.1828ZM40.6036 40.3109L37.5595 43.518L30.6331 38.2462L30.1497 35.3769L33.171 33.4033L37.7031 28.678L28.9147 31.8661L20.1754 28.6932L24.6583 33.3843L24.6961 33.4223L27.6835 35.3959L27.2152 38.2652L20.2887 43.537L17.2069 40.2919L18.3097 34.5229L13.23 29.1069L16.3874 24.7536L15.2846 21.8273L19.8166 14.7147L23.0306 14.0581L28.9336 17.9788L34.4249 14.0581L38.0467 14.7337L42.5788 21.8463L41.4798 24.7725L44.6333 29.1259L39.5574 34.5229L40.6036 40.3223V40.3109Z" fill="#26838D"/>
<mask id="mask16_34_79" style="mask-type:luminance" maskUnits="userSpaceOnUse" x="12" y="13" width="34" height="32">
<path d="M45.7021 29.1828L42.3975 24.6283L43.5003 21.7362L38.549 13.9443L34.1983 13.1396L28.9109 16.935L23.2005 13.1586L19.2992 13.9633L14.3517 21.7514L15.4545 24.6549L12.1461 29.2094L17.3957 34.8L16.2929 40.5804L19.877 44.353L20.2887 44.5959L27.9818 38.7358L28.5974 34.9822L25.1984 32.7467L23.2949 30.7275L28.9147 32.7543L34.5344 30.7275L32.6121 32.7543L29.213 34.9898L29.8286 38.7434L37.5218 44.5959L37.9334 44.353L41.4835 40.6183L40.4185 34.8L45.6832 29.1904L45.7021 29.1828ZM40.6036 40.3109L37.5595 43.518L30.6331 38.2462L30.1497 35.3769L33.171 33.4033L37.7031 28.678L28.9147 31.8661L20.1754 28.6932L24.6583 33.3843L24.6961 33.4223L27.6835 35.3959L27.2152 38.2652L20.2887 43.537L17.2069 40.2919L18.3097 34.5229L13.23 29.1069L16.3874 24.7536L15.2846 21.8273L19.8166 14.7147L23.0306 14.0581L28.9336 17.9788L34.4249 14.0581L38.0467 14.7337L42.5788 21.8463L41.4798 24.7725L44.6333 29.1259L39.5574 34.5229L40.6036 40.3223V40.3109Z" fill="white"/>
</mask>
<g mask="url(#mask16_34_79)">
<path d="M12.1271 13.1586V44.5883H45.7397V13.1586H12.1271Z" fill="#26838D"/>
</g>
<path d="M17.8036 44.0115V49.7919L18.4041 50.3915C18.3283 50.5488 18.2895 50.7216 18.2908 50.8963C18.29 51.1384 18.3608 51.3752 18.4942 51.5767C18.6275 51.7783 18.8174 51.9355 19.0398 52.0285C19.2621 52.1214 19.5069 52.146 19.7432 52.0989C19.9795 52.0519 20.1965 51.9354 20.3668 51.7643C20.5371 51.5931 20.653 51.375 20.6998 51.1376C20.7466 50.9002 20.7222 50.6542 20.6297 50.4307C20.5372 50.2072 20.3807 50.0164 20.1801 49.8824C19.9796 49.7484 19.7439 49.6773 19.5031 49.678C19.3232 49.6772 19.1453 49.7161 18.9819 49.7919L18.6458 49.4541V44.8996L17.8036 44.0115Z" fill="#26838D"/>
<mask id="mask17_34_79" style="mask-type:luminance" maskUnits="userSpaceOnUse" x="17" y="44" width="4" height="9">
<path d="M17.8036 44.0115V49.7919L18.4041 50.3915C18.3283 50.5488 18.2895 50.7216 18.2908 50.8963C18.29 51.1384 18.3608 51.3752 18.4942 51.5767C18.6275 51.7783 18.8174 51.9355 19.0398 52.0285C19.2621 52.1214 19.5069 52.146 19.7432 52.0989C19.9795 52.0519 20.1965 51.9354 20.3668 51.7643C20.5371 51.5931 20.653 51.375 20.6998 51.1376C20.7466 50.9002 20.7222 50.6542 20.6297 50.4307C20.5372 50.2072 20.3807 50.0164 20.1801 49.8824C19.9796 49.7484 19.7439 49.6773 19.5031 49.678C19.3232 49.6772 19.1453 49.7161 18.9819 49.7919L18.6458 49.4541V44.8996L17.8036 44.0115Z" fill="white"/>
</mask>
<g mask="url(#mask17_34_79)">
<path d="M17.8036 44.0115V52.1336H20.7079V44.0115H17.8036Z" fill="#26838D"/>
</g>
<path d="M33.3032 50.3118L36.7589 44.8503L29.3641 40.7057L28.9147 40.459L28.469 40.7057L21.0856 44.8503L24.5375 50.3118L25.3419 48.8658L28.926 52.2437L32.5139 48.8658L33.3032 50.3118ZM25.1266 47.4957L24.4884 48.6343L22.2677 45.1501L28.9147 41.4192L35.5617 45.1501L33.341 48.6419L32.7065 47.5032L28.9298 51.0709L25.1266 47.4957Z" fill="#26838D"/>
<mask id="mask18_34_79" style="mask-type:luminance" maskUnits="userSpaceOnUse" x="21" y="40" width="16" height="13">
<path d="M33.3032 50.3118L36.7589 44.8503L29.3641 40.7057L28.9147 40.459L28.469 40.7057L21.0856 44.8503L24.5375 50.3118L25.3419 48.8658L28.926 52.2437L32.5139 48.8658L33.3032 50.3118ZM25.1266 47.4957L24.4884 48.6343L22.2677 45.1501L28.9147 41.4192L35.5617 45.1501L33.341 48.6419L32.7065 47.5032L28.9298 51.0709L25.1266 47.4957Z" fill="white"/>
</mask>
<g mask="url(#mask18_34_79)">
<path d="M21.0856 40.44V52.2437H36.7589V40.44H21.0856Z" fill="#26838D"/>
</g>
<path d="M36.6644 2.44422C36.9127 2.44137 37.1542 2.36244 37.3567 2.21798C37.5591 2.07352 37.7129 1.87042 37.7975 1.6358H43.9761L48.1041 5.78417C48.0283 5.94147 47.9895 6.11419 47.9908 6.28896C47.99 6.531 48.0608 6.7678 48.1941 6.96936C48.3275 7.17092 48.5174 7.32815 48.7397 7.42112C48.9621 7.51409 49.2069 7.53861 49.4432 7.49157C49.6794 7.44454 49.8965 7.32806 50.0668 7.15692C50.2371 6.98578 50.353 6.76767 50.3998 6.53025C50.4466 6.29283 50.4222 6.04679 50.3297 5.82332C50.2372 5.59985 50.0807 5.40902 49.8801 5.27502C49.6796 5.14102 49.4439 5.06989 49.2031 5.07064C49.0232 5.07035 48.8454 5.1092 48.6819 5.1845L44.3198 0.793225H37.7861C37.7081 0.584104 37.5746 0.400455 37.4001 0.262228C37.2255 0.124001 37.0166 0.0364797 36.7961 0.00917164C36.5755 -0.0181365 36.3517 0.0158124 36.149 0.107331C35.9463 0.198849 35.7724 0.344437 35.6463 0.528282C35.5201 0.712127 35.4465 0.927199 35.4334 1.15014C35.4203 1.37308 35.4682 1.59536 35.572 1.79284C35.6758 1.99031 35.8314 2.15544 36.022 2.27028C36.2126 2.38512 36.4309 2.44528 36.6531 2.44422H36.6644Z" fill="#26838D"/>
<mask id="mask19_34_79" style="mask-type:luminance" maskUnits="userSpaceOnUse" x="35" y="0" width="16" height="8">
<path d="M36.6644 2.44422C36.9127 2.44137 37.1542 2.36244 37.3567 2.21798C37.5591 2.07352 37.7129 1.87042 37.7975 1.6358H43.9761L48.1041 5.78417C48.0283 5.94147 47.9895 6.11419 47.9908 6.28896C47.99 6.531 48.0608 6.7678 48.1941 6.96936C48.3275 7.17092 48.5174 7.32815 48.7397 7.42112C48.9621 7.51409 49.2069 7.53861 49.4432 7.49157C49.6794 7.44454 49.8965 7.32806 50.0668 7.15692C50.2371 6.98578 50.353 6.76767 50.3998 6.53025C50.4466 6.29283 50.4222 6.04679 50.3297 5.82332C50.2372 5.59985 50.0807 5.40902 49.8801 5.27502C49.6796 5.14102 49.4439 5.06989 49.2031 5.07064C49.0232 5.07035 48.8454 5.1092 48.6819 5.1845L44.3198 0.793225H37.7861C37.7081 0.584104 37.5746 0.400455 37.4001 0.262228C37.2255 0.124001 37.0166 0.0364797 36.7961 0.00917164C36.5755 -0.0181365 36.3517 0.0158124 36.149 0.107331C35.9463 0.198849 35.7724 0.344437 35.6463 0.528282C35.5201 0.712127 35.4465 0.927199 35.4334 1.15014C35.4203 1.37308 35.4682 1.59536 35.572 1.79284C35.6758 1.99031 35.8314 2.15544 36.022 2.27028C36.2126 2.38512 36.4309 2.44528 36.6531 2.44422H36.6644Z" fill="white"/>
</mask>
<g mask="url(#mask19_34_79)">
<path d="M35.4373 0.00393677V7.53021H50.4308V0.00393677H35.4373Z" fill="#26838D"/>
</g>
<path d="M36.5134 62.6089V58.4339L32.3137 54.2135L34.304 52.2247C34.5376 52.3519 34.8063 52.3985 35.0688 52.3574C35.3313 52.3162 35.573 52.1895 35.7569 51.9968C35.9408 51.8041 36.0566 51.556 36.0865 51.2907C36.1164 51.0254 36.0587 50.7576 35.9224 50.5284C35.7861 50.2993 35.5786 50.1215 35.3319 50.0224C35.0852 49.9233 34.8129 49.9083 34.557 49.9799C34.301 50.0514 34.0755 50.2055 33.9152 50.4184C33.7549 50.6312 33.6685 50.8912 33.6695 51.1582C33.6763 51.31 33.7016 51.4604 33.7451 51.606L31.1316 54.2324L35.675 58.8135V62.6089C35.4659 62.6847 35.2817 62.8168 35.1423 62.9908C35.003 63.1647 34.9139 63.3738 34.8848 63.5952C34.8557 63.8166 34.8877 64.0418 34.9773 64.2462C35.0669 64.4505 35.2107 64.6262 35.393 64.754C35.5752 64.8818 35.7889 64.9567 36.0107 64.9707C36.2325 64.9847 36.4538 64.9372 36.6506 64.8333C36.8473 64.7294 37.0118 64.5732 37.1262 64.3817C37.2405 64.1902 37.3003 63.9708 37.2989 63.7475C37.3024 63.4991 37.2286 63.2558 37.0877 63.0517C36.9469 62.8475 36.7461 62.6927 36.5134 62.6089Z" fill="#26838D"/>
<mask id="mask20_34_79" style="mask-type:luminance" maskUnits="userSpaceOnUse" x="31" y="49" width="7" height="16">
<path d="M36.5134 62.6089V58.4339L32.3137 54.2135L34.304 52.2247C34.5376 52.3519 34.8063 52.3985 35.0688 52.3574C35.3313 52.3162 35.573 52.1895 35.7569 51.9968C35.9408 51.8041 36.0566 51.556 36.0865 51.2907C36.1164 51.0254 36.0587 50.7576 35.9224 50.5284C35.7861 50.2993 35.5786 50.1215 35.3319 50.0224C35.0852 49.9233 34.8129 49.9083 34.557 49.9799C34.301 50.0514 34.0755 50.2055 33.9152 50.4184C33.7549 50.6312 33.6685 50.8912 33.6695 51.1582C33.6763 51.31 33.7016 51.4604 33.7451 51.606L31.1316 54.2324L35.675 58.8135V62.6089C35.4659 62.6847 35.2817 62.8168 35.1423 62.9908C35.003 63.1647 34.9139 63.3738 34.8848 63.5952C34.8557 63.8166 34.8877 64.0418 34.9773 64.2462C35.0669 64.4505 35.2107 64.6262 35.393 64.754C35.5752 64.8818 35.7889 64.9567 36.0107 64.9707C36.2325 64.9847 36.4538 64.9372 36.6506 64.8333C36.8473 64.7294 37.0118 64.5732 37.1262 64.3817C37.2405 64.1902 37.3003 63.9708 37.2989 63.7475C37.3024 63.4991 37.2286 63.2558 37.0877 63.0517C36.9469 62.8475 36.7461 62.6927 36.5134 62.6089Z" fill="white"/>
</mask>
<g mask="url(#mask20_34_79)">
<path d="M31.1392 49.9171V64.9317H37.3254V49.9171H31.1392Z" fill="#26838D"/>
</g>
<path d="M20.1754 3.75746C19.9532 3.75612 19.7349 3.81619 19.5443 3.9311C19.3538 4.04601 19.1983 4.21135 19.095 4.40904C18.9916 4.60674 18.9443 4.82918 18.9582 5.05207C18.9721 5.27495 19.0467 5.48971 19.1739 5.67286C19.301 5.85601 19.4758 6.00052 19.6792 6.0906C19.8825 6.18067 20.1066 6.21284 20.3269 6.18359C20.5472 6.15434 20.7553 6.0648 20.9284 5.92475C21.1015 5.7847 21.233 5.59953 21.3084 5.38948H24.4997L25.9273 6.81655C25.8513 6.98036 25.8138 7.15959 25.8178 7.34031C25.8178 7.58128 25.8889 7.81683 26.0221 8.01718C26.1553 8.21753 26.3447 8.37369 26.5662 8.4659C26.7877 8.55811 27.0315 8.58224 27.2666 8.53523C27.5018 8.48822 27.7178 8.37218 27.8874 8.2018C28.0569 8.03141 28.1724 7.81433 28.2191 7.578C28.2659 7.34167 28.2419 7.0967 28.1502 6.87408C28.0584 6.65146 27.903 6.46119 27.7036 6.32732C27.5043 6.19344 27.2699 6.12199 27.0301 6.12199C26.8494 6.12181 26.6707 6.15929 26.5052 6.23206L24.8623 4.53931H21.316C21.2269 4.30955 21.0713 4.11189 20.8694 3.97185C20.6674 3.8318 20.4283 3.75581 20.183 3.75366L20.1754 3.75746Z" fill="#26838D"/>
<mask id="mask21_34_79" style="mask-type:luminance" maskUnits="userSpaceOnUse" x="18" y="3" width="11" height="6">
<path d="M20.1754 3.75746C19.9532 3.75612 19.7349 3.81619 19.5443 3.9311C19.3538 4.04601 19.1983 4.21135 19.095 4.40904C18.9916 4.60674 18.9443 4.82918 18.9582 5.05207C18.9721 5.27495 19.0467 5.48971 19.1739 5.67286C19.301 5.85601 19.4758 6.00052 19.6792 6.0906C19.8825 6.18067 20.1066 6.21284 20.3269 6.18359C20.5472 6.15434 20.7553 6.0648 20.9284 5.92475C21.1015 5.7847 21.233 5.59953 21.3084 5.38948H24.4997L25.9273 6.81655C25.8513 6.98036 25.8138 7.15959 25.8178 7.34031C25.8178 7.58128 25.8889 7.81683 26.0221 8.01718C26.1553 8.21753 26.3447 8.37369 26.5662 8.4659C26.7877 8.55811 27.0315 8.58224 27.2666 8.53523C27.5018 8.48822 27.7178 8.37218 27.8874 8.2018C28.0569 8.03141 28.1724 7.81433 28.2191 7.578C28.2659 7.34167 28.2419 7.0967 28.1502 6.87408C28.0584 6.65146 27.903 6.46119 27.7036 6.32732C27.5043 6.19344 27.2699 6.12199 27.0301 6.12199C26.8494 6.12181 26.6707 6.15929 26.5052 6.23206L24.8623 4.53931H21.316C21.2269 4.30955 21.0713 4.11189 20.8694 3.97185C20.6674 3.8318 20.4283 3.75581 20.183 3.75366L20.1754 3.75746Z" fill="white"/>
</mask>
<g mask="url(#mask21_34_79)">
<path d="M18.9442 3.75745V8.55863H28.2236V3.75745H18.9442Z" fill="#26838D"/>
</g>
<path d="M40.6413 58.286V57.1816L37.8579 54.3844C37.9389 54.2146 37.9839 54.0298 37.9901 53.8416C37.9908 53.5996 37.92 53.3628 37.7867 53.1612C37.6533 52.9597 37.4634 52.8024 37.2411 52.7095C37.0187 52.6165 36.7739 52.592 36.5376 52.639C36.3014 52.6861 36.0843 52.8025 35.914 52.9737C35.7437 53.1448 35.6278 53.3629 35.581 53.6003C35.5342 53.8378 35.5586 54.0838 35.6512 54.3073C35.7437 54.5307 35.9001 54.7216 36.1007 54.8556C36.3012 54.9896 36.5369 55.0607 36.7777 55.06C36.9432 55.0578 37.107 55.0257 37.2611 54.9651L39.8218 57.5383V58.2974C39.6127 58.3733 39.4285 58.5054 39.2891 58.6793C39.1498 58.8533 39.0607 59.0624 39.0316 59.2838C39.0025 59.5052 39.0345 59.7304 39.1241 59.9347C39.2137 60.1391 39.3575 60.3148 39.5398 60.4425C39.722 60.5703 39.9357 60.6453 40.1575 60.6593C40.3793 60.6733 40.6006 60.6257 40.7974 60.5218C40.9941 60.418 41.1586 60.2617 41.2729 60.0703C41.3873 59.8788 41.4471 59.6594 41.4457 59.436C41.442 59.1854 41.3633 58.9416 41.2198 58.7365C41.0764 58.5314 40.8748 58.3744 40.6413 58.286Z" fill="#26838D"/>
<mask id="mask22_34_79" style="mask-type:luminance" maskUnits="userSpaceOnUse" x="35" y="52" width="7" height="9">
<path d="M40.6413 58.286V57.1816L37.8579 54.3844C37.9389 54.2146 37.9839 54.0298 37.9901 53.8416C37.9908 53.5996 37.92 53.3628 37.7867 53.1612C37.6533 52.9597 37.4634 52.8024 37.2411 52.7095C37.0187 52.6165 36.7739 52.592 36.5376 52.639C36.3014 52.6861 36.0843 52.8025 35.914 52.9737C35.7437 53.1448 35.6278 53.3629 35.581 53.6003C35.5342 53.8378 35.5586 54.0838 35.6512 54.3073C35.7437 54.5307 35.9001 54.7216 36.1007 54.8556C36.3012 54.9896 36.5369 55.0607 36.7777 55.06C36.9432 55.0578 37.107 55.0257 37.2611 54.9651L39.8218 57.5383V58.2974C39.6127 58.3733 39.4285 58.5054 39.2891 58.6793C39.1498 58.8533 39.0607 59.0624 39.0316 59.2838C39.0025 59.5052 39.0345 59.7304 39.1241 59.9347C39.2137 60.1391 39.3575 60.3148 39.5398 60.4425C39.722 60.5703 39.9357 60.6453 40.1575 60.6593C40.3793 60.6733 40.6006 60.6257 40.7974 60.5218C40.9941 60.418 41.1586 60.2617 41.2729 60.0703C41.3873 59.8788 41.4471 59.6594 41.4457 59.436C41.442 59.1854 41.3633 58.9416 41.2198 58.7365C41.0764 58.5314 40.8748 58.3744 40.6413 58.286Z" fill="white"/>
</mask>
<g mask="url(#mask22_34_79)">
<path d="M35.5239 52.6195V60.6696H41.4269V52.6195H35.5239Z" fill="#26838D"/>
</g>
<path d="M33.3409 60.4456V59.8269L31.7169 58.1949C31.7749 58.0512 31.8069 57.8982 31.8113 57.7432C31.8121 57.5014 31.7414 57.2647 31.6082 57.0632C31.4751 56.8618 31.2854 56.7045 31.0632 56.6115C30.8411 56.5184 30.5965 56.4936 30.3603 56.5404C30.1242 56.5871 29.9071 56.7032 29.7367 56.8739C29.5662 57.0447 29.45 57.2625 29.4028 57.4996C29.3556 57.7368 29.3794 57.9827 29.4714 58.2063C29.5633 58.4298 29.7192 58.6209 29.9192 58.7553C30.1193 58.8898 30.3546 58.9616 30.5952 58.9616C30.7896 58.9574 30.9811 58.9135 31.158 58.8325L32.5025 60.1837V60.4646C32.2935 60.5404 32.1092 60.6725 31.9698 60.8465C31.8305 61.0204 31.7414 61.2295 31.7123 61.4509C31.6832 61.6723 31.7152 61.8975 31.8048 62.1019C31.8944 62.3062 32.0382 62.4819 32.2205 62.6097C32.4027 62.7374 32.6164 62.8124 32.8382 62.8264C33.06 62.8404 33.2814 62.7929 33.4781 62.689C33.6748 62.5851 33.8393 62.4289 33.9537 62.2374C34.068 62.0459 34.1278 61.8265 34.1265 61.6032C34.1365 61.3506 34.0657 61.1014 33.9242 60.8923C33.7828 60.6832 33.5783 60.5253 33.3409 60.4418V60.4456Z" fill="#26838D"/>
<mask id="mask23_34_79" style="mask-type:luminance" maskUnits="userSpaceOnUse" x="29" y="56" width="6" height="7">
<path d="M33.3409 60.4456V59.8269L31.7169 58.1949C31.7749 58.0512 31.8069 57.8982 31.8113 57.7432C31.8121 57.5014 31.7414 57.2647 31.6082 57.0632C31.4751 56.8618 31.2854 56.7045 31.0632 56.6115C30.8411 56.5184 30.5965 56.4936 30.3603 56.5404C30.1242 56.5871 29.9071 56.7032 29.7367 56.8739C29.5662 57.0447 29.45 57.2625 29.4028 57.4996C29.3556 57.7368 29.3794 57.9827 29.4714 58.2063C29.5633 58.4298 29.7192 58.6209 29.9192 58.7553C30.1193 58.8898 30.3546 58.9616 30.5952 58.9616C30.7896 58.9574 30.9811 58.9135 31.158 58.8325L32.5025 60.1837V60.4646C32.2935 60.5404 32.1092 60.6725 31.9698 60.8465C31.8305 61.0204 31.7414 61.2295 31.7123 61.4509C31.6832 61.6723 31.7152 61.8975 31.8048 62.1019C31.8944 62.3062 32.0382 62.4819 32.2205 62.6097C32.4027 62.7374 32.6164 62.8124 32.8382 62.8264C33.06 62.8404 33.2814 62.7929 33.4781 62.689C33.6748 62.5851 33.8393 62.4289 33.9537 62.2374C34.068 62.0459 34.1278 61.8265 34.1265 61.6032C34.1365 61.3506 34.0657 61.1014 33.9242 60.8923C33.7828 60.6832 33.5783 60.5253 33.3409 60.4418V60.4456Z" fill="white"/>
</mask>
<g mask="url(#mask23_34_79)">
<path d="M29.3638 56.5057V62.8288H34.1451V56.5057H29.3638Z" fill="#26838D"/>
</g>
<path d="M22.1543 62.609V58.8136L26.7128 54.2136L24.1069 51.6023C24.1594 51.4591 24.1838 51.307 24.1786 51.1545C24.1809 50.9127 24.1115 50.6758 23.9793 50.4738C23.8472 50.2718 23.6582 50.1138 23.4364 50.0201C23.2146 49.9264 22.9701 49.9011 22.734 49.9474C22.4979 49.9937 22.2809 50.1096 22.1105 50.2803C21.9401 50.451 21.8241 50.6687 21.7773 50.9059C21.7304 51.143 21.7548 51.3888 21.8474 51.612C21.94 51.8351 22.0965 52.0255 22.2971 52.159C22.4977 52.2925 22.7333 52.3629 22.9739 52.3614C23.1762 52.3607 23.3749 52.3085 23.5517 52.2096L25.5307 54.1984L21.3159 58.4341V62.609C21.1069 62.6848 20.9226 62.817 20.7833 62.9909C20.6439 63.1649 20.5548 63.374 20.5257 63.5954C20.4966 63.8168 20.5286 64.042 20.6182 64.2463C20.7079 64.4507 20.8517 64.6263 21.0339 64.7541C21.2162 64.8819 21.4299 64.9569 21.6516 64.9709C21.8734 64.9848 22.0948 64.9373 22.2915 64.8334C22.4882 64.7295 22.6527 64.5733 22.7671 64.3818C22.8814 64.1903 22.9412 63.9709 22.9399 63.7476C22.9457 63.4987 22.8727 63.2544 22.7316 63.0498C22.5904 62.8452 22.3883 62.6909 22.1543 62.609Z" fill="#26838D"/>
<mask id="mask24_34_79" style="mask-type:luminance" maskUnits="userSpaceOnUse" x="20" y="49" width="7" height="16">
<path d="M22.1543 62.609V58.8136L26.7128 54.2136L24.1069 51.6023C24.1594 51.4591 24.1838 51.307 24.1786 51.1545C24.1809 50.9127 24.1115 50.6758 23.9793 50.4738C23.8472 50.2718 23.6582 50.1138 23.4364 50.0201C23.2146 49.9264 22.9701 49.9011 22.734 49.9474C22.4979 49.9937 22.2809 50.1096 22.1105 50.2803C21.9401 50.451 21.8241 50.6687 21.7773 50.9059C21.7304 51.143 21.7548 51.3888 21.8474 51.612C21.94 51.8351 22.0965 52.0255 22.2971 52.159C22.4977 52.2925 22.7333 52.3629 22.9739 52.3614C23.1762 52.3607 23.3749 52.3085 23.5517 52.2096L25.5307 54.1984L21.3159 58.4341V62.609C21.1069 62.6848 20.9226 62.817 20.7833 62.9909C20.6439 63.1649 20.5548 63.374 20.5257 63.5954C20.4966 63.8168 20.5286 64.042 20.6182 64.2463C20.7079 64.4507 20.8517 64.6263 21.0339 64.7541C21.2162 64.8819 21.4299 64.9569 21.6516 64.9709C21.8734 64.9848 22.0948 64.9373 22.2915 64.8334C22.4882 64.7295 22.6527 64.5733 22.7671 64.3818C22.8814 64.1903 22.9412 63.9709 22.9399 63.7476C22.9457 63.4987 22.8727 63.2544 22.7316 63.0498C22.5904 62.8452 22.3883 62.6909 22.1543 62.609Z" fill="white"/>
</mask>
<g mask="url(#mask24_34_79)">
<path d="M20.5114 49.9169V64.9315H26.7127V49.9169H20.5114Z" fill="#26838D"/>
</g>
<path d="M27.2529 56.5059C27.0935 56.5054 26.9356 56.5365 26.7883 56.5976C26.641 56.6586 26.5072 56.7484 26.3945 56.8616C26.2818 56.9748 26.1926 57.1093 26.1318 57.2574C26.0711 57.4054 26.04 57.5641 26.0405 57.7242C26.041 57.8796 26.0731 58.0333 26.135 58.1758L24.5072 59.8079V60.4265C24.2378 60.5239 24.0112 60.7137 23.8674 60.9625C23.7236 61.2112 23.6717 61.503 23.7208 61.7865C23.77 62.0699 23.9172 62.3268 24.1363 62.5119C24.3554 62.6971 24.6326 62.7986 24.9189 62.7986C25.2052 62.7986 25.4823 62.6971 25.7014 62.5119C25.9206 62.3268 26.0677 62.0699 26.1169 61.7865C26.1661 61.503 26.1142 61.2112 25.9703 60.9625C25.8265 60.7137 25.5999 60.5239 25.3305 60.4265V60.1457L26.675 58.8135C26.8469 58.9049 27.0396 58.9494 27.234 58.9425C27.3935 58.943 27.5515 58.9119 27.6991 58.8509C27.8466 58.7899 27.9807 58.7002 28.0937 58.587C28.2066 58.4738 28.2963 58.3394 28.3574 58.1913C28.4186 58.0432 28.4501 57.8845 28.4501 57.7242C28.4521 57.5658 28.4225 57.4086 28.363 57.2619C28.3035 57.1152 28.2154 56.982 28.1037 56.8702C27.9921 56.7584 27.8593 56.6702 27.7131 56.6109C27.567 56.5515 27.4105 56.5223 27.2529 56.5248V56.5059Z" fill="#26838D"/>
<mask id="mask25_34_79" style="mask-type:luminance" maskUnits="userSpaceOnUse" x="23" y="56" width="6" height="7">
<path d="M27.2529 56.5059C27.0935 56.5054 26.9356 56.5365 26.7883 56.5976C26.641 56.6586 26.5072 56.7484 26.3945 56.8616C26.2818 56.9748 26.1926 57.1093 26.1318 57.2574C26.0711 57.4054 26.04 57.5641 26.0405 57.7242C26.041 57.8796 26.0731 58.0333 26.135 58.1758L24.5072 59.8079V60.4265C24.2378 60.5239 24.0112 60.7137 23.8674 60.9625C23.7236 61.2112 23.6717 61.503 23.7208 61.7865C23.77 62.0699 23.9172 62.3268 24.1363 62.5119C24.3554 62.6971 24.6326 62.7986 24.9189 62.7986C25.2052 62.7986 25.4823 62.6971 25.7014 62.5119C25.9206 62.3268 26.0677 62.0699 26.1169 61.7865C26.1661 61.503 26.1142 61.2112 25.9703 60.9625C25.8265 60.7137 25.5999 60.5239 25.3305 60.4265V60.1457L26.675 58.8135C26.8469 58.9049 27.0396 58.9494 27.234 58.9425C27.3935 58.943 27.5515 58.9119 27.6991 58.8509C27.8466 58.7899 27.9807 58.7002 28.0937 58.587C28.2066 58.4738 28.2963 58.3394 28.3574 58.1913C28.4186 58.0432 28.4501 57.8845 28.4501 57.7242C28.4521 57.5658 28.4225 57.4086 28.363 57.2619C28.3035 57.1152 28.2154 56.982 28.1037 56.8702C27.9921 56.7584 27.8593 56.6702 27.7131 56.6109C27.567 56.5515 27.4105 56.5223 27.2529 56.5248V56.5059Z" fill="white"/>
</mask>
<g mask="url(#mask25_34_79)">
<path d="M23.6874 56.5059V62.829H28.4687V56.5059H23.6874Z" fill="#26838D"/>
</g>
<path d="M53.3008 33.1413C53.1209 33.1405 52.943 33.1794 52.7796 33.2552L51.5106 31.9799C51.5999 31.8052 51.644 31.6107 51.639 31.4144C51.6413 31.1721 51.5718 30.9345 51.4394 30.732C51.3069 30.5294 51.1176 30.371 50.8954 30.2769C50.6731 30.1827 50.4281 30.1571 50.1913 30.2033C49.9546 30.2495 49.7368 30.3653 49.5658 30.5362C49.3947 30.707 49.2781 30.9251 49.2307 31.1627C49.1832 31.4003 49.2072 31.6468 49.2995 31.8707C49.3917 32.0946 49.5482 32.2859 49.7489 32.4202C49.9496 32.5545 50.1856 32.6259 50.4267 32.6251C50.5861 32.623 50.7437 32.5908 50.8913 32.5303L52.2018 33.8435C52.1245 34.0083 52.0857 34.1888 52.0885 34.371C52.1058 34.6829 52.2413 34.9762 52.4671 35.1909C52.6929 35.4055 52.9919 35.5251 53.3027 35.5251C53.6135 35.5251 53.9125 35.4055 54.1383 35.1909C54.3641 34.9762 54.4996 34.6829 54.5169 34.371C54.5179 34.0448 54.3907 33.7314 54.163 33.499C53.9352 33.2666 53.6254 33.1339 53.3008 33.1299V33.1413Z" fill="#26838D"/>
<mask id="mask26_34_79" style="mask-type:luminance" maskUnits="userSpaceOnUse" x="49" y="30" width="6" height="6">
<path d="M53.3008 33.1413C53.1209 33.1405 52.943 33.1794 52.7796 33.2552L51.5106 31.9799C51.5999 31.8052 51.644 31.6107 51.639 31.4144C51.6413 31.1721 51.5718 30.9345 51.4394 30.732C51.3069 30.5294 51.1176 30.371 50.8954 30.2769C50.6731 30.1827 50.4281 30.1571 50.1913 30.2033C49.9546 30.2495 49.7368 30.3653 49.5658 30.5362C49.3947 30.707 49.2781 30.9251 49.2307 31.1627C49.1832 31.4003 49.2072 31.6468 49.2995 31.8707C49.3917 32.0946 49.5482 32.2859 49.7489 32.4202C49.9496 32.5545 50.1856 32.6259 50.4267 32.6251C50.5861 32.623 50.7437 32.5908 50.8913 32.5303L52.2018 33.8435C52.1245 34.0083 52.0857 34.1888 52.0885 34.371C52.1058 34.6829 52.2413 34.9762 52.4671 35.1909C52.6929 35.4055 52.9919 35.5251 53.3027 35.5251C53.6135 35.5251 53.9125 35.4055 54.1383 35.1909C54.3641 34.9762 54.4996 34.6829 54.5169 34.371C54.5179 34.0448 54.3907 33.7314 54.163 33.499C53.9352 33.2666 53.6254 33.1339 53.3008 33.1299V33.1413Z" fill="white"/>
</mask>
<g mask="url(#mask26_34_79)">
<path d="M49.2107 30.1771V35.6007H54.517V30.1771H49.2107Z" fill="#26838D"/>
</g>
<path d="M52.8098 41.5294V38.8081L50.2681 36.2576C50.3434 36.0987 50.3821 35.9249 50.3814 35.749C50.3814 35.5071 50.31 35.2707 50.1762 35.0696C50.0424 34.8685 49.8523 34.7119 49.6298 34.6195C49.4074 34.5271 49.1627 34.5032 48.9267 34.5506C48.6907 34.5981 48.474 34.7149 48.3041 34.8861C48.1341 35.0574 48.0186 35.2756 47.9721 35.5129C47.9256 35.7502 47.9503 35.996 48.0429 36.2193C48.1355 36.4425 48.292 36.6331 48.4924 36.767C48.6929 36.9008 48.9284 36.9718 49.1691 36.9711C49.3432 36.9739 49.5154 36.9349 49.6714 36.8572L51.9676 39.1648V41.5294C51.7586 41.6052 51.5744 41.7373 51.435 41.9113C51.2956 42.0852 51.2065 42.2943 51.1774 42.5157C51.1483 42.7371 51.1803 42.9623 51.27 43.1667C51.3596 43.371 51.5034 43.5467 51.6856 43.6745C51.8679 43.8022 52.0816 43.8772 52.3034 43.8912C52.5252 43.9052 52.7465 43.8577 52.9432 43.7538C53.14 43.6499 53.3045 43.4937 53.4188 43.3022C53.5332 43.1107 53.5929 42.8913 53.5916 42.668C53.5971 42.4197 53.5245 42.1759 53.3841 41.9715C53.2437 41.7671 53.0428 41.6124 52.8098 41.5294Z" fill="#26838D"/>
<mask id="mask27_34_79" style="mask-type:luminance" maskUnits="userSpaceOnUse" x="47" y="34" width="7" height="10">
<path d="M52.8098 41.5294V38.8081L50.2681 36.2576C50.3434 36.0987 50.3821 35.9249 50.3814 35.749C50.3814 35.5071 50.31 35.2707 50.1762 35.0696C50.0424 34.8685 49.8523 34.7119 49.6298 34.6195C49.4074 34.5271 49.1627 34.5032 48.9267 34.5506C48.6907 34.5981 48.474 34.7149 48.3041 34.8861C48.1341 35.0574 48.0186 35.2756 47.9721 35.5129C47.9256 35.7502 47.9503 35.996 48.0429 36.2193C48.1355 36.4425 48.292 36.6331 48.4924 36.767C48.6929 36.9008 48.9284 36.9718 49.1691 36.9711C49.3432 36.9739 49.5154 36.9349 49.6714 36.8572L51.9676 39.1648V41.5294C51.7586 41.6052 51.5744 41.7373 51.435 41.9113C51.2956 42.0852 51.2065 42.2943 51.1774 42.5157C51.1483 42.7371 51.1803 42.9623 51.27 43.1667C51.3596 43.371 51.5034 43.5467 51.6856 43.6745C51.8679 43.8022 52.0816 43.8772 52.3034 43.8912C52.5252 43.9052 52.7465 43.8577 52.9432 43.7538C53.14 43.6499 53.3045 43.4937 53.4188 43.3022C53.5332 43.1107 53.5929 42.8913 53.5916 42.668C53.5971 42.4197 53.5245 42.1759 53.3841 41.9715C53.2437 41.7671 53.0428 41.6124 52.8098 41.5294Z" fill="white"/>
</mask>
<g mask="url(#mask27_34_79)">
<path d="M47.9414 34.5229V43.9051H53.6065V34.5229H47.9414Z" fill="#26838D"/>
</g>
<path d="M48.0928 45.5828V42.3377L43.5607 37.7832V33.3123L42.7223 34.2118V38.1704L47.2543 42.7248V45.6131C47.0453 45.689 46.8611 45.8211 46.7217 45.9951C46.5823 46.169 46.4932 46.3781 46.4641 46.5995C46.435 46.8209 46.467 47.0461 46.5567 47.2504C46.6463 47.4548 46.7901 47.6305 46.9723 47.7583C47.1546 47.886 47.3683 47.961 47.5901 47.975C47.8119 47.989 48.0332 47.9414 48.2299 47.8376C48.4267 47.7337 48.5912 47.5775 48.7055 47.386C48.8199 47.1945 48.8796 46.9751 48.8783 46.7518C48.8888 46.4981 48.8182 46.2478 48.6769 46.0374C48.5355 45.8271 48.3308 45.6677 48.0928 45.5828Z" fill="#26838D"/>
<mask id="mask28_34_79" style="mask-type:luminance" maskUnits="userSpaceOnUse" x="42" y="33" width="7" height="15">
<path d="M48.0928 45.5828V42.3377L43.5607 37.7832V33.3123L42.7223 34.2118V38.1704L47.2543 42.7248V45.6131C47.0453 45.689 46.8611 45.8211 46.7217 45.9951C46.5823 46.169 46.4932 46.3781 46.4641 46.5995C46.435 46.8209 46.467 47.0461 46.5567 47.2504C46.6463 47.4548 46.7901 47.6305 46.9723 47.7583C47.1546 47.886 47.3683 47.961 47.5901 47.975C47.8119 47.989 48.0332 47.9414 48.2299 47.8376C48.4267 47.7337 48.5912 47.5775 48.7055 47.386C48.8199 47.1945 48.8796 46.9751 48.8783 46.7518C48.8888 46.4981 48.8182 46.2478 48.6769 46.0374C48.5355 45.8271 48.3308 45.6677 48.0928 45.5828Z" fill="white"/>
</mask>
<g mask="url(#mask28_34_79)">
<path d="M42.7336 33.3123V47.9663H48.8934V33.3123H42.7336Z" fill="#26838D"/>
</g>
<path d="M46.8616 49.0745C46.6495 49.0705 46.4409 49.1286 46.2611 49.2415L45.4038 48.3799V43.8254C45.6721 43.7281 45.8977 43.5387 46.0408 43.2907C46.184 43.0427 46.2355 42.7519 46.1863 42.4695C46.1371 42.1871 45.9904 41.9312 45.772 41.7467C45.5536 41.5623 45.2774 41.4612 44.9921 41.4612C44.7068 41.4612 44.4307 41.5623 44.2122 41.7467C43.9938 41.9312 43.8471 42.1871 43.7979 42.4695C43.7488 42.7519 43.8003 43.0427 43.9434 43.2907C44.0865 43.5387 44.3121 43.7281 44.5804 43.8254V48.7253L45.7399 49.8867C45.6953 50.0203 45.6698 50.1596 45.6644 50.3004C45.6817 50.6122 45.8171 50.9056 46.043 51.1202C46.2688 51.3348 46.5678 51.4544 46.8786 51.4544C47.1894 51.4544 47.4884 51.3348 47.7142 51.1202C47.94 50.9056 48.0755 50.6122 48.0928 50.3004C48.0869 49.9751 47.9549 49.665 47.725 49.4361C47.495 49.2071 47.1853 49.0774 46.8616 49.0745Z" fill="#26838D"/>
<mask id="mask29_34_79" style="mask-type:luminance" maskUnits="userSpaceOnUse" x="43" y="41" width="6" height="11">
<path d="M46.8616 49.0745C46.6495 49.0705 46.4409 49.1286 46.2611 49.2415L45.4038 48.3799V43.8254C45.6721 43.7281 45.8977 43.5387 46.0408 43.2907C46.184 43.0427 46.2355 42.7519 46.1863 42.4695C46.1371 42.1871 45.9904 41.9312 45.772 41.7467C45.5536 41.5623 45.2774 41.4612 44.9921 41.4612C44.7068 41.4612 44.4307 41.5623 44.2122 41.7467C43.9938 41.9312 43.8471 42.1871 43.7979 42.4695C43.7488 42.7519 43.8003 43.0427 43.9434 43.2907C44.0865 43.5387 44.3121 43.7281 44.5804 43.8254V48.7253L45.7399 49.8867C45.6953 50.0203 45.6698 50.1596 45.6644 50.3004C45.6817 50.6122 45.8171 50.9056 46.043 51.1202C46.2688 51.3348 46.5678 51.4544 46.8786 51.4544C47.1894 51.4544 47.4884 51.3348 47.7142 51.1202C47.94 50.9056 48.0755 50.6122 48.0928 50.3004C48.0869 49.9751 47.9549 49.665 47.725 49.4361C47.495 49.2071 47.1853 49.0774 46.8616 49.0745Z" fill="white"/>
</mask>
<g mask="url(#mask29_34_79)">
<path d="M43.7458 41.4533V51.5301H48.0777V41.4533H43.7458Z" fill="#26838D"/>
</g>
<path d="M44.2065 53.8416C44.0413 53.8425 43.8775 53.8734 43.7231 53.9327L43.032 53.2381V42.0569L42.4541 41.4724L41.8574 42.0759L42.1935 42.4137V53.6139L43.1113 54.5324C43.0299 54.7033 42.9849 54.8895 42.9791 55.0789C42.9964 55.3908 43.1319 55.6841 43.3577 55.8988C43.5835 56.1134 43.8825 56.233 44.1933 56.233C44.5041 56.233 44.8031 56.1134 45.0289 55.8988C45.2547 55.6841 45.3902 55.3908 45.4075 55.0789C45.4085 54.7531 45.2812 54.4401 45.0534 54.2083C44.8255 53.9764 44.5156 53.8446 44.1914 53.8416H44.2065Z" fill="#26838D"/>
<mask id="mask30_34_79" style="mask-type:luminance" maskUnits="userSpaceOnUse" x="41" y="41" width="5" height="16">
<path d="M44.2065 53.8416C44.0413 53.8425 43.8775 53.8734 43.7231 53.9327L43.032 53.2381V42.0569L42.4541 41.4724L41.8574 42.0759L42.1935 42.4137V53.6139L43.1113 54.5324C43.0299 54.7033 42.9849 54.8895 42.9791 55.0789C42.9964 55.3908 43.1319 55.6841 43.3577 55.8988C43.5835 56.1134 43.8825 56.233 44.1933 56.233C44.5041 56.233 44.8031 56.1134 45.0289 55.8988C45.2547 55.6841 45.3902 55.3908 45.4075 55.0789C45.4085 54.7531 45.2812 54.4401 45.0534 54.2083C44.8255 53.9764 44.5156 53.8446 44.1914 53.8416H44.2065Z" fill="white"/>
</mask>
<g mask="url(#mask30_34_79)">
<path d="M41.8574 41.4724V56.2972H45.4075V41.4724H41.8574Z" fill="#26838D"/>
</g>
<path d="M5.22342 21.3377C5.38277 21.3382 5.54064 21.307 5.68795 21.246C5.83526 21.1849 5.9691 21.0952 6.08177 20.982C6.19445 20.8688 6.28373 20.7342 6.34448 20.5862C6.40523 20.4382 6.43624 20.2795 6.43574 20.1194C6.43318 19.8703 6.3552 19.628 6.21216 19.4245C6.06913 19.2211 5.86784 19.0663 5.63508 18.9808V18.5822L9.21917 14.9766C9.38324 15.0543 9.5628 15.0932 9.74413 15.0905C9.98482 15.0905 10.2201 15.0187 10.4202 14.8842C10.6202 14.7498 10.7761 14.5587 10.868 14.3352C10.9599 14.1116 10.9838 13.8657 10.9366 13.6285C10.8894 13.3914 10.7732 13.1736 10.6027 13.0028C10.4322 12.8321 10.2152 12.716 9.97906 12.6693C9.74291 12.6225 9.49828 12.6473 9.27613 12.7404C9.05398 12.8334 8.86432 12.9907 8.73115 13.1922C8.59798 13.3936 8.52729 13.6303 8.52804 13.8722C8.52727 14.053 8.56594 14.2317 8.64134 14.3959L4.80798 18.2255V18.9618C4.57523 19.0474 4.37394 19.2022 4.2309 19.4056C4.08787 19.609 4.00988 19.8513 4.00732 20.1004C4.0102 20.425 4.13878 20.7358 4.3658 20.9668C4.59282 21.1978 4.90044 21.3308 5.22342 21.3377Z" fill="#26838D"/>
<mask id="mask31_34_79" style="mask-type:luminance" maskUnits="userSpaceOnUse" x="4" y="12" width="7" height="10">
<path d="M5.22342 21.3377C5.38277 21.3382 5.54064 21.307 5.68795 21.246C5.83526 21.1849 5.9691 21.0952 6.08177 20.982C6.19445 20.8688 6.28373 20.7342 6.34448 20.5862C6.40523 20.4382 6.43624 20.2795 6.43574 20.1194C6.43318 19.8703 6.3552 19.628 6.21216 19.4245C6.06913 19.2211 5.86784 19.0663 5.63508 18.9808V18.5822L9.21917 14.9766C9.38324 15.0543 9.5628 15.0932 9.74413 15.0905C9.98482 15.0905 10.2201 15.0187 10.4202 14.8842C10.6202 14.7498 10.7761 14.5587 10.868 14.3352C10.9599 14.1116 10.9838 13.8657 10.9366 13.6285C10.8894 13.3914 10.7732 13.1736 10.6027 13.0028C10.4322 12.8321 10.2152 12.716 9.97906 12.6693C9.74291 12.6225 9.49828 12.6473 9.27613 12.7404C9.05398 12.8334 8.86432 12.9907 8.73115 13.1922C8.59798 13.3936 8.52729 13.6303 8.52804 13.8722C8.52727 14.053 8.56594 14.2317 8.64134 14.3959L4.80798 18.2255V18.9618C4.57523 19.0474 4.37394 19.2022 4.2309 19.4056C4.08787 19.609 4.00988 19.8513 4.00732 20.1004C4.0102 20.425 4.13878 20.7358 4.3658 20.9668C4.59282 21.1978 4.90044 21.3308 5.22342 21.3377Z" fill="white"/>
</mask>
<g mask="url(#mask31_34_79)">
<path d="M4.02649 12.6307V21.3374H10.9718V12.6307H4.02649Z" fill="#26838D"/>
</g>
<path d="M6.1714 14.6958C6.33093 14.6963 6.48898 14.6651 6.6365 14.6041C6.78402 14.5431 6.91811 14.4535 7.03109 14.3403C7.14406 14.2271 7.2337 14.0926 7.29486 13.9446C7.35602 13.7965 7.3875 13.6378 7.3875 13.4775C7.38821 13.2954 7.34955 13.1154 7.2742 12.9499L11.5117 8.69146C11.6697 8.76708 11.8427 8.80599 12.0177 8.80532C12.2579 8.80532 12.4928 8.73383 12.6926 8.59987C12.8924 8.46592 13.0483 8.27549 13.1405 8.05262C13.2328 7.82975 13.2573 7.58442 13.211 7.34756C13.1647 7.1107 13.0496 6.89293 12.8803 6.72171C12.711 6.5505 12.495 6.43351 12.2596 6.3855C12.0242 6.33749 11.7799 6.36061 11.5576 6.45195C11.3352 6.54329 11.1448 6.69874 11.0103 6.89872C10.8757 7.0987 10.8031 7.33423 10.8016 7.57561C10.8009 7.75764 10.8396 7.93764 10.9149 8.10317L6.67748 12.3692C6.51342 12.2915 6.33386 12.2526 6.15252 12.2553C5.98736 12.2475 5.82233 12.2735 5.66753 12.3319C5.51272 12.3903 5.3714 12.4798 5.25218 12.595C5.13297 12.7101 5.03837 12.8485 4.97418 13.0016C4.90998 13.1547 4.87754 13.3194 4.87882 13.4856C4.88011 13.6518 4.9151 13.8159 4.98165 13.968C5.04821 14.1201 5.14494 14.257 5.26592 14.3703C5.3869 14.4835 5.5296 14.5708 5.68528 14.6268C5.84097 14.6828 6.00638 14.7062 6.1714 14.6958Z" fill="#26838D"/>
<mask id="mask32_34_79" style="mask-type:luminance" maskUnits="userSpaceOnUse" x="4" y="6" width="10" height="9">
<path d="M6.1714 14.6958C6.33093 14.6963 6.48898 14.6651 6.6365 14.6041C6.78402 14.5431 6.91811 14.4535 7.03109 14.3403C7.14406 14.2271 7.2337 14.0926 7.29486 13.9446C7.35602 13.7965 7.3875 13.6378 7.3875 13.4775C7.38821 13.2954 7.34955 13.1154 7.2742 12.9499L11.5117 8.69146C11.6697 8.76708 11.8427 8.80599 12.0177 8.80532C12.2579 8.80532 12.4928 8.73383 12.6926 8.59987C12.8924 8.46592 13.0483 8.27549 13.1405 8.05262C13.2328 7.82975 13.2573 7.58442 13.211 7.34756C13.1647 7.1107 13.0496 6.89293 12.8803 6.72171C12.711 6.5505 12.495 6.43351 12.2596 6.3855C12.0242 6.33749 11.7799 6.36061 11.5576 6.45195C11.3352 6.54329 11.1448 6.69874 11.0103 6.89872C10.8757 7.0987 10.8031 7.33423 10.8016 7.57561C10.8009 7.75764 10.8396 7.93764 10.9149 8.10317L6.67748 12.3692C6.51342 12.2915 6.33386 12.2526 6.15252 12.2553C5.98736 12.2475 5.82233 12.2735 5.66753 12.3319C5.51272 12.3903 5.3714 12.4798 5.25218 12.595C5.13297 12.7101 5.03837 12.8485 4.97418 13.0016C4.90998 13.1547 4.87754 13.3194 4.87882 13.4856C4.88011 13.6518 4.9151 13.8159 4.98165 13.968C5.04821 14.1201 5.14494 14.257 5.26592 14.3703C5.3869 14.4835 5.5296 14.5708 5.68528 14.6268C5.84097 14.6828 6.00638 14.7062 6.1714 14.6958Z" fill="white"/>
</mask>
<g mask="url(#mask32_34_79)">
<path d="M4.94006 6.36487V14.7147H13.2488V6.36487H4.94006Z" fill="#26838D"/>
</g>
<path d="M5.74457 34.3635C5.74743 34.1874 5.70859 34.0131 5.63127 33.8549L6.93801 32.5417C7.08691 32.6023 7.24572 32.6344 7.40632 32.6366C7.64684 32.6366 7.88196 32.5649 8.08195 32.4307C8.28194 32.2964 8.43781 32.1055 8.52985 31.8822C8.62189 31.6589 8.64598 31.4131 8.59905 31.1761C8.55213 30.939 8.43631 30.7213 8.26623 30.5503C8.09616 30.3794 7.87947 30.263 7.64357 30.2159C7.40767 30.1687 7.16316 30.1929 6.94094 30.2854C6.71873 30.3779 6.5288 30.5346 6.39517 30.7355C6.26155 30.9365 6.19022 31.1728 6.19022 31.4145C6.19379 31.6103 6.23885 31.8031 6.32241 31.98L5.05344 33.2553C4.88937 33.1776 4.70981 33.1387 4.52848 33.1414C4.28795 33.1414 4.05283 33.2131 3.85285 33.3474C3.65286 33.4817 3.49699 33.6725 3.40495 33.8958C3.31291 34.1192 3.28882 34.3649 3.33575 34.602C3.38267 34.839 3.49849 35.0568 3.66857 35.2277C3.83864 35.3986 4.05533 35.515 4.29123 35.5622C4.52713 35.6093 4.77164 35.5851 4.99386 35.4926C5.21607 35.4001 5.406 35.2435 5.53962 35.0425C5.67325 34.8415 5.74457 34.6052 5.74457 34.3635Z" fill="#26838D"/>
<mask id="mask33_34_79" style="mask-type:luminance" maskUnits="userSpaceOnUse" x="3" y="30" width="6" height="6">
<path d="M5.74457 34.3635C5.74743 34.1874 5.70859 34.0131 5.63127 33.8549L6.93801 32.5417C7.08691 32.6023 7.24572 32.6344 7.40632 32.6366C7.64684 32.6366 7.88196 32.5649 8.08195 32.4307C8.28194 32.2964 8.43781 32.1055 8.52985 31.8822C8.62189 31.6589 8.64598 31.4131 8.59905 31.1761C8.55213 30.939 8.43631 30.7213 8.26623 30.5503C8.09616 30.3794 7.87947 30.263 7.64357 30.2159C7.40767 30.1687 7.16316 30.1929 6.94094 30.2854C6.71873 30.3779 6.5288 30.5346 6.39517 30.7355C6.26155 30.9365 6.19022 31.1728 6.19022 31.4145C6.19379 31.6103 6.23885 31.8031 6.32241 31.98L5.05344 33.2553C4.88937 33.1776 4.70981 33.1387 4.52848 33.1414C4.28795 33.1414 4.05283 33.2131 3.85285 33.3474C3.65286 33.4817 3.49699 33.6725 3.40495 33.8958C3.31291 34.1192 3.28882 34.3649 3.33575 34.602C3.38267 34.839 3.49849 35.0568 3.66857 35.2277C3.83864 35.3986 4.05533 35.515 4.29123 35.5622C4.52713 35.6093 4.77164 35.5851 4.99386 35.4926C5.21607 35.4001 5.406 35.2435 5.53962 35.0425C5.67325 34.8415 5.74457 34.6052 5.74457 34.3635Z" fill="white"/>
</mask>
<g mask="url(#mask33_34_79)">
<path d="M3.33496 30.1772V35.5819H8.62234V30.1772H3.33496Z" fill="#26838D"/>
</g>
<path d="M56.6999 25.7669C56.52 25.7661 56.3421 25.805 56.1787 25.8808L54.906 24.6055C54.9979 24.4317 55.0435 24.2368 55.0381 24.04C55.0381 23.7981 54.9667 23.5617 54.8329 23.3606C54.6991 23.1596 54.509 23.0029 54.2866 22.9105C54.0641 22.8181 53.8194 22.7942 53.5834 22.8416C53.3474 22.8891 53.1307 23.0059 52.9608 23.1772C52.7909 23.3485 52.6754 23.5666 52.6289 23.8039C52.5824 24.0412 52.607 24.2871 52.6996 24.5103C52.7922 24.7336 52.9487 24.9242 53.1492 25.058C53.3497 25.1918 53.5852 25.2629 53.8258 25.2621C53.9852 25.26 54.1428 25.2278 54.2904 25.1672L55.5971 26.4804C55.5232 26.645 55.4859 26.8237 55.4876 27.0042C55.4876 27.1642 55.5189 27.3226 55.5799 27.4704C55.6408 27.6182 55.7301 27.7525 55.8427 27.8657C55.9552 27.9788 56.0889 28.0685 56.236 28.1298C56.383 28.191 56.5407 28.2225 56.6999 28.2225C56.8591 28.2225 57.0167 28.191 57.1638 28.1298C57.3109 28.0685 57.4446 27.9788 57.5571 27.8657C57.6697 27.7525 57.759 27.6182 57.8199 27.4704C57.8809 27.3226 57.9122 27.1642 57.9122 27.0042C57.9132 26.679 57.7864 26.3666 57.5594 26.1348C57.3324 25.9031 57.0235 25.7709 56.6999 25.7669Z" fill="#26838D"/>
<mask id="mask34_34_79" style="mask-type:luminance" maskUnits="userSpaceOnUse" x="52" y="22" width="6" height="7">
<path d="M56.6999 25.7669C56.52 25.7661 56.3421 25.805 56.1787 25.8808L54.906 24.6055C54.9979 24.4317 55.0435 24.2368 55.0381 24.04C55.0381 23.7981 54.9667 23.5617 54.8329 23.3606C54.6991 23.1596 54.509 23.0029 54.2866 22.9105C54.0641 22.8181 53.8194 22.7942 53.5834 22.8416C53.3474 22.8891 53.1307 23.0059 52.9608 23.1772C52.7909 23.3485 52.6754 23.5666 52.6289 23.8039C52.5824 24.0412 52.607 24.2871 52.6996 24.5103C52.7922 24.7336 52.9487 24.9242 53.1492 25.058C53.3497 25.1918 53.5852 25.2629 53.8258 25.2621C53.9852 25.26 54.1428 25.2278 54.2904 25.1672L55.5971 26.4804C55.5232 26.645 55.4859 26.8237 55.4876 27.0042C55.4876 27.1642 55.5189 27.3226 55.5799 27.4704C55.6408 27.6182 55.7301 27.7525 55.8427 27.8657C55.9552 27.9788 56.0889 28.0685 56.236 28.1298C56.383 28.191 56.5407 28.2225 56.6999 28.2225C56.8591 28.2225 57.0167 28.191 57.1638 28.1298C57.3109 28.0685 57.4446 27.9788 57.5571 27.8657C57.6697 27.7525 57.759 27.6182 57.8199 27.4704C57.8809 27.3226 57.9122 27.1642 57.9122 27.0042C57.9132 26.679 57.7864 26.3666 57.5594 26.1348C57.3324 25.9031 57.0235 25.7709 56.6999 25.7669Z" fill="white"/>
</mask>
<g mask="url(#mask34_34_79)">
<path d="M52.6097 22.8217V28.2263H57.8971V22.8217H52.6097Z" fill="#26838D"/>
</g>
<path d="M2.34557 27.0042C2.34585 26.8234 2.3072 26.6448 2.23227 26.4804L3.53901 25.1672C3.68791 25.2278 3.84671 25.2599 4.00732 25.2621C4.24784 25.2621 4.48296 25.1904 4.68294 25.0561C4.88293 24.9219 5.0388 24.731 5.13084 24.5077C5.22289 24.2844 5.24697 24.0386 5.20005 23.8016C5.15312 23.5645 5.0373 23.3467 4.86723 23.1758C4.69715 23.0049 4.48047 22.8885 4.24457 22.8414C4.00867 22.7942 3.76415 22.8184 3.54194 22.9109C3.31972 23.0034 3.12979 23.16 2.99617 23.361C2.86254 23.562 2.79122 23.7983 2.79122 24.04C2.79479 24.2358 2.83985 24.4286 2.9234 24.6055L1.65443 25.8808C1.49637 25.8051 1.32341 25.7662 1.14835 25.7669C0.838035 25.7843 0.546121 25.9204 0.33256 26.1474C0.118999 26.3743 0 26.6748 0 26.9871C0 27.2995 0.118999 27.5999 0.33256 27.8269C0.546121 28.0538 0.838035 28.1899 1.14835 28.2073C1.30614 28.2094 1.46273 28.1797 1.6089 28.1199C1.75507 28.0602 1.88786 27.9716 1.99943 27.8595C2.11101 27.7474 2.19912 27.6139 2.25857 27.467C2.31802 27.3201 2.3476 27.1628 2.34557 27.0042Z" fill="#26838D"/>
<mask id="mask35_34_79" style="mask-type:luminance" maskUnits="userSpaceOnUse" x="0" y="22" width="6" height="7">
<path d="M2.34557 27.0042C2.34585 26.8234 2.3072 26.6448 2.23227 26.4804L3.53901 25.1672C3.68791 25.2278 3.84671 25.2599 4.00732 25.2621C4.24784 25.2621 4.48296 25.1904 4.68294 25.0561C4.88293 24.9219 5.0388 24.731 5.13084 24.5077C5.22289 24.2844 5.24697 24.0386 5.20005 23.8016C5.15312 23.5645 5.0373 23.3467 4.86723 23.1758C4.69715 23.0049 4.48047 22.8885 4.24457 22.8414C4.00867 22.7942 3.76415 22.8184 3.54194 22.9109C3.31972 23.0034 3.12979 23.16 2.99617 23.361C2.86254 23.562 2.79122 23.7983 2.79122 24.04C2.79479 24.2358 2.83985 24.4286 2.9234 24.6055L1.65443 25.8808C1.49637 25.8051 1.32341 25.7662 1.14835 25.7669C0.838035 25.7843 0.546121 25.9204 0.33256 26.1474C0.118999 26.3743 0 26.6748 0 26.9871C0 27.2995 0.118999 27.5999 0.33256 27.8269C0.546121 28.0538 0.838035 28.1899 1.14835 28.2073C1.30614 28.2094 1.46273 28.1797 1.6089 28.1199C1.75507 28.0602 1.88786 27.9716 1.99943 27.8595C2.11101 27.7474 2.19912 27.6139 2.25857 27.467C2.31802 27.3201 2.3476 27.1628 2.34557 27.0042Z" fill="white"/>
</mask>
<g mask="url(#mask35_34_79)">
<path d="M-0.0638428 22.8027V28.2073H5.22354V22.8027H-0.0638428Z" fill="#26838D"/>
</g>
<path d="M8.6225 7.53001C8.78202 7.53001 8.93998 7.49837 9.08731 7.43691C9.23464 7.37544 9.36846 7.28536 9.48108 7.17183C9.5937 7.05829 9.68292 6.92354 9.74363 6.77529C9.80433 6.62703 9.83532 6.4682 9.83482 6.30789C9.83728 6.13341 9.79981 5.96071 9.7253 5.8031L13.8457 1.65473H20.0281C20.125 1.9244 20.3134 2.15109 20.5602 2.29493C20.807 2.43877 21.0964 2.49054 21.3774 2.44112C21.6584 2.3917 21.9131 2.24427 22.0966 2.02476C22.2801 1.80525 22.3807 1.52773 22.3807 1.24103C22.3807 0.954326 22.2801 0.676806 22.0966 0.457298C21.9131 0.23779 21.6584 0.0903581 21.3774 0.0409413C21.0964 -0.00847557 20.807 0.0432891 20.5602 0.187128C20.3134 0.330966 20.125 0.557663 20.0281 0.827332H13.4907L9.12103 5.18445C8.96565 5.10882 8.79514 5.06988 8.6225 5.07059C8.46316 5.07009 8.30529 5.10126 8.15798 5.16231C8.01067 5.22336 7.87682 5.31308 7.76415 5.42631C7.65147 5.53954 7.56219 5.67405 7.50145 5.82209C7.4407 5.97013 7.40968 6.12878 7.41018 6.28891C7.40816 6.61476 7.53452 6.92817 7.76166 7.1607C7.98881 7.39324 8.29828 7.526 8.6225 7.53001Z" fill="#26838D"/>
<mask id="mask36_34_79" style="mask-type:luminance" maskUnits="userSpaceOnUse" x="7" y="0" width="16" height="8">
<path d="M8.6225 7.53001C8.78202 7.53001 8.93998 7.49837 9.08731 7.43691C9.23464 7.37544 9.36846 7.28536 9.48108 7.17183C9.5937 7.05829 9.68292 6.92354 9.74363 6.77529C9.80433 6.62703 9.83532 6.4682 9.83482 6.30789C9.83728 6.13341 9.79981 5.96071 9.7253 5.8031L13.8457 1.65473H20.0281C20.125 1.9244 20.3134 2.15109 20.5602 2.29493C20.807 2.43877 21.0964 2.49054 21.3774 2.44112C21.6584 2.3917 21.9131 2.24427 22.0966 2.02476C22.2801 1.80525 22.3807 1.52773 22.3807 1.24103C22.3807 0.954326 22.2801 0.676806 22.0966 0.457298C21.9131 0.23779 21.6584 0.0903581 21.3774 0.0409413C21.0964 -0.00847557 20.807 0.0432891 20.5602 0.187128C20.3134 0.330966 20.125 0.557663 20.0281 0.827332H13.4907L9.12103 5.18445C8.96565 5.10882 8.79514 5.06988 8.6225 5.07059C8.46316 5.07009 8.30529 5.10126 8.15798 5.16231C8.01067 5.22336 7.87682 5.31308 7.76415 5.42631C7.65147 5.53954 7.56219 5.67405 7.50145 5.82209C7.4407 5.97013 7.40968 6.12878 7.41018 6.28891C7.40816 6.61476 7.53452 6.92817 7.76166 7.1607C7.98881 7.39324 8.29828 7.526 8.6225 7.53001Z" fill="white"/>
</mask>
<g mask="url(#mask36_34_79)">
<path d="M7.40637 0.00372314V7.53H22.3999V0.00372314H7.40637Z" fill="#26838D"/>
</g>
<path d="M11.3643 46.748C11.362 46.4983 11.2837 46.2554 11.1399 46.0518C10.9961 45.8483 10.7937 45.6938 10.5599 45.6093V42.721L15.0919 38.1666V34.2118L14.2497 33.3123V37.7946L9.7177 42.3491V45.5942C9.45636 45.6966 9.23844 45.8869 9.10109 46.1327C8.96373 46.3785 8.91544 46.6645 8.96444 46.9421C9.01345 47.2196 9.15671 47.4715 9.36982 47.6548C9.58293 47.8381 9.85269 47.9415 10.1331 47.9473C10.2931 47.9529 10.4526 47.926 10.6021 47.8682C10.7515 47.8104 10.8877 47.7229 11.0027 47.6109C11.1177 47.499 11.209 47.3648 11.2711 47.2165C11.3332 47.0682 11.3649 46.9089 11.3643 46.748Z" fill="#26838D"/>
<mask id="mask37_34_79" style="mask-type:luminance" maskUnits="userSpaceOnUse" x="8" y="33" width="8" height="15">
<path d="M11.3643 46.748C11.362 46.4983 11.2837 46.2554 11.1399 46.0518C10.9961 45.8483 10.7937 45.6938 10.5599 45.6093V42.721L15.0919 38.1666V34.2118L14.2497 33.3123V37.7946L9.7177 42.3491V45.5942C9.45636 45.6966 9.23844 45.8869 9.10109 46.1327C8.96373 46.3785 8.91544 46.6645 8.96444 46.9421C9.01345 47.2196 9.15671 47.4715 9.36982 47.6548C9.58293 47.8381 9.85269 47.9415 10.1331 47.9473C10.2931 47.9529 10.4526 47.926 10.6021 47.8682C10.7515 47.8104 10.8877 47.7229 11.0027 47.6109C11.1177 47.499 11.209 47.3648 11.2711 47.2165C11.3332 47.0682 11.3649 46.9089 11.3643 46.748Z" fill="white"/>
</mask>
<g mask="url(#mask37_34_79)">
<path d="M8.93591 33.3123V47.9663H15.0995V33.3123H8.93591Z" fill="#26838D"/>
</g>
<path d="M13.2866 48.7177V43.8179C13.555 43.7205 13.7806 43.5312 13.9237 43.2832C14.0668 43.0352 14.1183 42.7444 14.0692 42.4619C14.02 42.1795 13.8733 41.9236 13.6549 41.7392C13.4364 41.5547 13.1603 41.4536 12.875 41.4536C12.5897 41.4536 12.3135 41.5547 12.0951 41.7392C11.8767 41.9236 11.73 42.1795 11.6808 42.4619C11.6316 42.7444 11.6831 43.0352 11.8263 43.2832C11.9694 43.5312 12.195 43.7205 12.4633 43.8179V48.3723L11.606 49.2339C11.4255 49.1258 11.2195 49.0681 11.0093 49.0669C10.7685 49.0662 10.5328 49.1373 10.3323 49.2713C10.1317 49.4053 9.97523 49.5961 9.88272 49.8196C9.79021 50.0431 9.76581 50.2891 9.81261 50.5265C9.85942 50.7639 9.97531 50.982 10.1456 51.1532C10.3159 51.3243 10.533 51.4408 10.7692 51.4878C11.0055 51.5349 11.2503 51.5104 11.4726 51.4174C11.695 51.3244 11.8849 51.1672 12.0182 50.9656C12.1516 50.7641 12.2224 50.5273 12.2216 50.2852C12.2255 50.1435 12.1998 50.0026 12.1461 49.8715L13.2866 48.7177Z" fill="#26838D"/>
<mask id="mask38_34_79" style="mask-type:luminance" maskUnits="userSpaceOnUse" x="9" y="41" width="6" height="11">
<path d="M13.2866 48.7177V43.8179C13.555 43.7205 13.7806 43.5312 13.9237 43.2832C14.0668 43.0352 14.1183 42.7444 14.0692 42.4619C14.02 42.1795 13.8733 41.9236 13.6549 41.7392C13.4364 41.5547 13.1603 41.4536 12.875 41.4536C12.5897 41.4536 12.3135 41.5547 12.0951 41.7392C11.8767 41.9236 11.73 42.1795 11.6808 42.4619C11.6316 42.7444 11.6831 43.0352 11.8263 43.2832C11.9694 43.5312 12.195 43.7205 12.4633 43.8179V48.3723L11.606 49.2339C11.4255 49.1258 11.2195 49.0681 11.0093 49.0669C10.7685 49.0662 10.5328 49.1373 10.3323 49.2713C10.1317 49.4053 9.97523 49.5961 9.88272 49.8196C9.79021 50.0431 9.76581 50.2891 9.81261 50.5265C9.85942 50.7639 9.97531 50.982 10.1456 51.1532C10.3159 51.3243 10.533 51.4408 10.7692 51.4878C11.0055 51.5349 11.2503 51.5104 11.4726 51.4174C11.695 51.3244 11.8849 51.1672 12.0182 50.9656C12.1516 50.7641 12.2224 50.5273 12.2216 50.2852C12.2255 50.1435 12.1998 50.0026 12.1461 49.8715L13.2866 48.7177Z" fill="white"/>
</mask>
<g mask="url(#mask38_34_79)">
<path d="M9.75549 41.4533V51.5301H14.0911V41.4533H9.75549Z" fill="#26838D"/>
</g>
<path d="M9.88766 35.7488C9.87035 35.4369 9.73488 35.1436 9.50907 34.9289C9.28326 34.7143 8.98425 34.5947 8.67345 34.5947C8.36265 34.5947 8.06364 34.7143 7.83784 34.9289C7.61203 35.1436 7.47656 35.4369 7.45924 35.7488C7.45639 35.9249 7.49522 36.0992 7.57254 36.2573L5.0346 38.8079V41.5292C4.76488 41.6262 4.5379 41.8157 4.39366 42.0645C4.24943 42.3132 4.1972 42.6051 4.24619 42.8888C4.29517 43.1724 4.44223 43.4296 4.66143 43.6149C4.88063 43.8003 5.1579 43.9019 5.44437 43.9019C5.73084 43.9019 6.00812 43.8003 6.22732 43.6149C6.44652 43.4296 6.59357 43.1724 6.64256 42.8888C6.69154 42.6051 6.63932 42.3132 6.49508 42.0645C6.35084 41.8157 6.12386 41.6262 5.85414 41.5292V39.1646L8.15038 36.857C8.31444 36.9347 8.494 36.9736 8.67534 36.9709C8.83486 36.9709 8.99282 36.9392 9.14015 36.8778C9.28748 36.8163 9.42129 36.7262 9.53392 36.6127C9.64654 36.4992 9.73576 36.3644 9.79646 36.2162C9.85717 36.0679 9.88816 35.9091 9.88766 35.7488Z" fill="#26838D"/>
<mask id="mask39_34_79" style="mask-type:luminance" maskUnits="userSpaceOnUse" x="4" y="34" width="6" height="10">
<path d="M9.88766 35.7488C9.87035 35.4369 9.73488 35.1436 9.50907 34.9289C9.28326 34.7143 8.98425 34.5947 8.67345 34.5947C8.36265 34.5947 8.06364 34.7143 7.83784 34.9289C7.61203 35.1436 7.47656 35.4369 7.45924 35.7488C7.45639 35.9249 7.49522 36.0992 7.57254 36.2573L5.0346 38.8079V41.5292C4.76488 41.6262 4.5379 41.8157 4.39366 42.0645C4.24943 42.3132 4.1972 42.6051 4.24619 42.8888C4.29517 43.1724 4.44223 43.4296 4.66143 43.6149C4.88063 43.8003 5.1579 43.9019 5.44437 43.9019C5.73084 43.9019 6.00812 43.8003 6.22732 43.6149C6.44652 43.4296 6.59357 43.1724 6.64256 42.8888C6.69154 42.6051 6.63932 42.3132 6.49508 42.0645C6.35084 41.8157 6.12386 41.6262 5.85414 41.5292V39.1646L8.15038 36.857C8.31444 36.9347 8.494 36.9736 8.67534 36.9709C8.83486 36.9709 8.99282 36.9392 9.14015 36.8778C9.28748 36.8163 9.42129 36.7262 9.53392 36.6127C9.64654 36.4992 9.73576 36.3644 9.79646 36.2162C9.85717 36.0679 9.88816 35.9091 9.88766 35.7488Z" fill="white"/>
</mask>
<g mask="url(#mask39_34_79)">
<path d="M4.23022 34.5229V43.9051H9.89528V34.5229H4.23022Z" fill="#26838D"/>
</g>
<path d="M14.7974 42.0569V53.2571L14.11 53.9517C13.9546 53.8911 13.7896 53.859 13.6228 53.8568C13.3821 53.856 13.1467 53.9271 12.9462 54.0609C12.7457 54.1947 12.5892 54.3853 12.4966 54.6086C12.404 54.8318 12.3794 55.0777 12.4259 55.315C12.4724 55.5523 12.5879 55.7704 12.7578 55.9417C12.9277 56.113 13.1444 56.2298 13.3804 56.2773C13.6164 56.3247 13.8611 56.3008 14.0836 56.2084C14.306 56.116 14.4961 55.9593 14.6299 55.7583C14.7637 55.5572 14.8351 55.3208 14.8352 55.0789C14.8307 54.8897 14.7869 54.7036 14.7067 54.5324L15.6207 53.6139V42.4137L15.9568 42.0759L15.379 41.4724L14.7974 42.0569Z" fill="#26838D"/>
<mask id="mask40_34_79" style="mask-type:luminance" maskUnits="userSpaceOnUse" x="12" y="41" width="4" height="16">
<path d="M14.7974 42.0569V53.2571L14.11 53.9517C13.9546 53.8911 13.7896 53.859 13.6228 53.8568C13.3821 53.856 13.1467 53.9271 12.9462 54.0609C12.7457 54.1947 12.5892 54.3853 12.4966 54.6086C12.404 54.8318 12.3794 55.0777 12.4259 55.315C12.4724 55.5523 12.5879 55.7704 12.7578 55.9417C12.9277 56.113 13.1444 56.2298 13.3804 56.2773C13.6164 56.3247 13.8611 56.3008 14.0836 56.2084C14.306 56.116 14.4961 55.9593 14.6299 55.7583C14.7637 55.5572 14.8351 55.3208 14.8352 55.0789C14.8307 54.8897 14.7869 54.7036 14.7067 54.5324L15.6207 53.6139V42.4137L15.9568 42.0759L15.379 41.4724L14.7974 42.0569Z" fill="white"/>
</mask>
<g mask="url(#mask40_34_79)">
<path d="M12.3992 41.4534V56.2783H15.9455V41.4534H12.3992Z" fill="#26838D"/>
</g>
<path d="M18.0302 58.286V57.5269L20.5871 54.9536C20.7425 55.0142 20.9075 55.0463 21.0743 55.0485C21.3149 55.0485 21.5502 54.9767 21.7503 54.8423C21.9503 54.7078 22.1062 54.5167 22.1981 54.2932C22.2901 54.0696 22.3139 53.8237 22.2667 53.5865C22.2195 53.3494 22.1033 53.1316 21.9328 52.9609C21.7624 52.7901 21.5453 52.674 21.3092 52.6273C21.073 52.5805 20.8284 52.6053 20.6063 52.6984C20.3841 52.7915 20.1944 52.9487 20.0613 53.1502C19.9281 53.3516 19.8574 53.5883 19.8582 53.8302C19.8552 54.0195 19.9007 54.2064 19.9903 54.3729L17.2069 57.1701V58.2746C16.9386 58.3719 16.713 58.5613 16.5699 58.8093C16.4267 59.0573 16.3752 59.3481 16.4244 59.6305C16.4736 59.9129 16.6203 60.1689 16.8387 60.3533C17.0571 60.5377 17.3333 60.6388 17.6186 60.6388C17.9039 60.6388 18.18 60.5377 18.3984 60.3533C18.6169 60.1689 18.7636 59.9129 18.8128 59.6305C18.8619 59.3481 18.8104 59.0573 18.6673 58.8093C18.5242 58.5613 18.2986 58.3719 18.0302 58.2746V58.286Z" fill="#26838D"/>
<mask id="mask41_34_79" style="mask-type:luminance" maskUnits="userSpaceOnUse" x="16" y="52" width="7" height="9">
<path d="M18.0302 58.286V57.5269L20.5871 54.9536C20.7425 55.0142 20.9075 55.0463 21.0743 55.0485C21.3149 55.0485 21.5502 54.9767 21.7503 54.8423C21.9503 54.7078 22.1062 54.5167 22.1981 54.2932C22.2901 54.0696 22.3139 53.8237 22.2667 53.5865C22.2195 53.3494 22.1033 53.1316 21.9328 52.9609C21.7624 52.7901 21.5453 52.674 21.3092 52.6273C21.073 52.5805 20.8284 52.6053 20.6063 52.6984C20.3841 52.7915 20.1944 52.9487 20.0613 53.1502C19.9281 53.3516 19.8574 53.5883 19.8582 53.8302C19.8552 54.0195 19.9007 54.2064 19.9903 54.3729L17.2069 57.1701V58.2746C16.9386 58.3719 16.713 58.5613 16.5699 58.8093C16.4267 59.0573 16.3752 59.3481 16.4244 59.6305C16.4736 59.9129 16.6203 60.1689 16.8387 60.3533C17.0571 60.5377 17.3333 60.6388 17.6186 60.6388C17.9039 60.6388 18.18 60.5377 18.3984 60.3533C18.6169 60.1689 18.7636 59.9129 18.8128 59.6305C18.8619 59.3481 18.8104 59.0573 18.6673 58.8093C18.5242 58.5613 18.2986 58.3719 18.0302 58.2746V58.286Z" fill="white"/>
</mask>
<g mask="url(#mask41_34_79)">
<path d="M16.3871 52.6198V60.6698H22.2863V52.6198H16.3871Z" fill="#26838D"/>
</g>
<path d="M66.235 22.5084V30H64.6511V22.5084H66.235ZM67.2529 23.8143V22.5084H73.4056V23.8143H71.112V30H69.5464V23.8143H67.2529ZM80.867 24.663C80.8377 24.3679 80.7121 24.1387 80.4902 23.9753C80.2683 23.8119 79.9671 23.7302 79.5867 23.7302C79.3282 23.7302 79.1099 23.7668 78.9319 23.84C78.7539 23.9107 78.6173 24.0094 78.5222 24.1363C78.4295 24.2631 78.3832 24.4069 78.3832 24.5679C78.3783 24.702 78.4064 24.8191 78.4673 24.9191C78.5307 25.019 78.6173 25.1056 78.727 25.1788C78.8368 25.2495 78.9636 25.3117 79.1075 25.3653C79.2514 25.4165 79.405 25.4604 79.5684 25.497L80.2415 25.658C80.5682 25.7311 80.8682 25.8287 81.1413 25.9506C81.4144 26.0725 81.651 26.2225 81.851 26.4005C82.0509 26.5786 82.2058 26.7883 82.3155 27.0297C82.4277 27.2711 82.485 27.5479 82.4875 27.8601C82.485 28.3185 82.368 28.716 82.1363 29.0526C81.9071 29.3867 81.5754 29.6464 81.1413 29.8317C80.7097 30.0146 80.189 30.1061 79.5794 30.1061C78.9746 30.1061 78.4478 30.0134 77.9991 29.8281C77.5528 29.6427 77.2041 29.3684 76.9529 29.005C76.7042 28.6392 76.5737 28.1869 76.5615 27.6479H78.0942C78.1113 27.8991 78.1832 28.1088 78.31 28.2771C78.4393 28.4429 78.6112 28.5685 78.8258 28.6539C79.0429 28.7368 79.2879 28.7782 79.5611 28.7782C79.8293 28.7782 80.0622 28.7392 80.2597 28.6612C80.4597 28.5831 80.6146 28.4746 80.7243 28.3356C80.834 28.1966 80.8889 28.0369 80.8889 27.8564C80.8889 27.6882 80.8389 27.5467 80.7389 27.4321C80.6414 27.3175 80.4975 27.2199 80.3073 27.1395C80.1195 27.059 79.8891 26.9858 79.6159 26.92L78.8002 26.7151C78.1686 26.5615 77.6699 26.3213 77.3041 25.9945C76.9383 25.6677 76.7566 25.2275 76.7591 24.674C76.7566 24.2204 76.8773 23.8241 77.1212 23.4851C77.3675 23.1462 77.7053 22.8816 78.1345 22.6913C78.5637 22.5011 79.0514 22.406 79.5976 22.406C80.1537 22.406 80.639 22.5011 81.0535 22.6913C81.4705 22.8816 81.7949 23.1462 82.0265 23.4851C82.2582 23.8241 82.3777 24.2167 82.385 24.663H80.867ZM90.4372 26.2542C90.4372 27.0712 90.2823 27.7662 89.9726 28.3393C89.6653 28.9124 89.2459 29.3501 88.7143 29.6525C88.1851 29.9524 87.59 30.1024 86.9292 30.1024C86.2634 30.1024 85.6659 29.9512 85.1368 29.6488C84.6076 29.3464 84.1893 28.9087 83.8821 28.3356C83.5748 27.7625 83.4212 27.0687 83.4212 26.2542C83.4212 25.4373 83.5748 24.7423 83.8821 24.1692C84.1893 23.5961 84.6076 23.1596 85.1368 22.8596C85.6659 22.5572 86.2634 22.406 86.9292 22.406C87.59 22.406 88.1851 22.5572 88.7143 22.8596C89.2459 23.1596 89.6653 23.5961 89.9726 24.1692C90.2823 24.7423 90.4372 25.4373 90.4372 26.2542ZM88.8313 26.2542C88.8313 25.725 88.7521 25.2788 88.5935 24.9154C88.4375 24.552 88.2168 24.2765 87.9315 24.0887C87.6461 23.9009 87.312 23.807 86.9292 23.807C86.5463 23.807 86.2122 23.9009 85.9269 24.0887C85.6416 24.2765 85.4196 24.552 85.2611 24.9154C85.105 25.2788 85.027 25.725 85.027 26.2542C85.027 26.7834 85.105 27.2297 85.2611 27.593C85.4196 27.9564 85.6416 28.232 85.9269 28.4198C86.2122 28.6075 86.5463 28.7014 86.9292 28.7014C87.312 28.7014 87.6461 28.6075 87.9315 28.4198C88.2168 28.232 88.4375 27.9564 88.5935 27.593C88.7521 27.2297 88.8313 26.7834 88.8313 26.2542ZM91.6105 30V22.5084H93.1944V28.6941H96.4061V30H91.6105ZM102.082 22.5084H103.666V27.3736C103.666 27.9198 103.536 28.3978 103.275 28.8075C103.016 29.2172 102.654 29.5367 102.188 29.7659C101.723 29.9927 101.18 30.1061 100.561 30.1061C99.9388 30.1061 99.395 29.9927 98.9292 29.7659C98.4634 29.5367 98.1013 29.2172 97.8428 28.8075C97.5843 28.3978 97.455 27.9198 97.455 27.3736V22.5084H99.0389V27.2382C99.0389 27.5235 99.1011 27.7772 99.2255 27.9991C99.3523 28.221 99.5303 28.3954 99.7595 28.5222C99.9888 28.649 100.256 28.7124 100.561 28.7124C100.868 28.7124 101.135 28.649 101.362 28.5222C101.591 28.3954 101.768 28.221 101.892 27.9991C102.019 27.7772 102.082 27.5235 102.082 27.2382V22.5084ZM104.684 23.8143V22.5084H110.837V23.8143H108.543V30H106.978V23.8143H104.684ZM113.434 22.5084V30H111.85V22.5084H113.434ZM121.621 26.2542C121.621 27.0712 121.467 27.7662 121.157 28.3393C120.85 28.9124 120.43 29.3501 119.899 29.6525C119.369 29.9524 118.774 30.1024 118.113 30.1024C117.448 30.1024 116.85 29.9512 116.321 29.6488C115.792 29.3464 115.374 28.9087 115.066 28.3356C114.759 27.7625 114.605 27.0687 114.605 26.2542C114.605 25.4373 114.759 24.7423 115.066 24.1692C115.374 23.5961 115.792 23.1596 116.321 22.8596C116.85 22.5572 117.448 22.406 118.113 22.406C118.774 22.406 119.369 22.5572 119.899 22.8596C120.43 23.1596 120.85 23.5961 121.157 24.1692C121.467 24.7423 121.621 25.4373 121.621 26.2542ZM120.016 26.2542C120.016 25.725 119.936 25.2788 119.778 24.9154C119.622 24.552 119.401 24.2765 119.116 24.0887C118.83 23.9009 118.496 23.807 118.113 23.807C117.731 23.807 117.397 23.9009 117.111 24.0887C116.826 24.2765 116.604 24.552 116.445 24.9154C116.289 25.2788 116.211 25.725 116.211 26.2542C116.211 26.7834 116.289 27.2297 116.445 27.593C116.604 27.9564 116.826 28.232 117.111 28.4198C117.397 28.6075 117.731 28.7014 118.113 28.7014C118.496 28.7014 118.83 28.6075 119.116 28.4198C119.401 28.232 119.622 27.9564 119.778 27.593C119.936 27.2297 120.016 26.7834 120.016 26.2542ZM129.061 22.5084V30H127.693L124.434 25.2849H124.379V30H122.795V22.5084H124.185L127.418 27.2199H127.484V22.5084H129.061ZM134.434 24.663C134.404 24.3679 134.279 24.1387 134.057 23.9753C133.835 23.8119 133.534 23.7302 133.153 23.7302C132.895 23.7302 132.677 23.7668 132.499 23.84C132.32 23.9107 132.184 24.0094 132.089 24.1363C131.996 24.2631 131.95 24.4069 131.95 24.5679C131.945 24.702 131.973 24.8191 132.034 24.9191C132.097 25.019 132.184 25.1056 132.294 25.1788C132.403 25.2495 132.53 25.3117 132.674 25.3653C132.818 25.4165 132.972 25.4604 133.135 25.497L133.808 25.658C134.135 25.7311 134.435 25.8287 134.708 25.9506C134.981 26.0725 135.218 26.2225 135.418 26.4005C135.618 26.5786 135.772 26.7883 135.882 27.0297C135.994 27.2711 136.052 27.5479 136.054 27.8601C136.052 28.3185 135.935 28.716 135.703 29.0526C135.474 29.3867 135.142 29.6464 134.708 29.8317C134.276 30.0146 133.756 30.1061 133.146 30.1061C132.541 30.1061 132.014 30.0134 131.566 29.8281C131.119 29.6427 130.771 29.3684 130.52 29.005C130.271 28.6392 130.14 28.1869 130.128 27.6479H131.661C131.678 27.8991 131.75 28.1088 131.877 28.2771C132.006 28.4429 132.178 28.5685 132.392 28.6539C132.609 28.7368 132.855 28.7782 133.128 28.7782C133.396 28.7782 133.629 28.7392 133.826 28.6612C134.026 28.5831 134.181 28.4746 134.291 28.3356C134.401 28.1966 134.456 28.0369 134.456 27.8564C134.456 27.6882 134.406 27.5467 134.306 27.4321C134.208 27.3175 134.064 27.2199 133.874 27.1395C133.686 27.059 133.456 26.9858 133.183 26.92L132.367 26.7151C131.735 26.5615 131.237 26.3213 130.871 25.9945C130.505 25.6677 130.323 25.2275 130.326 24.674C130.323 24.2204 130.444 23.8241 130.688 23.4851C130.934 23.1462 131.272 22.8816 131.701 22.6913C132.13 22.5011 132.618 22.406 133.164 22.406C133.72 22.406 134.206 22.5011 134.62 22.6913C135.037 22.8816 135.361 23.1462 135.593 23.4851C135.825 23.8241 135.944 24.2167 135.952 24.663H134.434ZM139.504 30V22.5084H141.087V25.5994H144.303V22.5084H145.883V30H144.303V26.9053H141.087V30H139.504ZM151.816 22.5084H153.4V27.3736C153.4 27.9198 153.27 28.3978 153.009 28.8075C152.75 29.2172 152.388 29.5367 151.922 29.7659C151.457 29.9927 150.914 30.1061 150.295 30.1061C149.673 30.1061 149.129 29.9927 148.663 29.7659C148.197 29.5367 147.835 29.2172 147.577 28.8075C147.318 28.3978 147.189 27.9198 147.189 27.3736V22.5084H148.773V27.2382C148.773 27.5235 148.835 27.7772 148.959 27.9991C149.086 28.221 149.264 28.3954 149.494 28.5222C149.723 28.649 149.99 28.7124 150.295 28.7124C150.602 28.7124 150.869 28.649 151.096 28.5222C151.325 28.3954 151.502 28.221 151.626 27.9991C151.753 27.7772 151.816 27.5235 151.816 27.2382V22.5084ZM154.703 30V22.5084H157.703C158.254 22.5084 158.714 22.5901 159.082 22.7535C159.45 22.9169 159.727 23.1437 159.912 23.4339C160.098 23.7217 160.19 24.0533 160.19 24.4289C160.19 24.7215 160.132 24.9788 160.015 25.2007C159.898 25.4202 159.737 25.6007 159.532 25.7421C159.33 25.8811 159.098 25.9799 158.837 26.0384V26.1116C159.122 26.1238 159.389 26.2042 159.638 26.353C159.889 26.5017 160.093 26.7103 160.249 26.9785C160.405 27.2443 160.483 27.5613 160.483 27.9296C160.483 28.3271 160.384 28.6819 160.187 28.9941C159.992 29.3038 159.703 29.5488 159.32 29.7293C158.937 29.9098 158.465 30 157.904 30H154.703ZM156.287 28.7051H157.579C158.02 28.7051 158.342 28.6209 158.544 28.4527C158.747 28.282 158.848 28.0552 158.848 27.7723C158.848 27.565 158.798 27.3821 158.698 27.2236C158.598 27.0651 158.455 26.9407 158.27 26.8505C158.087 26.7602 157.869 26.7151 157.615 26.7151H156.287V28.7051ZM156.287 25.6433H157.462C157.679 25.6433 157.871 25.6055 158.039 25.5299C158.21 25.4519 158.344 25.3422 158.442 25.2007C158.542 25.0593 158.592 24.8898 158.592 24.6923C158.592 24.4216 158.496 24.2033 158.303 24.0375C158.113 23.8717 157.842 23.7887 157.491 23.7887H156.287V25.6433Z" fill="#26838D"/>
<path d="M64.7755 42.8763V42.2178L67.2483 39.5109C67.5385 39.1939 67.7775 38.9183 67.9653 38.6842C68.153 38.4477 68.292 38.2257 68.3823 38.0184C68.4749 37.8087 68.5213 37.5892 68.5213 37.36C68.5213 37.0966 68.4579 36.8686 68.3311 36.676C68.2067 36.4833 68.036 36.3346 67.8189 36.2297C67.6019 36.1248 67.358 36.0724 67.0873 36.0724C66.7996 36.0724 66.5484 36.1321 66.3338 36.2516C66.1216 36.3687 65.957 36.5333 65.84 36.7455C65.7253 36.9576 65.668 37.2064 65.668 37.4917H64.8048C64.8048 37.0527 64.906 36.6674 65.1084 36.3358C65.3108 36.0041 65.5863 35.7456 65.9351 35.5603C66.2862 35.3749 66.6801 35.2823 67.1166 35.2823C67.5556 35.2823 67.9445 35.3749 68.2835 35.5603C68.6225 35.7456 68.8883 35.9956 69.0809 36.3102C69.2736 36.6248 69.3699 36.9747 69.3699 37.36C69.3699 37.6356 69.3199 37.905 69.2199 38.1684C69.1224 38.4294 68.9517 38.7208 68.7078 39.0427C68.4664 39.3621 68.1311 39.7523 67.7019 40.2132L66.0192 42.013V42.0715H69.5016V42.8763H64.7755ZM73.4559 42.9787C72.9048 42.9787 72.4353 42.8287 72.0476 42.5287C71.6598 42.2263 71.3635 41.7886 71.1587 41.2155C70.9538 40.64 70.8514 39.945 70.8514 39.1305C70.8514 38.3208 70.9538 37.6295 71.1587 37.0564C71.366 36.4809 71.6635 36.0419 72.0512 35.7395C72.4414 35.4347 72.9096 35.2823 73.4559 35.2823C74.0021 35.2823 74.4692 35.4347 74.8569 35.7395C75.2471 36.0419 75.5446 36.4809 75.7494 37.0564C75.9567 37.6295 76.0604 38.3208 76.0604 39.1305C76.0604 39.945 75.958 40.64 75.7531 41.2155C75.5483 41.7886 75.252 42.2263 74.8642 42.5287C74.4765 42.8287 74.007 42.9787 73.4559 42.9787ZM73.4559 42.1739C74.0021 42.1739 74.4265 41.9105 74.7289 41.3838C75.0313 40.857 75.1825 40.1059 75.1825 39.1305C75.1825 38.4818 75.113 37.9294 74.974 37.4734C74.8374 37.0174 74.6399 36.6699 74.3814 36.4309C74.1253 36.1919 73.8168 36.0724 73.4559 36.0724C72.9145 36.0724 72.4914 36.3394 72.1866 36.8735C71.8817 37.4051 71.7293 38.1575 71.7293 39.1305C71.7293 39.7792 71.7976 40.3303 71.9342 40.7839C72.0707 41.2375 72.267 41.5825 72.5231 41.8191C72.7816 42.0556 73.0925 42.1739 73.4559 42.1739ZM80.0842 35.3847V42.8763H79.177V36.3358H79.1331L77.3041 37.5502V36.6284L79.177 35.3847H80.0842ZM84.6822 42.9787C84.1311 42.9787 83.6617 42.8287 83.2739 42.5287C82.8862 42.2263 82.5899 41.7886 82.385 41.2155C82.1802 40.64 82.0778 39.945 82.0778 39.1305C82.0778 38.3208 82.1802 37.6295 82.385 37.0564C82.5923 36.4809 82.8898 36.0419 83.2776 35.7395C83.6678 35.4347 84.136 35.2823 84.6822 35.2823C85.2285 35.2823 85.6955 35.4347 86.0833 35.7395C86.4734 36.0419 86.771 36.4809 86.9758 37.0564C87.1831 37.6295 87.2867 38.3208 87.2867 39.1305C87.2867 39.945 87.1843 40.64 86.9795 41.2155C86.7746 41.7886 86.4783 42.2263 86.0906 42.5287C85.7028 42.8287 85.2334 42.9787 84.6822 42.9787ZM84.6822 42.1739C85.2285 42.1739 85.6528 41.9105 85.9552 41.3838C86.2576 40.857 86.4088 40.1059 86.4088 39.1305C86.4088 38.4818 86.3393 37.9294 86.2003 37.4734C86.0637 37.0174 85.8662 36.6699 85.6077 36.4309C85.3517 36.1919 85.0432 36.0724 84.6822 36.0724C84.1409 36.0724 83.7178 36.3394 83.4129 36.8735C83.1081 37.4051 82.9557 38.1575 82.9557 39.1305C82.9557 39.7792 83.024 40.3303 83.1605 40.7839C83.2971 41.2375 83.4934 41.5825 83.7495 41.8191C84.008 42.0556 84.3189 42.1739 84.6822 42.1739ZM91.7056 42.8763V35.3847H94.2369C94.8246 35.3847 95.305 35.4908 95.6781 35.7029C96.0537 35.9127 96.3317 36.1968 96.5122 36.5553C96.6926 36.9137 96.7829 37.3137 96.7829 37.7551C96.7829 38.1965 96.6926 38.5976 96.5122 38.9585C96.3341 39.3195 96.0586 39.6072 95.6855 39.8218C95.3124 40.034 94.8344 40.1401 94.2515 40.1401H92.4372V39.3353H94.2223C94.6246 39.3353 94.9478 39.2658 95.1916 39.1268C95.4355 38.9878 95.6123 38.8 95.722 38.5635C95.8342 38.3245 95.8903 38.055 95.8903 37.7551C95.8903 37.4551 95.8342 37.1869 95.722 36.9503C95.6123 36.7138 95.4343 36.5284 95.188 36.3943C94.9417 36.2577 94.6149 36.1895 94.2076 36.1895H92.6128V42.8763H91.7056ZM98.5515 35.3847L100.776 41.6911H100.863L103.087 35.3847H104.038L101.288 42.8763H100.351L97.6004 35.3847H98.5515ZM104.796 36.1895V35.3847H110.414V36.1895H108.059V42.8763H107.151V36.1895H104.796ZM114.712 42.8763V35.3847H115.619V42.0715H119.101V42.8763H114.712ZM119.1 36.1895V35.3847H124.719V36.1895H122.363V42.8763H121.456V36.1895H119.1ZM128.431 42.8763H126.119V35.3847H128.533C129.26 35.3847 129.882 35.5347 130.399 35.8346C130.916 36.1321 131.312 36.5601 131.588 37.1186C131.863 37.6746 132.001 38.3403 132.001 39.1158C132.001 39.8962 131.862 40.5681 131.584 41.1314C131.306 41.6923 130.901 42.1239 130.37 42.4263C129.838 42.7263 129.192 42.8763 128.431 42.8763ZM127.026 42.0715H128.372C128.992 42.0715 129.505 41.952 129.912 41.713C130.32 41.474 130.623 41.1338 130.823 40.6924C131.023 40.251 131.123 39.7255 131.123 39.1158C131.123 38.5111 131.024 37.9904 130.827 37.5539C130.629 37.1149 130.334 36.7784 129.942 36.5443C129.549 36.3077 129.06 36.1895 128.475 36.1895H127.026V42.0715Z" fill="#26838D"/>
</svg>
